SplineFontDB: 1.0
FontName: FreeSans
FullName: Free Sans
FamilyName: FreeSans
Weight: Medium
Copyright: Copyleft 2002, 2003, 2005 Free Software Foundation.
Version: $Revision: 1.68 $
ItalicAngle: 0
UnderlinePosition: -151
UnderlineWidth: 50
Ascent: 800
Descent: 200
NeedsXUIDChange: 1
FSType: 0
PfmFamily: 33
TTFWeight: 400
TTFWidth: 5
LineGap: 90
VLineGap: 0
Panose: 2 11 5 4 2 2 2 2 2 4
OS2TypoAscent: 0
OS2TypoAOffset: 1
OS2TypoDescent: 0
OS2TypoDOffset: 1
OS2TypoLinegap: 0
OS2WinAscent: 0
OS2WinAOffset: 1
OS2WinDescent: 0
OS2WinDOffset: 1
HheadAscent: 0
HheadAOffset: 1
HheadDescent: 0
HheadDOffset: 1
OS2Vendor: 'PfEd'
ScriptLang: 8
 1 latn 1 dflt 
 1 armn 1 dflt 
 1 hebr 1 dflt 
 1 DFLT 1 dflt 
 1 kana 1 dflt 
 1 beng 1 dflt 
 1 deva 1 dflt 
 1 gujr 1 dflt 
ChainSub: class 0 0 'ccmp' 3 0 3 1
  Class: 3 i j
  Class: 197 gravecomb acutecomb uni0302 tildecomb uni0304 uni0305 uni0306 uni0307 uni0308 uni030A uni030B uni030C uni030D uni030E uni030F uni0310 uni0311 uni0312 uni0313 uni0314 uni033D uni033E uni0351 uni0357
  FClass: 3 i j
  FClass: 197 gravecomb acutecomb uni0302 tildecomb uni0304 uni0305 uni0306 uni0307 uni0308 uni030A uni030B uni030C uni030D uni030E uni030F uni0310 uni0311 uni0312 uni0313 uni0314 uni033D uni033E uni0351 uni0357
 1 0 1
  ClsList: 1
  BClsList:
  FClsList: 2
 1
  SeqLookup: 0 's001'
EndFPST
GenTags: 1 sb's001'
TtfTable: cvt  4
!$MDh
EndTtf
LangName: 1033 "" "" "" "" "" "" "" "" "" "" "" "" "" "The use of this font is granted subject to GNU General Public License." "http://www.gnu.org/copyleft/gpl.html" "" "" "" "" "The quick brown fox jumps over the lazy dog." 
LangName: 1060 "" "" "navadno" "" "" "" "" "" "" "" "" "" "" "Dovoljena je uporaba v skladu z licenco GNU General Public License." "http://www.gnu.org/copyleft/gpl.html" "" "" "" "" "+AWAA-erif bo za vajo spet kuhal doma+AQ0A-e +AX4A-gance." 
Encoding: UnicodeBmp
UnicodeInterp: none
DisplaySize: -48
AntiAlias: 1
FitToEm: 1
WinInfo: 2656 16 10
BeginPrivate: 8
UniqueID 7 5020902

StartChar: exclam
Encoding: 33 33 1
Width: 278
Flags: W
HStem: 0 21G<124 208> 709 20G<125 208>
VStem: 124 84<0 104>
Fore
208 729 m 1
 208 391 l 1
 186 168 l 1
 147 168 l 1
 125 391 l 1
 125 729 l 1
 208 729 l 1
208 104 m 1
 208 0 l 1
 124 0 l 1
 124 104 l 1
 208 104 l 1
EndSplineSet
EndChar
StartChar: quotedbl
Encoding: 34 34 2
Width: 355
Flags: W
HStem: 689 20G<52 145 212 305>
VStem: 52 93<598 709> 212 93<598 709>
Fore
52 709 m 5
 145 709 l 5
 145 598 l 5
 118 464 l 5
 79 464 l 5
 52 598 l 5
 52 709 l 5
212 709 m 5
 305 709 l 5
 305 598 l 5
 278 464 l 5
 239 464 l 5
 212 598 l 5
 212 709 l 5
EndSplineSet
EndChar
StartChar: numbersign
Encoding: 35 35 3
Width: 556
Flags: W
HStem: -20 21G<77 153 278 354> 191 68<14 128 192 329 393 510> 433 68<51 172 236 373 436 542> 677 20G<208 284 408 485>
Fore
485 697 m 1
 449 501 l 1
 542 501 l 1
 542 433 l 1
 436 433 l 1
 405 259 l 1
 510 259 l 1
 510 191 l 1
 393 191 l 1
 354 -20 l 1
 278 -20 l 1
 316 191 l 1
 192 191 l 1
 153 -20 l 1
 77 -20 l 1
 115 191 l 1
 14 191 l 1
 14 259 l 1
 128 259 l 1
 159 433 l 1
 51 433 l 1
 51 501 l 1
 172 501 l 1
 208 697 l 1
 284 697 l 1
 248 501 l 1
 373 501 l 1
 408 697 l 1
 485 697 l 1
360 433 m 1
 236 433 l 1
 204 259 l 1
 329 259 l 1
 360 433 l 1
EndSplineSet
EndChar
StartChar: dollar
Encoding: 36 36 4
Width: 556
Flags: W
VStem: 46 81<484.5 573> 243 59<-126 -23 46 318 397 646 716 770> 436 82<131.5 276>
Fore
518 195 m 0
 518 68 443 -13 302 -23 c 1
 302 -126 l 1
 243 -126 l 1
 243 -23 l 1
 108 -14 33 62 33 191 c 0
 33 196 33 202 33 208 c 1
 112 208 l 1
 118 140 122 62 243 46 c 1
 243 318 l 1
 170 340 143 351 117 370 c 0
 70 404 46 453 46 516 c 0
 46 630 115 700 243 716 c 1
 243 770 l 1
 302 770 l 1
 302 716 l 1
 423 707 496 633 496 519 c 1
 417 519 l 1
 416 592 369 643 302 646 c 1
 302 397 l 1
 362 379 518 357 518 195 c 0
243 405 m 1
 243 645 l 1
 169 635 127 592 127 526 c 0
 127 465 164 426 243 405 c 1
302 46 m 1
 395 57 436 114 436 183 c 0
 436 249 404 279 302 309 c 1
 302 46 l 1
EndSplineSet
EndChar
StartChar: percent
Encoding: 37 37 5
Width: 889
Flags: W
HStem: -19 70<642 735> 252 70<641.5 736> 343 70<153 246.5> 615 70<152.5 247> 689 20G<609 675>
VStem: 29 69<467 561> 301 69<466 560.5> 518 69<105 198.5> 790 69<104 198>
Fore
199 685 m 0
 295 685 370 609 370 512 c 0
 370 420 293 343 200 343 c 0
 106 343 29 420 29 514 c 0
 29 608 106 685 199 685 c 0
199 615 m 0
 144 615 98 570 98 514 c 0
 98 459 144 413 200 413 c 0
 255 413 301 458 301 513 c 0
 301 570 256 615 199 615 c 0
609 709 m 1
 675 709 l 1
 280 -20 l 1
 214 -20 l 1
 609 709 l 1
688 322 m 0
 784 322 859 246 859 150 c 0
 859 58 781 -19 689 -19 c 0
 595 -19 518 58 518 152 c 0
 518 245 595 322 688 322 c 0
688 252 m 0
 633 252 587 207 587 152 c 0
 587 96 633 51 689 51 c 0
 744 51 790 96 790 150 c 0
 790 207 745 252 688 252 c 0
EndSplineSet
EndChar
StartChar: ampersand
Encoding: 38 38 6
Width: 667
Flags: W
HStem: -23 78<195.5 314> 639 70<256.5 351.5>
VStem: 52 84<116 221.5> 133 82<528.5 596> 388 79<516 598> 493 80<304 334>
Fore
466 78 m 1xdc
 434 47 371 -23 257 -23 c 0
 134 -23 52 56 52 176 c 0xec
 52 267 90 317 214 389 c 1
 152 467 133 505 133 552 c 0
 133 640 209 709 304 709 c 0
 399 709 467 644 467 552 c 0
 467 480 433 437 329 378 c 1
 462 215 l 1
 481 249 493 294 493 330 c 0
 493 331 493 333 493 334 c 1
 573 334 l 1
 573 274 552 208 515 151 c 1
 637 0 l 1
 528 0 l 1
 466 78 l 1xdc
285 431 m 1
 363 480 388 509 388 554 c 0
 388 603 351 639 301 639 c 0
 249 639 215 605 215 553 c 0xdc
 215 518 224 501 285 431 c 1
418 137 m 1
 258 337 l 1
 167 279 136 239 136 183 c 0xec
 136 113 195 55 267 55 c 0
 319 55 362 78 418 137 c 1
EndSplineSet
EndChar
StartChar: quotesingle
Encoding: 39 39 7
Width: 191
Flags: W
HStem: 689 20G<48 142>
VStem: 48 94<598 709>
Fore
48 709 m 5
 142 709 l 5
 142 598 l 5
 115 464 l 5
 75 464 l 5
 48 598 l 5
 48 709 l 5
EndSplineSet
EndChar
StartChar: parenleft
Encoding: 40 40 8
Width: 333
Flags: W
HStem: 709 20G<236 291>
VStem: 73 81<179 338.5>
Fore
236 729 m 1
 291 729 l 1
 203 587 154 418 154 259 c 0
 154 99 203 -69 291 -212 c 1
 236 -212 l 1
 136 -81 73 101 73 259 c 0
 73 416 136 598 236 729 c 1
EndSplineSet
EndChar
StartChar: parenright
Encoding: 41 41 9
Width: 333
Flags: W
HStem: 709 20G<38 93>
VStem: 175 81<178.5 338>
Fore
93 -212 m 1
 38 -212 l 1
 126 -70 175 99 175 258 c 0
 175 418 126 586 38 729 c 1
 93 729 l 1
 193 598 256 416 256 258 c 0
 256 101 193 -81 93 -212 c 1
EndSplineSet
EndChar
StartChar: asterisk
Encoding: 42 42 10
Width: 389
Flags: W
HStem: 709 20G<160 223>
Fore
160 729 m 1
 223 729 l 1
 218 617 l 1
 324 655 l 1
 343 596 l 1
 235 566 l 1
 305 477 l 1
 254 441 l 1
 192 534 l 1
 129 441 l 1
 79 477 l 1
 148 566 l 1
 40 596 l 1
 59 655 l 1
 165 617 l 1
 160 729 l 1
EndSplineSet
EndChar
StartChar: plus
Encoding: 43 43 11
Width: 584
Flags: W
HStem: -10 21G<257 327> 197 70<50 257 327 534>
VStem: 257 70<-10 197 267 474>
Fore
534 267 m 1
 534 197 l 1
 327 197 l 1
 327 -10 l 1
 257 -10 l 1
 257 197 l 1
 50 197 l 1
 50 267 l 1
 257 267 l 1
 257 474 l 1
 327 474 l 1
 327 267 l 1
 534 267 l 1
EndSplineSet
EndChar
StartChar: comma
Encoding: 44 44 12
Width: 278
Flags: W
HStem: -20 20G<87 147>
VStem: 147 45<-59 0>
Fore
87 104 m 1
 192 104 l 1
 192 -16 l 2
 192 -102 157 -147 87 -147 c 1
 87 -109 l 1
 134 -107 147 -87 147 -18 c 2
 147 0 l 1
 87 0 l 1
 87 104 l 1
EndSplineSet
KernsSLIFO: 1948 -50 3 0 1952 -41 3 0 2170 -100 3 0
EndChar
StartChar: hyphen
Encoding: 45 45 13
Width: 333
Flags: W
HStem: 240 72<46 284>
Fore
284 312 m 5
 284 240 l 5
 46 240 l 5
 46 312 l 5
 284 312 l 5
EndSplineSet
KernsSLIFO: 57 -92 3 0 55 -19 3 0 54 -46 3 0 52 -80 3 0 132 -7 3 0 131 -7 3 0 128 -7 3 0 133 -11 3 0 33 -7 3 0
EndChar
StartChar: period
Encoding: 46 46 14
Width: 278
Flags: W
HStem: 0 21G<87 191>
Fore
191 104 m 5
 191 0 l 5
 87 0 l 5
 87 104 l 5
 191 104 l 5
EndSplineSet
KernsSLIFO: 1948 -51 3 0 1952 -41 3 0 2170 -101 3 0
EndChar
StartChar: slash
Encoding: 47 47 15
Width: 278
Flags: W
HStem: -20 21G<-8 47> 709 20G<229 284>
Fore
229 729 m 1
 284 729 l 1
 47 -20 l 1
 -8 -20 l 1
 229 729 l 1
EndSplineSet
EndChar
StartChar: zero
Encoding: 48 48 16
Width: 556
Flags: W
HStem: -23 73<199 350> 631 78<225.5 363>
VStem: 43 90<223.5 498.5> 417 90<220.5 440>
Fore
43 343 m 0
 43 654 176 709 275 709 c 0
 451 709 507 543 507 337 c 0
 507 104 425 -23 275 -23 c 0
 123 -23 43 104 43 343 c 0
275 631 m 0
 180 631 133 536 133 342 c 0
 133 148 180 50 273 50 c 0
 371 50 417 144 417 345 c 0
 417 535 370 631 275 631 c 0
EndSplineSet
EndChar
StartChar: one
Encoding: 49 49 17
Width: 556
Flags: W
HStem: 0 21G<259 347> 689 20G<289 347>
VStem: 259 88<0 709>
Fore
259 505 m 1
 102 505 l 1
 102 568 l 1
 238 585 258 600 289 709 c 1
 347 709 l 1
 347 0 l 1
 259 0 l 1
 259 505 l 1
EndSplineSet
EndChar
StartChar: two
Encoding: 50 50 18
Width: 556
Flags: W
HStem: 0 87<34 506> 632 77<220 351>
VStem: 421 90<457.5 562.5>
Fore
50 463 m 1
 56 677 187 709 284 709 c 0
 418 709 511 624 511 501 c 0
 511 414 460 341 361 287 c 2
 261 233 l 1
 174 182 142 145 133 87 c 1
 506 87 l 1
 506 0 l 1
 34 0 l 1
 42 156 85 223 233 307 c 2
 325 359 l 2
 388 395 421 443 421 499 c 0
 421 575 361 632 281 632 c 0
 159 632 142 529 138 463 c 1
 50 463 l 1
EndSplineSet
EndChar
StartChar: three
Encoding: 51 51 19
Width: 556
Flags: W
HStem: -23 78<192 339> 325 75<221 232> 632 77<197.5 336.5>
VStem: 395 90<465 575> 416 90<131 243>
Fore
270 632 m 0xf0
 158 632 137 557 135 480 c 1
 47 480 l 1
 50 631 126 709 269 709 c 0
 404 709 485 636 485 514 c 0xf0
 485 443 452 393 386 367 c 1
 471 338 506 288 506 198 c 0
 506 64 412 -23 266 -23 c 0
 118 -23 43 52 32 206 c 1
 120 206 l 1
 126 103 173 55 269 55 c 0
 361 55 416 108 416 197 c 0xe8
 416 282 366 326 269 326 c 2
 232 325 l 1
 221 325 l 1
 221 400 l 1
 338 402 395 419 395 511 c 0
 395 586 348 632 270 632 c 0xf0
EndSplineSet
EndChar
StartChar: four
Encoding: 52 52 20
Width: 556
Flags: W
HStem: 0 21G<327 415> 170 79<28 327 415 520> 689 20G<350 415>
VStem: 327 88<0 170 249 709>
Fore
327 170 m 1
 28 170 l 5
 28 263 l 1
 350 709 l 1
 415 709 l 1
 415 249 l 1
 520 249 l 1
 520 170 l 1
 415 170 l 1
 415 0 l 1
 327 0 l 1
 327 170 l 1
327 249 m 1
 327 559 l 1
 105 249 l 1
 327 249 l 1
EndSplineSet
EndChar
StartChar: five
Encoding: 53 53 21
Width: 556
Flags: W
HStem: -23 78<170 341.5> 389 78<240.5 352> 622 87<110 476>
VStem: 423 90<156 301>
Fore
476 709 m 1
 476 622 l 1
 181 622 l 1
 153 424 l 1
 194 454 234 467 284 467 c 0
 420 467 513 371 513 231 c 0
 513 81 413 -23 270 -23 c 0
 70 -23 44 128 35 174 c 1
 123 174 l 1
 144 94 191 55 268 55 c 0
 364 55 423 117 423 219 c 0
 423 324 363 389 268 389 c 0
 213 389 179 372 138 323 c 1
 57 323 l 1
 110 709 l 1
 476 709 l 1
EndSplineSet
EndChar
StartChar: six
Encoding: 54 54 22
Width: 556
Flags: W
HStem: -23 78<192.5 348.5> 363 78<241.5 359.5> 524 21G<410 498> 631 78<240.5 351>
VStem: 43 95<168.5 487> 423 90<146.5 282>
Fore
43 323 m 0
 43 651 193 709 297 709 c 0
 405 709 481 640 498 524 c 1
 410 524 l 1
 396 592 353 631 291 631 c 0
 190 631 134 535 133 362 c 1
 171 414 226 441 296 441 c 0
 423 441 513 348 513 216 c 0
 513 77 416 -23 281 -23 c 0
 104 -23 43 123 43 323 c 0
285 363 m 0
 198 363 138 302 138 214 c 0
 138 123 200 55 282 55 c 0
 363 55 423 120 423 209 c 0
 423 304 370 363 285 363 c 0
EndSplineSet
EndChar
StartChar: seven
Encoding: 55 55 23
Width: 556
Flags: W
HStem: 0 21G<138 232> 622 87<46 520>
Fore
520 709 m 1
 520 635 l 1
 360 422 271 227 232 0 c 1
 138 0 l 1
 191 233 260 381 429 622 c 1
 46 622 l 1
 46 709 l 1
 520 709 l 1
EndSplineSet
EndChar
StartChar: eight
Encoding: 56 56 24
Width: 556
Flags: W
HStem: -23 78<205 345> 334 74<231 319> 631 78<212.5 338>
VStem: 37 90<132 236.5> 62 90<485.5 575.5> 398 90<485 575.5> 423 90<131.5 236.5>
Fore
391 373 m 1xec
 473 334 513 275 513 196 c 0
 513 67 415 -23 275 -23 c 0
 135 -23 37 67 37 197 c 0xf2
 37 275 77 334 158 373 c 1
 86 418 62 454 62 520 c 0
 62 631 150 709 275 709 c 0
 401 709 488 631 488 520 c 0
 488 453 464 417 391 373 c 1xec
275 631 m 0
 201 631 152 587 152 519 c 0
 152 452 201 408 275 408 c 0
 349 408 398 452 398 518 c 0xec
 398 587 350 631 275 631 c 0
275 334 m 0
 187 334 127 278 127 195 c 0
 127 112 187 55 273 55 c 0
 363 55 423 111 423 195 c 0xf2
 423 278 363 334 275 334 c 0
EndSplineSet
EndChar
StartChar: nine
Encoding: 57 57 25
Width: 556
Flags: W
HStem: -23 78<200 310.5> 245 78<192 309> 632 77<202.5 358>
VStem: 38 90<404 539.5> 413 96<199 518>
Fore
509 363 m 0
 509 35 358 -23 254 -23 c 0
 146 -23 70 46 53 162 c 1
 141 162 l 1
 155 94 198 55 260 55 c 0
 361 55 417 151 418 324 c 1
 372 269 323 245 256 245 c 0
 128 245 38 338 38 470 c 0
 38 609 135 709 270 709 c 0
 446 709 509 565 509 363 c 0
269 632 m 0
 188 632 128 567 128 477 c 0
 128 382 181 323 266 323 c 0
 352 323 413 385 413 472 c 0
 413 564 351 632 269 632 c 0
EndSplineSet
EndChar
StartChar: colon
Encoding: 58 58 26
Width: 278
Flags: W
HStem: 0 21G<110 214> 504 20G<110 214>
Fore
214 104 m 1
 214 0 l 1
 110 0 l 1
 110 104 l 1
 214 104 l 1
214 524 m 1
 214 420 l 1
 110 420 l 1
 110 524 l 1
 214 524 l 1
EndSplineSet
EndChar
StartChar: semicolon
Encoding: 59 59 27
Width: 278
Flags: W
HStem: -20 20G<110 170> 504 20G<111 215>
VStem: 170 45<-59 0>
Fore
215 524 m 1
 215 420 l 1
 111 420 l 1
 111 524 l 1
 215 524 l 1
110 104 m 1
 215 104 l 1
 215 -16 l 2
 215 -102 180 -147 110 -147 c 1
 110 -109 l 1
 157 -107 170 -87 170 -18 c 2
 170 0 l 1
 110 0 l 1
 110 104 l 1
EndSplineSet
EndChar
StartChar: less
Encoding: 60 60 28
Width: 584
Flags: W
Fore
45 198 m 1
 45 267 l 1
 534 474 l 1
 534 395 l 1
 140 234 l 1
 534 70 l 1
 534 -9 l 1
 45 198 l 1
EndSplineSet
EndChar
StartChar: equal
Encoding: 61 61 29
Width: 584
Flags: W
HStem: 111 70<50 534> 283 70<50 534>
Fore
534 353 m 1
 534 283 l 1
 50 283 l 1
 50 353 l 1
 534 353 l 1
534 181 m 1
 534 111 l 1
 50 111 l 1
 50 181 l 1
 534 181 l 1
EndSplineSet
EndChar
StartChar: greater
Encoding: 62 62 30
Width: 584
Flags: W
Fore
539 267 m 1
 539 198 l 1
 50 -9 l 1
 50 70 l 1
 444 231 l 1
 50 395 l 1
 50 474 l 1
 539 267 l 1
EndSplineSet
EndChar
StartChar: question
Encoding: 63 63 31
Width: 556
Flags: W
HStem: 0 21G<240 330> 663 78<224 361>
VStem: 240 90<0 104 199 322> 419 90<466.5 607.5>
Fore
509 549 m 0
 509 384 330 365 330 246 c 2
 330 199 l 1
 240 199 l 1
 240 254 l 2
 240 390 419 423 419 549 c 0
 419 617 368 663 291 663 c 0
 187 663 162 596 162 507 c 1
 77 507 l 1
 77 661 152 741 296 741 c 0
 426 741 509 666 509 549 c 0
330 104 m 1
 330 0 l 1
 240 0 l 1
 240 104 l 1
 330 104 l 1
EndSplineSet
EndChar
StartChar: at
Encoding: 64 64 32
Width: 1015
Flags: W
HStem: -142 77<362.5 526> 57 70<647.5 738.5> 458 64<454 548.5> 664 77<406.5 641.5>
VStem: 34 85<147 378> 264 90<193 317.5> 609 37<159 393.5> 864 87<298.5 470.5>
Fore
665 501 m 1
 748 501 l 1
 658 221 l 1
 650 198 646 180 646 171 c 0
 646 147 669 127 696 127 c 0
 781 127 864 240 864 357 c 0
 864 524 703 664 512 664 c 0
 301 664 119 483 119 273 c 0
 119 82 282 -65 494 -65 c 0
 548 -65 605 -56 687 -33 c 1
 715 -100 l 1
 643 -127 563 -142 489 -142 c 0
 236 -142 34 36 34 258 c 0
 34 389 94 523 192 612 c 0
 280 692 406 741 525 741 c 0
 758 741 951 572 951 369 c 0
 951 291 920 210 865 146 c 0
 814 86 753 57 679 57 c 0
 616 57 578 83 569 134 c 1
 523 84 480 62 427 62 c 0
 334 62 264 141 264 245 c 0
 264 390 387 522 521 522 c 0
 576 522 618 492 643 435 c 1
 665 501 l 1
453 126 m 0
 548 126 609 281 609 368 c 0
 609 419 569 458 515 458 c 0
 431 458 354 356 354 244 c 0
 354 178 398 126 453 126 c 0
EndSplineSet
EndChar
StartChar: A
Encoding: 65 65 33
Width: 667
Flags: W
HStem: 0 21G<17 116 549 653> 219 78<193 474> 709 20G<277 397>
AnchorPoint: "above" 335 729 basechar 0
Fore
474 219 m 1
 193 219 l 1
 116 0 l 1
 17 0 l 1
 277 729 l 1
 397 729 l 1
 653 0 l 1
 549 0 l 1
 474 219 l 1
448 297 m 1
 336 629 l 1
 216 297 l 1
 448 297 l 1
EndSplineSet
KernsSLIFO: 203 -36 0 0 204 -11 0 0 89 -34 0 0 87 -21 0 0 86 -31 0 0 85 -12 0 0 84 -16 0 0 1948 -65 0 0 1952 -56 0 0 81 -8 0 0 14 5 0 0 79 -13 0 0 13 -3 0 0 1968 -40 0 0 106 -44 0 0 71 -10 0 0 69 -16 0 0 68 -8 0 0 12 5 0 0 166 -10 0 0 67 -11 0 0 66 4 0 0 65 -4 0 0 57 -99 0 0 55 -51 0 0 54 -75 0 0 152 -37 0 0 155 -37 0 0 154 -37 0 0 153 -37 0 0 53 -37 0 0 52 -93 0 0 49 -32 0 0 149 -33 0 0 47 -33 0 0 39 -35 0 0 134 -36 0 0 35 -36 0 0
EndChar
StartChar: B
Encoding: 66 66 34
Width: 667
Flags: W
HStem: 0 82<79 472.5> 333 82<172 399> 647 82<79 461.5>
VStem: 79 93<0 729> 498 93<487.5 581> 530 93<145.5 252>
AnchorPoint: "above" 307 729 basechar 0
AnchorPoint: "below" 314 0 basechar 0
Fore
623 208 m 0xf4
 623 83 537 0 408 0 c 2
 79 0 l 1
 79 729 l 1
 375 729 l 2
 548 729 591 618 591 544 c 0xf8
 591 470 556 416 490 385 c 1
 583 349 623 296 623 208 c 0xf4
498 531 m 0
 498 625 430 647 352 647 c 2
 172 647 l 1
 172 415 l 1
 352 415 l 2
 440 415 498 444 498 531 c 0
399 82 m 2
 504 82 530 156 530 207 c 0xf4
 530 281 485 333 399 333 c 2
 172 333 l 1
 172 82 l 1
 399 82 l 2
EndSplineSet
KernsSLIFO: 57 -44 0 0 55 -25 0 0 54 -41 0 0 151 -1 0 0 145 -7 0 0 149 -7 0 0 147 -7 0 0 146 -7 0 0 273 -5 0 0 47 -7 0 0 130 -21 0 0 132 -21 0 0 131 -21 0 0 129 -21 0 0 128 -21 0 0 133 -21 0 0 33 -21 0 0
EndChar
StartChar: C
Encoding: 67 67 35
Width: 722
Flags: W
HStem: -23 82<245.5 466> 659 82<248 461>
VStem: 48 93<266 450.5>
AnchorPoint: "above" 381 729 basechar 0
Fore
48 356 m 0
 48 508 115 741 381 741 c 0
 541 741 633 663 662 503 c 1
 567 503 l 1
 546 605 488 659 370 659 c 0
 229 659 141 544 141 357 c 0
 141 175 233 59 378 59 c 0
 500 59 559 128 581 266 c 1
 677 266 l 1
 655 73 555 -23 377 -23 c 0
 114 -23 48 207 48 356 c 0
EndSplineSet
KernsSLIFO: 149 -8 0 0 146 -8 0 0 47 -8 0 0 43 -10 0 0 40 -12 0 0 132 -32 0 0 131 -32 0 0 128 -32 0 0 133 -33 0 0 33 -32 0 0
EndChar
StartChar: D
Encoding: 68 68 36
Width: 722
Flags: W
HStem: 0 82<89 462> 647 82<89 462.5>
VStem: 89 93<0 729> 574 93<251.5 478>
AnchorPoint: "above" 347 729 basechar 0
AnchorPoint: "below" 354 0 basechar 0
Fore
89 0 m 1
 89 729 l 1
 370 729 l 2
 555 729 667 591 667 365 c 0
 667 138 554 0 370 0 c 2
 89 0 l 1
182 82 m 1
 354 82 l 2
 498 82 574 180 574 364 c 0
 574 550 498 647 354 647 c 2
 182 647 l 1
 182 82 l 1
EndSplineSet
KernsSLIFO: 57 -63 0 0 56 -53 0 0 55 -29 0 0 54 -51 0 0 52 -45 0 0 42 -5 0 0 130 -42 0 0 132 -42 0 0 127 -42 0 0 131 -42 0 0 129 -42 0 0 128 -42 0 0 33 -42 0 0
EndChar
StartChar: E
Encoding: 69 69 37
Width: 667
Flags: W
HStem: 0 82<90 613> 332 82<183 580> 647 82<90 595>
VStem: 90 93<0 729>
AnchorPoint: "below" 344 0 basechar 0
AnchorPoint: "above" 344 729 basechar 0
Fore
183 332 m 1
 183 82 l 1
 613 82 l 1
 613 0 l 1
 90 0 l 1
 90 729 l 1
 595 729 l 1
 595 647 l 1
 183 647 l 1
 183 414 l 1
 580 414 l 1
 580 332 l 1
 183 332 l 1
EndSplineSet
EndChar
StartChar: F
Encoding: 70 70 38
Width: 611
Flags: W
HStem: 0 21G<90 183> 332 82<183 531> 647 82<90 579>
VStem: 90 93<0 729>
AnchorPoint: "above" 344 729 basechar 0
AnchorPoint: "below" 344 0 basechar 0
Fore
183 332 m 1
 183 0 l 1
 90 0 l 1
 90 729 l 1
 579 729 l 1
 579 647 l 1
 183 647 l 1
 183 414 l 1
 531 414 l 1
 531 332 l 1
 183 332 l 1
EndSplineSet
KernsSLIFO: 85 -33 0 0 82 -35 0 0 14 -108 0 0 183 -21 0 0 274 -23 0 0 181 -21 0 0 178 -21 0 0 79 -21 0 0 74 -12 0 0 73 -10 0 0 13 -14 0 0 168 -24 0 0 69 -24 0 0 12 -108 0 0 164 -33 0 0 165 -29 0 0 163 -33 0 0 160 -33 0 0 65 -33 0 0 149 -22 0 0 47 -22 0 0 42 -51 0 0 130 -69 0 0 132 -69 0 0 127 -69 0 0 131 -69 0 0 129 -69 0 0 128 -69 0 0 33 -69 0 0
EndChar
StartChar: G
Encoding: 71 71 39
Width: 778
Flags: W
HStem: -23 82<279.5 464.5> 303 82<405 709> 659 82<254 477.5>
VStem: 44 93<245 451.5> 627 82<218 303 385 385>
AnchorPoint: "below" 403 0 basechar 0
AnchorPoint: "above" 403 729 basechar 0
Fore
137 362 m 0
 137 245 189 59 398 59 c 0
 531 59 627 153 627 283 c 2
 627 303 l 1
 405 303 l 1
 405 385 l 1
 709 385 l 1
 709 -4 l 1
 650 -4 l 1
 627 93 l 1
 556 14 477 -23 378 -23 c 0
 181 -23 44 133 44 357 c 0
 44 503 114 741 394 741 c 0
 561 741 673 656 699 508 c 1
 604 508 l 1
 584 602 504 659 393 659 c 0
 239 659 137 541 137 362 c 0
EndSplineSet
KernsSLIFO: 57 -62 0 0 55 -28 0 0 54 -50 0 0 52 -44 0 0 130 -6 0 0 132 -6 0 0 127 -6 0 0 131 -6 0 0 129 -6 0 0 128 -6 0 0 133 -3 0 0 33 -6 0 0
EndChar
StartChar: H
Encoding: 72 72 40
Width: 722
Flags: W
HStem: 0 21G<83 176 551 644> 332 82<176 551> 709 20G<83 176 551 644>
VStem: 83 93<0 729> 551 93<0 729>
AnchorPoint: "below" 363 0 basechar 0
AnchorPoint: "above" 363 729 basechar 0
Fore
551 332 m 1
 176 332 l 1
 176 0 l 1
 83 0 l 1
 83 729 l 1
 176 729 l 1
 176 414 l 1
 551 414 l 1
 551 729 l 1
 644 729 l 1
 644 0 l 1
 551 0 l 1
 551 332 l 1
EndSplineSet
EndChar
StartChar: I
Encoding: 73 73 41
Width: 278
Flags: W
HStem: 0 21G<100 194> 709 20G<100 194>
VStem: 100 94<0 729>
AnchorPoint: "below" 142 0 basechar 0
AnchorPoint: "above" 142 729 basechar 0
Fore
194 729 m 1
 194 0 l 1
 100 0 l 1
 100 729 l 1
 194 729 l 1
EndSplineSet
EndChar
StartChar: J
Encoding: 74 74 42
Width: 500
Flags: W
HStem: -23 78<157.5 283.5> 709 20G<333 426>
VStem: 17 95<111 234> 333 93<119 729>
AnchorPoint: "below" 220 0 basechar 0
AnchorPoint: "above" 379 729 basechar 0
Fore
221 55 m 0
 312 55 333 124 333 216 c 2
 333 729 l 1
 426 729 l 1
 426 182 l 2
 426 56 347 -23 220 -23 c 0
 95 -23 17 52 17 170 c 2
 17 234 l 1
 112 234 l 1
 112 187 l 2
 112 102 151 55 221 55 c 0
EndSplineSet
KernsSLIFO: 132 -32 0 0 131 -32 0 0 133 -31 0 0 33 -32 0 0
EndChar
StartChar: K
Encoding: 75 75 43
Width: 667
Flags: W
HStem: 0 21G<79 172 548 658> 709 20G<79 172 535 655>
VStem: 79 93<0 729>
AnchorPoint: "above" 344 729 basechar 0
AnchorPoint: "below" 344 0 basechar 0
Fore
172 255 m 1
 172 0 l 1
 79 0 l 1
 79 729 l 1
 172 729 l 1
 172 360 l 1
 535 729 l 1
 655 729 l 1
 358 432 l 1
 658 0 l 1
 548 0 l 1
 291 374 l 1
 172 255 l 1
EndSplineSet
KernsSLIFO: 89 -62 0 0 187 -19 0 0 85 -19 0 0 181 -29 0 0 178 -29 0 0 79 -29 0 0 13 -47 0 0 69 -32 0 0 164 -11 0 0 165 -7 0 0 163 -11 0 0 65 -11 0 0 52 20 0 0 51 -38 0 0 149 -48 0 0 146 -48 0 0 273 -45 0 0 47 -48 0 0 39 -51 0 0 35 -51 0 0
EndChar
StartChar: L
Encoding: 76 76 44
Width: 556
Flags: W
HStem: 0 82<80 533> 709 20G<80 173>
VStem: 80 93<0 729>
AnchorPoint: "below" 302 0 basechar 0
AnchorPoint: "above" 140 737 basechar 0
Fore
173 729 m 1
 173 82 l 1
 533 82 l 1
 533 0 l 1
 80 0 l 1
 80 729 l 1
 173 729 l 1
EndSplineSet
KernsSLIFO: 287 -19 0 0 203 -41 0 0 89 -56 0 0 187 -7 0 0 85 -7 0 0 1948 -149 0 0 1952 -141 0 0 13 -125 0 0 57 -121 0 0 55 -68 0 0 54 -105 0 0 155 -35 0 0 53 -35 0 0 52 -105 0 0 51 -19 0 0 148 -41 0 0 145 -41 0 0 149 -41 0 0 147 -41 0 0 146 -41 0 0 47 -41 0 0 39 -42 0 0 134 -37 0 0 35 -41 0 0 132 17 0 0 131 17 0 0 128 17 0 0 133 20 0 0 33 17 0 0
EndChar
StartChar: M
Encoding: 77 77 45
Width: 833
Flags: W
HStem: 0 21G<75 163 370 468 673 761> 709 20G<75 204 632 761>
VStem: 75 88<0 729> 673 88<0 729>
AnchorPoint: "below" 420 -2 basechar 0
AnchorPoint: "above" 420 727 basechar 0
Fore
468 0 m 1
 370 0 l 1
 163 611 l 1
 163 0 l 1
 75 0 l 1
 75 729 l 1
 204 729 l 1
 420 94 l 1
 632 729 l 1
 761 729 l 1
 761 0 l 5
 673 0 l 1
 673 611 l 1
 468 0 l 1
EndSplineSet
EndChar
StartChar: N
Encoding: 78 78 46
Width: 722
Flags: W
HStem: 0 21G<76 164 541 646> 709 20G<76 177 558 646>
VStem: 76 88<0 729> 558 88<0 729>
AnchorPoint: "below" 343 0 basechar 0
AnchorPoint: "above" 368 737 basechar 0
Fore
646 729 m 1
 646 0 l 1
 541 0 l 1
 164 591 l 1
 164 0 l 1
 76 0 l 1
 76 729 l 1
 177 729 l 1
 558 133 l 1
 558 729 l 1
 646 729 l 1
EndSplineSet
KernsSLIFO: 203 -3 0 0 14 -7 0 0 183 4 0 0 181 2 0 0 178 2 0 0 79 2 0 0 12 -7 0 0 164 -5 0 0 165 -2 0 0 163 -5 0 0 160 -5 0 0 65 -5 0 0 39 -2 0 0 134 -3 0 0 35 -3 0 0 132 -9 0 0 131 -9 0 0 128 -9 0 0 133 -6 0 0 33 -9 0 0
EndChar
StartChar: O
Encoding: 79 79 47
Width: 778
Flags: W
HStem: -23 82<285 499> 659 82<284.5 496>
VStem: 38 93<245 473> 649 93<248 470.5>
AnchorPoint: "below" 390 0 basechar 0
AnchorPoint: "above" 390 729 basechar 0
Fore
742 353 m 0
 742 143 608 -23 390 -23 c 0
 180 -23 38 131 38 359 c 0
 38 587 180 741 389 741 c 0
 603 741 742 588 742 353 c 0
389 659 m 0
 235 659 131 539 131 359 c 0
 131 179 235 59 390 59 c 0
 544 59 649 179 649 355 c 0
 649 539 547 659 389 659 c 0
EndSplineSet
KernsSLIFO: 57 -59 0 0 56 -46 0 0 55 -23 0 0 54 -45 0 0 52 -42 0 0 132 -35 0 0 131 -35 0 0 128 -35 0 0 133 -39 0 0 33 -35 0 0
EndChar
StartChar: P
Encoding: 80 80 48
Width: 667
Flags: W
HStem: 0 21G<91 184> 309 82<184 473> 647 82<91 464>
VStem: 91 93<0 729> 520 97<452.5 583.5>
AnchorPoint: "below" 314 0 basechar 0
AnchorPoint: "above" 307 729 basechar 0
Fore
617 515 m 0
 617 390 533 309 413 309 c 2
 184 309 l 1
 184 0 l 1
 91 0 l 1
 91 729 l 1
 392 729 l 2
 536 729 617 652 617 515 c 0
184 391 m 1
 378 391 l 2
 467 391 520 439 520 519 c 0
 520 599 467 647 378 647 c 2
 184 647 l 1
 184 391 l 1
EndSplineSet
KernsSLIFO: 14 -135 0 0 183 -27 0 0 274 -28 0 0 181 -27 0 0 178 -27 0 0 79 -27 0 0 13 -40 0 0 168 -31 0 0 69 -31 0 0 12 -135 0 0 164 -28 0 0 165 -24 0 0 163 -28 0 0 160 -28 0 0 65 -28 0 0 42 -78 0 0 132 -78 0 0 131 -78 0 0 128 -78 0 0 133 -86 0 0 33 -78 0 0
EndChar
StartChar: Q
Encoding: 81 81 49
Width: 778
Flags: W
HStem: -23 82<285 426> 659 82<285 495>
VStem: 38 93<245 473> 649 93<303.5 474>
AnchorPoint: "above" 390 729 basechar 0
AnchorPoint: "below" 390 0 basechar 0
Fore
733 -1 m 1
 686 -59 l 1
 581 28 l 1
 522 -7 462 -23 390 -23 c 0
 180 -23 38 131 38 359 c 0
 38 587 180 741 390 741 c 0
 600 741 742 587 742 361 c 0
 742 246 708 152 639 76 c 1
 733 -1 l 1
481 205 m 1
 570 132 l 1
 624 193 649 266 649 360 c 0
 649 539 545 659 390 659 c 0
 235 659 131 539 131 359 c 0
 131 179 234 59 389 59 c 0
 433 59 466 67 509 87 c 1
 435 149 l 1
 481 205 l 1
EndSplineSet
EndChar
StartChar: R
Encoding: 82 82 50
Width: 722
Flags: W
HStem: 0 21G<93 186 566 679> 314 82<186 467.5> 647 82<93 500.5>
VStem: 93 93<0 729> 554 97<478 597>
AnchorPoint: "below" 364 0 basechar 0
AnchorPoint: "above" 357 729 basechar 0
Fore
536 360 m 1
 717 282 574 95 679 23 c 1
 679 0 l 1
 566 0 l 1
 553 30 544 74 545 119 c 0
 546 184 l 1
 546 274 509 314 426 314 c 2
 186 314 l 1
 186 0 l 1
 93 0 l 1
 93 729 l 1
 429 729 l 2
 572 729 651 660 651 534 c 0
 651 451 618 400 536 360 c 1
554 521 m 0
 554 625 489 647 411 647 c 2
 186 647 l 1
 186 396 l 1
 411 396 l 2
 510 396 554 435 554 521 c 0
EndSplineSet
KernsSLIFO: 89 -8 0 0 187 -9 0 0 185 -9 0 0 85 -9 0 0 274 -11 0 0 181 -9 0 0 178 -9 0 0 79 -9 0 0 13 -2 0 0 168 -12 0 0 69 -12 0 0 164 -15 0 0 165 -12 0 0 163 -15 0 0 160 -15 0 0 65 -15 0 0 57 -43 0 0 55 -27 0 0 54 -39 0 0 155 -17 0 0 53 -17 0 0 52 -23 0 0 149 -13 0 0 146 -13 0 0 273 -11 0 0 47 -13 0 0 39 -15 0 0 134 -16 0 0 35 -16 0 0
EndChar
StartChar: S
Encoding: 83 83 51
Width: 667
Flags: W
HStem: -23 82<259.5 450> 663 78<249 413>
VStem: 48 88<190 232> 70 93<482.5 593> 528 93<155.5 245>
AnchorPoint: "below" 336 0 basechar 0
AnchorPoint: "above" 335 729 basechar 0
Fore
342 59 m 0xe8
 500 59 528 139 528 191 c 0
 528 248 486 285 394 309 c 2
 213 357 l 2
 117 382 70 438 70 527 c 0
 70 659 169 741 329 741 c 0
 497 741 595 658 596 515 c 1
 508 515 l 1
 507 610 442 663 326 663 c 0
 228 663 163 614 163 540 c 0xd8
 163 484 195 456 283 432 c 2
 466 383 l 2
 565 356 621 290 621 200 c 0
 621 111 564 -23 336 -23 c 0
 210 -23 51 25 48 232 c 1
 136 232 l 1
 136 230 136 229 136 227 c 0
 136 153 177 59 342 59 c 0xe8
EndSplineSet
KernsSLIFO: 84 -3 0 0 57 -48 0 0 55 -28 0 0 54 -42 0 0 52 -28 0 0 132 -22 0 0 131 -22 0 0 128 -22 0 0 133 -22 0 0 33 -22 0 0
EndChar
StartChar: T
Encoding: 84 84 52
Width: 611
Flags: W
HStem: 0 21G<261 354> 647 82<21 593>
VStem: 261 93<0 647>
AnchorPoint: "below" 305 0 basechar 0
AnchorPoint: "above" 308 729 basechar 0
Fore
354 647 m 1
 354 0 l 1
 261 0 l 1
 261 647 l 1
 21 647 l 1
 21 729 l 1
 593 729 l 1
 593 647 l 1
 354 647 l 1
EndSplineSet
KernsSLIFO: 288 -60 0 0 287 -24 0 0 89 -100 0 0 87 -93 0 0 86 -95 0 0 85 -91 0 0 27 -129 0 0 83 -92 0 0 82 -92 0 0 14 -100 0 0 183 -87 0 0 79 -92 0 0 74 -5 0 0 73 -3 0 0 13 -77 0 0 1968 -117 0 0 106 -121 0 0 71 -89 0 0 69 -95 0 0 12 -100 0 0 26 -133 0 0 67 -90 0 0 165 -97 0 0 65 -100 0 0 57 20 0 0 55 16 0 0 54 12 0 0 51 -24 0 0 148 -42 0 0 151 -41 0 0 145 -42 0 0 149 -42 0 0 147 -42 0 0 146 -42 0 0 273 -35 0 0 47 -42 0 0 42 -100 0 0 39 -45 0 0 35 -44 0 0 130 -95 0 0 132 -95 0 0 127 -95 0 0 131 -95 0 0 129 -95 0 0 128 -95 0 0 133 -97 0 0 33 -95 0 0
EndChar
StartChar: U
Encoding: 85 85 53
Width: 722
Flags: W
HStem: -23 82<277.5 449.5> 709 20G<85 178 552 645>
VStem: 85 93<143 729> 552 93<144 729>
AnchorPoint: "below" 365 0 basechar 0
AnchorPoint: "above" 365 729 basechar 0
Fore
552 729 m 1
 645 729 l 1
 645 217 l 2
 645 71 535 -23 364 -23 c 0
 191 -23 85 69 85 217 c 2
 85 729 l 1
 178 729 l 1
 178 217 l 2
 178 107 257 59 364 59 c 0
 481 59 552 119 552 217 c 2
 552 729 l 1
EndSplineSet
KernsSLIFO: 82 -4 0 0 14 -25 0 0 80 3 0 0 78 -4 0 0 77 -4 0 0 12 -27 0 0 130 -36 0 0 132 -36 0 0 131 -36 0 0 129 -36 0 0 128 -36 0 0 133 -39 0 0 33 -36 0 0
EndChar
StartChar: V
Encoding: 86 86 54
Width: 667
Flags: W
HStem: 0 21G<292 392> 709 20G<30 130 546 645>
AnchorPoint: "above" 344 729 basechar 0
AnchorPoint: "below" 344 0 basechar 0
Fore
392 0 m 1
 292 0 l 1
 30 729 l 1
 130 729 l 1
 344 112 l 1
 546 729 l 1
 645 729 l 1
 392 0 l 1
EndSplineSet
KernsSLIFO: 287 -35 0 0 204 -43 0 0 89 -20 0 0 85 -41 0 0 27 -66 0 0 82 -42 0 0 14 -89 0 0 183 -50 0 0 79 -54 0 0 73 -5 0 0 13 -38 0 0 1968 -80 0 0 106 -83 0 0 71 -50 0 0 69 -57 0 0 12 -89 0 0 26 -66 0 0 165 -55 0 0 65 -59 0 0 52 15 0 0 51 -35 0 0 148 -40 0 0 151 -33 0 0 145 -40 0 0 149 -40 0 0 147 -40 0 0 146 -40 0 0 47 -40 0 0 39 -42 0 0 35 -43 0 0 130 -71 0 0 132 -71 0 0 127 -71 0 0 131 -71 0 0 129 -71 0 0 128 -71 0 0 133 -78 0 0 33 -71 0 0
EndChar
StartChar: W
Encoding: 87 87 55
Width: 944
Flags: W
HStem: 0 21G<209 311 642 744> 709 20G<22 126 425 525 825 929>
AnchorPoint: "below" 475 0 basechar 0
AnchorPoint: "above" 475 729 basechar 0
Fore
744 0 m 1
 642 0 l 1
 474 599 l 1
 311 0 l 1
 209 0 l 1
 22 729 l 1
 126 729 l 1
 263 137 l 1
 425 729 l 1
 525 729 l 1
 691 137 l 1
 825 729 l 1
 929 729 l 1
 744 0 l 1
EndSplineSet
KernsSLIFO: 89 -6 0 0 85 -28 0 0 27 -53 0 0 82 -28 0 0 14 -56 0 0 183 -25 0 0 79 -29 0 0 73 -1 0 0 13 -13 0 0 1968 -54 0 0 106 -58 0 0 71 -25 0 0 69 -32 0 0 12 -56 0 0 26 -52 0 0 165 -34 0 0 65 -38 0 0 52 19 0 0 51 -24 0 0 148 -20 0 0 151 -13 0 0 145 -20 0 0 149 -20 0 0 147 -20 0 0 146 -20 0 0 47 -20 0 0 39 -22 0 0 35 -23 0 0 130 -50 0 0 132 -50 0 0 127 -50 0 0 131 -50 0 0 129 -50 0 0 128 -50 0 0 133 -56 0 0 33 -50 0 0
EndChar
StartChar: X
Encoding: 88 88 56
Width: 667
Flags: W
HStem: 0 21G<22 135 534 649> 709 20G<38 151 526 637>
AnchorPoint: "above" 333 729 basechar 0
AnchorPoint: "below" 333 0 basechar 0
Fore
391 374 m 1
 649 0 l 1
 534 0 l 1
 335 304 l 1
 135 0 l 1
 22 0 l 1
 280 374 l 1
 38 729 l 1
 151 729 l 1
 338 443 l 1
 526 729 l 1
 637 729 l 1
 391 374 l 1
EndSplineSet
KernsSLIFO: 89 -61 0 0 85 -24 0 0 79 -33 0 0 13 -51 0 0 69 -36 0 0 65 -15 0 0 49 -44 0 0 149 -45 0 0 47 -45 0 0 35 -48 0 0
EndChar
StartChar: Y
Encoding: 89 89 57
Width: 667
Flags: W
HStem: 0 21G<294 387> 709 20G<13 128 550 661>
VStem: 294 93<0 286>
AnchorPoint: "below" 343 2 basechar 0
AnchorPoint: "above" 343 731 basechar 0
Fore
387 286 m 1
 387 0 l 1
 294 0 l 1
 294 286 l 1
 13 729 l 1
 128 729 l 1
 342 374 l 1
 550 729 l 1
 661 729 l 1
 387 286 l 1
EndSplineSet
KernsSLIFO: 86 -36 0 0 85 -63 0 0 27 -88 0 0 14 -111 0 0 80 -54 0 0 183 -82 0 0 79 -86 0 0 73 3 0 0 13 -84 0 0 1968 -119 0 0 106 -123 0 0 71 -83 0 0 69 -89 0 0 12 -111 0 0 26 -87 0 0 165 -84 0 0 65 -88 0 0 52 23 0 0 51 -41 0 0 148 -56 0 0 151 -54 0 0 145 -56 0 0 149 -56 0 0 147 -56 0 0 146 -56 0 0 47 -56 0 0 39 -58 0 0 35 -58 0 0 130 -96 0 0 132 -96 0 0 127 -96 0 0 131 -96 0 0 129 -96 0 0 128 -96 0 0 133 -103 0 0 33 -96 0 0
EndChar
StartChar: Z
Encoding: 90 90 58
Width: 611
Flags: W
HStem: 0 82<28 583> 647 82<56 581>
AnchorPoint: "above" 319 729 basechar 0
Fore
581 729 m 1
 581 645 l 1
 145 82 l 1
 583 82 l 1
 583 0 l 1
 28 0 l 1
 28 82 l 1
 466 647 l 1
 56 647 l 1
 56 729 l 1
 581 729 l 1
EndSplineSet
KernsSLIFO: 89 -38 0 0 86 -33 0 0
EndChar
StartChar: bracketleft
Encoding: 91 91 59
Width: 278
Flags: W
HStem: -212 72<64 250> 657 72<64 250>
VStem: 64 83<-212 729>
Fore
250 729 m 1
 250 657 l 1
 147 657 l 1
 147 -140 l 1
 250 -140 l 1
 250 -212 l 1
 64 -212 l 1
 64 729 l 1
 250 729 l 1
EndSplineSet
EndChar
StartChar: backslash
Encoding: 92 92 60
Width: 278
Flags: W
HStem: -20 21G<229 284> 709 20G<-8 47>
Fore
47 729 m 1
 284 -20 l 1
 229 -20 l 1
 -8 729 l 1
 47 729 l 1
EndSplineSet
EndChar
StartChar: bracketright
Encoding: 93 93 61
Width: 278
Flags: W
HStem: -212 72<23 209> 657 72<23 209>
VStem: 126 83<-212 729>
Fore
23 -212 m 1
 23 -140 l 1
 126 -140 l 1
 126 657 l 1
 23 657 l 1
 23 729 l 1
 209 729 l 1
 209 -212 l 1
 23 -212 l 1
EndSplineSet
EndChar
StartChar: asciicircum
Encoding: 94 94 62
Width: 469
Flags: W
HStem: 689 20G<197 270>
Fore
197 709 m 1
 270 709 l 1
 425 329 l 1
 356 329 l 1
 234 629 l 1
 113 329 l 1
 44 329 l 1
 197 709 l 1
EndSplineSet
EndChar
StartChar: underscore
Encoding: 95 95 63
Width: 556
Flags: W
HStem: -176 50<-22 578>
Fore
578 -126 m 1
 578 -176 l 1
 -22 -176 l 1
 -22 -126 l 1
 578 -126 l 1
EndSplineSet
EndChar
StartChar: grave
Encoding: 96 96 64
Width: 333
Flags: W
HStem: 720 20G<22 135>
Fore
135 740 m 1
 231 592 l 1
 171 592 l 1
 22 740 l 1
 135 740 l 1
EndSplineSet
EndChar
StartChar: a
Encoding: 97 97 65
Width: 556
Flags: W
HStem: -23 73<161 281.5> 462 77<228 339.5>
VStem: 42 87<84.5 202> 389 83<88 442.5>
AnchorPoint: "below" 274 0 basechar 0
AnchorPoint: "above" 274 538 basechar 0
Fore
65 369 m 1
 70 511 181 539 275 539 c 0
 404 539 472 489 472 396 c 2
 472 88 l 2
 472 62 488 47 517 47 c 0
 522 47 526 47 535 49 c 1
 535 -14 l 1
 508 -21 495 -23 478 -23 c 0
 424 -23 398 1 392 54 c 1
 333 0 280 -23 214 -23 c 0
 108 -23 42 37 42 132 c 0
 42 272 149 284 302 304 c 0
 368 312 389 327 389 362 c 2
 389 384 l 2
 389 434 347 462 272 462 c 0
 194 462 156 433 149 369 c 1
 65 369 l 1
232 50 m 0
 331 50 389 115 389 165 c 2
 389 259 l 1
 304 220 129 249 129 134 c 0
 129 81 167 50 232 50 c 0
EndSplineSet
KernsSLIFO: 89 -26 0 0 87 -13 0 0 86 -21 0 0 1948 -23 0 0 74 -4 0 0
EndChar
StartChar: b
Encoding: 98 98 66
Width: 556
Flags: W
HStem: -23 78<239 364> 461 78<239 368> 709 20G<54 137>
VStem: 54 75<0 67> 54 83<196.5 319.5 453 729> 436 87<177 349>
AnchorPoint: "below" 274 0 basechar 0
Fore
54 729 m 1xec
 137 729 l 1
 137 453 l 1xec
 176 512 227 539 299 539 c 0
 437 539 523 434 523 264 c 0
 523 90 433 -23 295 -23 c 0
 222 -23 169 6 129 67 c 1
 129 0 l 1
 54 0 l 1xf4
 54 729 l 1xec
283 461 m 0
 195 461 137 381 137 258 c 0
 137 135 195 55 283 55 c 0
 374 55 436 136 436 255 c 0
 436 380 376 461 283 461 c 0
EndSplineSet
KernsSLIFO: 89 -15 0 0 87 -3 0 0 86 -11 0 0
EndChar
StartChar: c
Encoding: 99 99 67
Width: 500
Flags: W
HStem: -23 77<192 325.5> 462 77<193.5 324>
VStem: 31 87<168.5 340>
AnchorPoint: "below" 274 0 basechar 0
AnchorPoint: "above" 265 538 basechar 0
Fore
471 348 m 1
 387 348 l 1
 377 421 333 462 263 462 c 0
 172 462 118 384 118 253 c 0
 118 129 173 54 265 54 c 0
 336 54 379 96 393 180 c 1
 477 180 l 1
 467 52 388 -23 263 -23 c 0
 121 -23 31 84 31 253 c 0
 31 427 123 539 264 539 c 0
 384 539 461 473 471 348 c 1
EndSplineSet
KernsSLIFO: 75 7 0 0 72 1 0 0
EndChar
StartChar: d
Encoding: 100 100 68
Width: 556
Flags: W
HStem: -23 78<183.5 310> 461 78<183 310> 709 20G<412 495>
VStem: 26 87<174.5 346.5> 412 83<195.5 318.5 458 729> 421 74<0 69>
AnchorPoint: "below" 274 0 basechar 0
Fore
495 729 m 1xf8
 495 0 l 1
 421 0 l 1
 421 69 l 1xf4
 376 4 326 -23 254 -23 c 0
 113 -23 26 86 26 263 c 0
 26 430 115 539 251 539 c 0
 321 539 377 511 412 458 c 1
 412 729 l 1
 495 729 l 1xf8
265 461 m 0
 174 461 113 380 113 258 c 0
 113 136 174 55 266 55 c 0
 354 55 412 135 412 256 c 0xf8
 412 381 355 461 265 461 c 0
EndSplineSet
EndChar
StartChar: e
Encoding: 101 101 69
Width: 556
Flags: W
HStem: -23 77<204.5 338> 234 68<127 513> 462 77<207 329>
VStem: 424 89<234 351>
AnchorPoint: "below" 274 0 basechar 0
AnchorPoint: "above" 285 538 basechar 0
Fore
513 234 m 1
 127 234 l 1
 128 182 135 152 155 122 c 0
 183 78 228 54 281 54 c 0
 348 54 395 90 418 159 c 1
 502 159 l 1
 481 45 398 -23 278 -23 c 0
 131 -23 40 83 40 255 c 0
 40 427 134 539 280 539 c 0
 378 539 458 487 492 401 c 0
 507 362 513 314 513 234 c 1
129 302 m 5
 423 302 l 1
 424 304 424 306 424 308 c 0
 424 394 361 462 279 462 c 0
 195 462 136 399 129 302 c 5
EndSplineSet
KernsSLIFO: 89 -19 0 0 88 -27 0 0 87 -9 0 0 86 -15 0 0 84 -10 0 0 1948 -18 0 0
EndChar
StartChar: f
Encoding: 102 102 70
Width: 278
Flags: W
HStem: 0 21G<88 171> 456 68<18 88 171 258> 659 73<172.5 232.5>
VStem: 88 83<0 456 524 613>
AnchorPoint: "below" 134 2 basechar 0
Fore
258 524 m 1
 258 456 l 1
 171 456 l 1
 171 0 l 1
 88 0 l 1
 88 456 l 1
 18 456 l 1
 18 524 l 1
 88 524 l 1
 88 613 l 2
 88 688 134 732 211 732 c 0
 228 732 239 731 258 727 c 1
 258 658 l 1
 239 659 236 659 229 659 c 0
 191 659 171 641 171 606 c 2
 171 524 l 1
 258 524 l 1
EndSplineSet
KernsSLIFO: 84 24 0 0 183 -9 0 0 274 -12 0 0 181 -10 0 0 178 -10 0 0 79 -10 0 0 76 -3 0 0 74 -4 0 0 73 -2 0 0 70 22 0 0 168 -15 0 0 69 -15 0 0 164 -9 0 0 165 -5 0 0 163 -9 0 0 160 -9 0 0 65 -9 0 0
EndChar
StartChar: g
Encoding: 103 103 71
Width: 556
Flags: W
HStem: -218 70<193.5 354.5> -23 77<185.5 306> 462 77<185.5 306>
VStem: 29 87<167.5 338> 404 85<-16 86 -5 320.5> 412 77<448 524>
AnchorPoint: "below" 260 -200 basechar 0
AnchorPoint: "above" 250 538 basechar 0
Fore
245 -23 m 0xf8
 126 -23 29 82 29 253 c 0
 29 423 119 539 252 539 c 0
 319 539 370 510 412 448 c 1
 412 524 l 1
 489 524 l 1xf4
 489 86 l 2
 489 -96 454 -218 255 -218 c 0
 132 -218 55 -159 46 -60 c 1
 131 -60 l 1
 145 -145 232 -148 258 -148 c 0
 376 -148 404 -76 404 44 c 2
 404 71 l 1
 357 5 311 -23 245 -23 c 0xf8
261 462 m 0
 172 462 116 384 116 258 c 0
 116 131 171 54 262 54 c 0
 350 54 404 130 404 255 c 0xf8
 404 386 351 462 261 462 c 0
EndSplineSet
KernsSLIFO: 181 3 0 0 178 3 0 0 164 -5 0 0 165 -1 0 0 163 -5 0 0 65 -5 0 0
EndChar
StartChar: h
Encoding: 104 104 72
Width: 556
Flags: W
HStem: 0 21G<70 153 403 486> 466 73<252 372> 709 20G<70 153>
VStem: 70 83<0 729> 403 83<0 440>
AnchorPoint: "below" 274 0 basechar 0
AnchorPoint: "above" 110 716 basechar 0
Fore
403 363 m 2
 403 445 338 466 295 466 c 0
 209 466 153 396 153 289 c 2
 153 0 l 1
 70 0 l 1
 70 729 l 1
 153 729 l 1
 153 452 l 1
 202 516 247 539 321 539 c 0
 423 539 486 484 486 396 c 2
 486 0 l 1
 403 0 l 1
 403 363 l 2
EndSplineSet
KernsSLIFO: 89 -18 0 0 1948 -15 0 0
EndChar
StartChar: i
Encoding: 105 105 73
Width: 222
Flags: W
HStem: 0 21<67 150> 504 20<67 150> 709 20G<66 150>
VStem: 66 84<624 729> 67 83<0 524>
AnchorPoint: "below" 110 0 basechar 0
AnchorPoint: "above" 111 743 basechar 0
Fore
150 729 m 1xf0
 150 624 l 1
 66 624 l 1
 66 729 l 1
 150 729 l 1xf0
EndSplineSet
Refer: 240 305 N 1 0 0 1 -27 0 0
KernsSLIFO: 74 -3 0 0 52 -7 0 0
Substitution: 0 65534 's001' dotlessi
EndChar
StartChar: j
Encoding: 106 106 74
Width: 222
Flags: HW
HStem: -218 73<0.5 57> 504 20<70 153> 709 20G<70 153>
VStem: 70 83<-144.5 524 624 729>
AnchorPoint: "below" 88 -200 basechar 0
AnchorPoint: "above" 109.5 743 basechar 0
Fore
153 729 m 1
 153 624 l 1
 70 624 l 1
 70 729 l 1
 153 729 l 1
EndSplineSet
Refer: 2168 63166 S 1 0 0 1 0 0 0
Substitution: 0 65534 's001' dotlessj
EndChar
StartChar: k
Encoding: 107 107 75
Width: 500
Flags: W
HStem: 0 21G<58 141 399 502> 504 20G<363 470> 709 20G<58 141>
VStem: 58 83<0 729>
AnchorPoint: "above" 102 716 basechar 0
AnchorPoint: "below" 262 0 basechar 0
Fore
141 729 m 1
 141 302 l 1
 363 524 l 1
 470 524 l 1
 288 343 l 1
 502 0 l 1
 399 0 l 1
 222 284 l 1
 141 204 l 1
 141 0 l 1
 58 0 l 1
 58 729 l 1
 141 729 l 1
EndSplineSet
KernsSLIFO: 187 -6 0 0 85 -11 0 0 83 -3 0 0 181 -19 0 0 178 -19 0 0 79 -19 0 0 13 -41 0 0 71 -16 0 0 168 -21 0 0 69 -21 0 0 164 -2 0 0 165 2 0 0 163 -2 0 0 160 -2 0 0 65 -2 0 0
EndChar
StartChar: l
Encoding: 108 108 76
Width: 222
Flags: W
HStem: 0 21G<68 152> 709 20G<68 152>
VStem: 68 84<0 729>
AnchorPoint: "above" 111 743 basechar 0
AnchorPoint: "below" 108 0 basechar 0
Fore
152 729 m 1
 152 0 l 1
 68 0 l 1
 68 729 l 1
 152 729 l 1
EndSplineSet
KernsSLIFO: 89 -5 0 0
EndChar
StartChar: m
Encoding: 109 109 77
Width: 833
Flags: W
HStem: 0 21G<70 154 374 458 678 762> 466 73<243 342 547 659>
VStem: 70 84<0 367> 70 77<450 524> 374 84<0 394.5> 678 84<0 440>
AnchorPoint: "above" 416.5 538 basechar 0
AnchorPoint: "below" 412 -2 basechar 0
Fore
70 524 m 1xdc
 147 524 l 1
 147 450 l 1xdc
 192 513 238 539 308 539 c 0
 376 539 418 515 449 459 c 1
 498 518 540 539 610 539 c 0
 708 539 762 487 762 393 c 2
 762 0 l 1
 678 0 l 1
 678 361 l 2
 678 427 642 466 581 466 c 0
 513 466 458 405 458 329 c 2
 458 0 l 1
 374 0 l 1
 374 361 l 2
 374 428 339 466 277 466 c 0
 209 466 154 405 154 329 c 2
 154 0 l 1
 70 0 l 1xec
 70 524 l 1xdc
EndSplineSet
KernsSLIFO: 89 -18 0 0 87 -7 0 0 86 -13 0 0 80 5 0 0
EndChar
StartChar: n
Encoding: 110 110 78
Width: 556
Flags: W
HStem: 0 21G<70 154 404 487> 466 73<253 371.5>
VStem: 70 84<0 342.5> 70 77<436 524> 404 83<0 439.5>
AnchorPoint: "below" 274 0 basechar 0
AnchorPoint: "above" 278 538 basechar 0
Fore
70 524 m 1xd8
 147 524 l 1
 147 436 l 1xd8
 193 509 243 539 321 539 c 0
 422 539 487 483 487 396 c 2
 487 0 l 1
 404 0 l 1
 404 363 l 2
 404 426 362 466 296 466 c 0
 210 466 154 396 154 289 c 2
 154 0 l 1
 70 0 l 1xe8
 70 524 l 1xd8
EndSplineSet
KernsSLIFO: 89 -18 0 0 87 -7 0 0 86 -13 0 0 1948 -14 0 0 80 5 0 0 52 -96 0 0
EndChar
StartChar: o
Encoding: 111 111 79
Width: 556
Flags: W
HStem: -23 77<198.5 346.5> 462 77<198.5 347.5>
VStem: 36 87<170 346> 423 87<168 344.5>
AnchorPoint: "below" 273 0 basechar 0
AnchorPoint: "above" 272 538 basechar 0
Fore
272 539 m 0
 423 539 510 435 510 254 c 0
 510 82 420 -23 273 -23 c 0
 124 -23 36 82 36 258 c 0
 36 434 125 539 272 539 c 0
273 462 m 0
 180 462 123 384 123 258 c 0
 123 131 180 54 273 54 c 0
 365 54 423 132 423 255 c 0
 423 385 367 462 273 462 c 0
EndSplineSet
KernsSLIFO: 89 -22 0 0 88 -27 0 0 87 -10 0 0 86 -18 0 0 84 -10 0 0 1948 -21 0 0 52 -99 0 0
EndChar
StartChar: p
Encoding: 112 112 80
Width: 556
Flags: W
HStem: -23 78<240 366.5> 461 78<240 367.5>
VStem: 54 77<445 524> 54 84<-218 55 196.5 319.5> 436 87<169.5 341>
AnchorPoint: "below" 272 -200 basechar 0
AnchorPoint: "above" 272 538 basechar 0
Fore
54 -218 m 1xd8
 54 524 l 1
 131 524 l 1
 131 445 l 1xe8
 170 507 227 539 298 539 c 0
 437 539 523 429 523 253 c 0
 523 86 434 -23 299 -23 c 0
 231 -23 182 1 138 55 c 1
 138 -218 l 1
 54 -218 l 1xd8
284 461 m 0
 196 461 138 381 138 258 c 0xd8
 138 135 196 55 284 55 c 0
 375 55 436 136 436 255 c 0
 436 380 376 461 284 461 c 0
EndSplineSet
KernsSLIFO: 89 -16 0 0 84 -4 0 0
EndChar
StartChar: q
Encoding: 113 113 81
Width: 556
Flags: W
HStem: -23 78<181 310> 461 78<185 310.5>
VStem: 26 87<167 339> 412 83<-218 60 195 318> 421 74<454 524>
AnchorPoint: "below" 272 -200 basechar 0
AnchorPoint: "above" 272 538 basechar 0
Fore
495 -218 m 1xf0
 412 -218 l 1
 412 60 l 1xf0
 373 3 323 -23 250 -23 c 0
 112 -23 26 82 26 252 c 0
 26 426 116 539 254 539 c 0
 323 539 382 509 421 454 c 1
 421 524 l 1
 495 524 l 1xe8
 495 -218 l 1xf0
266 461 m 0
 174 461 113 379 113 258 c 0
 113 136 174 55 266 55 c 0
 354 55 412 135 412 255 c 0
 412 381 355 461 266 461 c 0
EndSplineSet
KernsSLIFO: 85 4 0 0 67 8 0 0
EndChar
StartChar: r
Encoding: 114 114 82
Width: 333
Flags: W
HStem: 0 21G<69 153> 451 88<262 321>
VStem: 69 77<429 524> 69 84<0 345.5>
AnchorPoint: "below" 110 0 basechar 0
AnchorPoint: "above" 191 538 basechar 0
Fore
321 451 m 1xe0
 220 449 153 419 153 272 c 2
 153 0 l 1
 69 0 l 1xd0
 69 524 l 1
 146 524 l 1
 146 429 l 1
 194 507 235 539 289 539 c 0
 300 539 307 538 321 536 c 1
 321 451 l 1xe0
EndSplineSet
KernsSLIFO: 204 -6 0 0 90 9 0 0 89 24 0 0 88 20 0 0 87 31 0 0 86 29 0 0 85 2 0 0 84 28 0 0 27 -22 0 0 83 4 0 0 1948 1 0 0 81 -3 0 0 14 -69 0 0 80 8 0 0 183 -6 0 0 177 -6 0 0 274 -8 0 0 181 -6 0 0 179 -6 0 0 178 -6 0 0 79 -6 0 0 76 1 0 0 75 6 0 0 73 1 0 0 13 -47 0 0 71 -4 0 0 70 26 0 0 167 -11 0 0 169 -11 0 0 168 -11 0 0 69 -11 0 0 68 -1 0 0 12 -69 0 0 26 -22 0 0 166 -9 0 0 67 -6 0 0 164 -5 0 0 159 -5 0 0 165 -1 0 0 163 -5 0 0 161 -5 0 0 160 -5 0 0 65 -5 0 0
EndChar
StartChar: s
Encoding: 115 115 83
Width: 500
Flags: W
HStem: -23 77<174.5 309> 462 77<187 308.5>
VStem: 47 87<338 427.5> 372 87<92.5 182>
AnchorPoint: "below" 242 0 basechar 0
AnchorPoint: "above" 246 538 basechar 0
Fore
122 156 m 1
 129 105 148 54 250 54 c 0
 323 54 372 87 372 136 c 0
 372 174 349 195 291 209 c 2
 213 228 l 2
 89 258 47 297 47 379 c 0
 47 476 126 539 248 539 c 0
 369 539 437 481 438 378 c 1
 350 378 l 1
 348 433 312 462 245 462 c 0
 177 462 134 431 134 383 c 0
 134 346 163 324 231 308 c 2
 311 289 l 2
 415 264 459 221 459 143 c 0
 459 42 375 -23 243 -23 c 0
 106 -23 38 35 34 156 c 1
 122 156 l 1
EndSplineSet
KernsSLIFO: 84 -3 0 0 1948 -22 0 0
EndChar
StartChar: t
Encoding: 116 116 84
Width: 278
Flags: W
HStem: -23 73<153.5 222> 456 68<14 85 168 254>
VStem: 85 83<60 456 524 668>
AnchorPoint: "below" 156 0 basechar 0
Fore
254 524 m 1
 254 456 l 1
 168 456 l 1
 168 97 l 2
 168 60 178 50 214 50 c 0
 230 50 243 51 254 54 c 1
 254 -16 l 1
 226 -21 206 -23 186 -23 c 0
 121 -23 85 7 85 60 c 2
 85 456 l 1
 14 456 l 1
 14 524 l 1
 85 524 l 1
 85 668 l 1
 168 668 l 1
 168 524 l 1
 254 524 l 1
EndSplineSet
KernsSLIFO: 27 -28 0 0 1948 -1 0 0 181 -12 0 0 178 -12 0 0 79 -12 0 0 72 -3 0 0 168 -14 0 0 69 -14 0 0 26 -28 0 0 164 -1 0 0 165 2 0 0 163 -1 0 0 160 -1 0 0 65 -1 0 0 51 -8 0 0
EndChar
StartChar: u
Encoding: 117 117 85
Width: 556
Flags: W
HStem: -23 73<181 299.5> 504 20G<65 148 399 482>
VStem: 65 83<76.5 524> 399 83<173.5 524> 407 75<0 73>
AnchorPoint: "above" 273 538 basechar 0
Fore
482 0 m 1xe8
 407 0 l 1
 407 73 l 1xe8
 358 4 309 -23 232 -23 c 0
 130 -23 65 33 65 120 c 2
 65 524 l 1
 148 524 l 1
 148 153 l 2
 148 90 190 50 256 50 c 0
 343 50 399 120 399 227 c 2
 399 524 l 1
 482 524 l 1xf0
 482 0 l 1xe8
EndSplineSet
KernsSLIFO: 1948 -8 0 0
EndChar
StartChar: v
Encoding: 118 118 86
Width: 500
Flags: W
HStem: 0 21G<194 285> 504 20G<10 104 392 486>
Fore
285 0 m 1
 194 0 l 1
 10 524 l 1
 104 524 l 1
 244 99 l 1
 392 524 l 1
 486 524 l 1
 285 0 l 1
EndSplineSet
KernsSLIFO: 204 -16 0 0 27 -23 0 0 83 -9 0 0 14 -69 0 0 183 -17 0 0 177 -17 0 0 181 -17 0 0 178 -17 0 0 79 -17 0 0 13 -12 0 0 71 -14 0 0 167 -21 0 0 169 -21 0 0 168 -21 0 0 69 -21 0 0 12 -69 0 0 26 -23 0 0 67 -16 0 0 162 -18 0 0 164 -18 0 0 159 -18 0 0 165 -14 0 0 163 -18 0 0 161 -18 0 0 160 -18 0 0 65 -18 0 0
EndChar
StartChar: w
Encoding: 119 119 87
Width: 722
Flags: W
HStem: 0 21G<158 252 459 554> 504 20G<6 98 305 407 614 708>
AnchorPoint: "above" 356 538 basechar 0
Fore
554 0 m 1
 459 0 l 1
 353 411 l 1
 252 0 l 1
 158 0 l 1
 6 524 l 1
 98 524 l 1
 205 116 l 1
 305 524 l 1
 407 524 l 1
 510 116 l 1
 614 524 l 1
 708 524 l 1
 554 0 l 1
EndSplineSet
KernsSLIFO: 27 -23 0 0 83 -5 0 0 14 -50 0 0 183 -6 0 0 177 -9 0 0 181 -9 0 0 178 -9 0 0 79 -9 0 0 13 -1 0 0 71 -6 0 0 167 -12 0 0 169 -12 0 0 168 -12 0 0 69 -12 0 0 12 -50 0 0 26 -23 0 0 67 -7 0 0 162 -15 0 0 164 -15 0 0 159 -15 0 0 165 -11 0 0 163 -15 0 0 161 -15 0 0 160 -15 0 0 65 -15 0 0
EndChar
StartChar: x
Encoding: 120 120 88
Width: 500
Flags: W
HStem: 0 21G<17 112 376 473> 504 20G<27 122 374 468>
Fore
292 271 m 1
 473 0 l 1
 376 0 l 1
 245 201 l 1
 112 0 l 1
 17 0 l 1
 202 267 l 1
 27 524 l 1
 122 524 l 1
 248 334 l 1
 374 524 l 1
 468 524 l 1
 292 271 l 1
EndSplineSet
KernsSLIFO: 81 -20 0 0 79 -25 0 0 168 -28 0 0 69 -28 0 0 67 -23 0 0 65 -17 0 0
EndChar
StartChar: y
Encoding: 121 121 89
Width: 500
Flags: W
HStem: -218 82<92 138.5> 504 20G<20 109 388 478>
AnchorPoint: "above" 248 538 basechar 0
Fore
388 524 m 1
 478 524 l 1
 245 -110 l 2
 216 -187 167 -218 110 -218 c 0
 88 -218 71 -214 54 -205 c 1
 54 -130 l 1
 72 -134 86 -136 98 -136 c 0
 133 -136 151 -122 165 -85 c 2
 197 -2 l 1
 20 524 l 1
 109 524 l 1
 243 116 l 1
 388 524 l 1
EndSplineSet
KernsSLIFO: 27 -27 0 0 83 -12 0 0 14 -70 0 0 183 -19 0 0 177 -20 0 0 181 -20 0 0 178 -20 0 0 79 -20 0 0 76 -4 0 0 13 -14 0 0 71 -17 0 0 167 -24 0 0 169 -24 0 0 168 -24 0 0 69 -24 0 0 12 -70 0 0 26 -27 0 0 67 -19 0 0 162 -22 0 0 164 -22 0 0 159 -22 0 0 165 -18 0 0 163 -22 0 0 161 -22 0 0 160 -22 0 0 65 -22 0 0
EndChar
StartChar: z
Encoding: 122 122 90
Width: 500
Flags: W
HStem: 0 73<31 457> 451 73<52 443>
AnchorPoint: "above" 250 538 basechar 0
Fore
443 524 m 1
 443 450 l 1
 132 73 l 1
 457 73 l 1
 457 0 l 1
 31 0 l 1
 31 75 l 1
 344 451 l 1
 52 451 l 1
 52 524 l 1
 443 524 l 1
EndSplineSet
EndChar
StartChar: braceleft
Encoding: 123 123 91
Width: 334
Flags: W
HStem: -212 65<195.5 276 230 276> 664 65<195.5 276 230 276>
VStem: 121 77<-81 142.5 416 639.5>
Fore
276 729 m 1
 276 664 l 1
 261 664 l 2
 212 664 198 649 198 597 c 2
 198 416 l 2
 198 324 177 283 116 259 c 1
 172 233 198 184 198 101 c 2
 198 -80 l 2
 198 -132 212 -147 261 -147 c 2
 276 -147 l 1
 276 -212 l 1
 230 -212 l 2
 161 -212 121 -164 121 -81 c 2
 121 86 l 2
 121 178 102 212 43 224 c 1
 43 293 l 1
 102 305 121 338 121 431 c 2
 121 598 l 2
 121 681 161 729 230 729 c 2
 276 729 l 1
EndSplineSet
EndChar
StartChar: bar
Encoding: 124 124 92
Width: 260
Flags: W
HStem: 709 20G<100 160>
VStem: 100 60<-212 729>
Fore
100 729 m 1
 160 729 l 1
 160 -212 l 1
 100 -212 l 1
 100 729 l 1
EndSplineSet
EndChar
StartChar: braceright
Encoding: 125 125 93
Width: 334
Flags: W
HStem: -212 65<29 111> 664 65<29 111>
VStem: 109 77<-122.5 101 375 598>
Fore
29 -212 m 1
 29 -147 l 1
 45 -147 l 2
 95 -147 109 -132 109 -80 c 2
 109 101 l 2
 109 184 135 233 191 258 c 1
 135 284 109 334 109 416 c 2
 109 597 l 2
 109 649 95 664 45 664 c 2
 29 664 l 1
 29 729 l 1
 76 729 l 2
 146 729 186 681 186 598 c 2
 186 431 l 2
 186 339 205 305 262 293 c 1
 262 224 l 1
 205 212 186 178 186 86 c 2
 186 -81 l 2
 186 -164 146 -212 76 -212 c 2
 29 -212 l 1
EndSplineSet
EndChar
StartChar: asciitilde
Encoding: 126 126 94
Width: 584
Flags: W
HStem: 268 68<390.5 435> 371 67<150.5 192>
VStem: 455 53<356.5 411 381.5 411>
Fore
181 371 m 0
 138 371 130 320 128 293 c 1
 75 293 l 1
 80 387 118 438 183 438 c 0
 201 438 220 432 237 422 c 2
 354 353 l 2
 374 341 390 336 404 336 c 0
 440 336 455 357 455 406 c 2
 455 411 l 1
 508 411 l 1
 508 395 l 2
 508 318 467 268 403 268 c 0
 378 268 348 278 322 294 c 2
 224 357 l 2
 214 363 191 371 181 371 c 0
EndSplineSet
EndChar
StartChar: cent
Encoding: 162 162 97
Width: 556
Flags: W
VStem: 52 87<173.5 334.5> 270 42<-120 -22 53 462 538 628>
Fore
312 462 m 1
 312 53 l 1
 376 60 414 101 426 180 c 1
 510 180 l 1
 503 60 428 -17 312 -23 c 1
 312 -120 l 1
 270 -120 l 1
 270 -22 l 1
 135 -10 52 94 52 253 c 0
 52 416 135 524 270 538 c 1
 270 628 l 1
 312 628 l 1
 312 539 l 1
 429 531 498 462 504 348 c 1
 420 348 l 1
 413 415 373 457 312 462 c 1
270 55 m 1
 270 461 l 1
 184 445 139 374 139 253 c 0
 139 140 187 68 270 55 c 1
EndSplineSet
EndChar
StartChar: sterling
Encoding: 163 163 98
Width: 556
Flags: W
HStem: -23 92<362 430> 23 77<174.5 281> 321 55<26 136 206 366> 651 78<225 334.5>
VStem: 54 93<492 575.5> 160 85<212.5 259.5>
Fore
147 523 m 0x7c
 147 461 180 429 206 376 c 1
 366 376 l 1
 366 321 l 1
 230 321 l 1
 240 292 245 269 245 250 c 0
 245 198 217 152 127 61 c 1
 166 87 206 100 249 100 c 0x7c
 313 100 358 69 410 69 c 0
 436 69 464 79 493 99 c 1
 535 33 l 1
 495 -6 456 -23 404 -23 c 0xbc
 320 -23 265 23 192 23 c 0
 157 23 121 11 83 -14 c 1
 35 52 l 1
 127 131 160 182 160 243 c 0
 160 268 151 296 136 321 c 1
 26 321 l 1
 26 376 l 1
 107 376 l 1
 61 452 54 471 54 515 c 0
 54 636 158 729 292 729 c 0
 377 729 509 697 512 497 c 1
 424 497 l 1
 421 600 375 651 288 651 c 0
 203 651 147 600 147 523 c 0x7c
EndSplineSet
EndChar
StartChar: currency
Encoding: 164 164 99
Width: 556
Flags: W
HStem: 159 77<245.5 303.5> 445 77<245 304>
VStem: 89 79<311.5 369> 381 79<311 368.5>
Fore
485 190 m 1
 427 136 l 1
 374 189 l 1
 347 169 313 159 274 159 c 0
 241 159 206 168 180 184 c 1
 129 133 l 1
 73 190 l 1
 121 239 l 1
 101 266 89 305 89 341 c 0
 89 377 101 415 121 443 c 1
 67 498 l 1
 123 551 l 1
 178 496 l 1
 207 513 239 522 275 522 c 0
 312 522 347 512 373 494 c 1
 432 547 l 1
 489 489 l 1
 434 434 l 1
 450 409 460 373 460 341 c 0
 460 307 450 275 431 244 c 1
 485 190 l 1
274 445 m 0
 216 445 168 398 168 340 c 0
 168 283 216 236 275 236 c 0
 332 236 381 283 381 339 c 0
 381 398 334 445 274 445 c 0
EndSplineSet
EndChar
StartChar: yen
Encoding: 165 165 100
Width: 556
Flags: W
HStem: 0 21G<237 325> 175 51<65 237 325 495> 303 51<65 237 325 495> 689 20G<11 96 460 545>
VStem: 237 88<0 175 226 303>
Fore
495 354 m 1
 495 303 l 1
 325 303 l 1
 325 226 l 1
 495 226 l 1
 495 175 l 1
 325 175 l 1
 325 0 l 1
 237 0 l 1
 237 175 l 1
 65 175 l 1
 65 226 l 1
 237 226 l 1
 237 303 l 1
 65 303 l 1
 65 354 l 1
 216 354 l 1
 11 709 l 1
 96 709 l 1
 281 387 l 1
 460 709 l 1
 545 709 l 1
 344 354 l 1
 495 354 l 1
EndSplineSet
EndChar
StartChar: brokenbar
Encoding: 166 166 101
Width: 260
Flags: W
HStem: 709 20G<100 160>
VStem: 100 60<-212 189 328 729>
Fore
100 729 m 1
 160 729 l 1
 160 328 l 1
 100 328 l 1
 100 729 l 1
100 189 m 1
 160 189 l 1
 160 -212 l 1
 100 -212 l 1
 100 189 l 1
EndSplineSet
EndChar
StartChar: section
Encoding: 167 167 102
Width: 556
Flags: W
HStem: -213 77<227 316.5> -34 20G<77 162> 524 21G<380 464> 652 77<237 341>
VStem: 43 79<279.5 348> 104 90<545 610> 360 90<-93 -23.5> 380 84<524 605> 427 79<188 265>
Fore
162 -14 m 1xf2
 162 -118 223 -136 264 -136 c 0
 321 -136 360 -101 360 -50 c 0
 360 -15 344 11 305 38 c 2
 135 155 l 2
 70 200 43 247 43 312 c 0xfa
 43 378 74 423 148 462 c 1
 117 498 104 526 104 564 c 0
 104 656 185 729 289 729 c 0
 393 729 464 658 464 552 c 1
 464 524 l 1
 380 524 l 1
 380 550 l 1xf5
 380 612 342 652 283 652 c 0
 232 652 194 616 194 567 c 0
 194 538 209 518 251 490 c 2
 397 396 l 2
 478 344 506 301 506 229 c 0xf480
 506 153 469 100 397 73 c 1
 437 28 450 -2 450 -45 c 0
 450 -141 370 -213 263 -213 c 0
 191 -213 77 -183 77 -14 c 1
 162 -14 l 1xf2
188 229 m 2
 354 106 l 1
 401 131 427 168 427 208 c 0xf880
 427 249 403 286 354 320 c 2
 193 429 l 1
 141 395 122 368 122 328 c 0
 122 288 135 268 188 229 c 2
EndSplineSet
EndChar
StartChar: dieresis
Encoding: 168 168 103
Width: 333
Flags: W
AnchorPoint: "abovemk" 167 729 basemark 0
Fore
134 715 m 1
 134 612 l 1
 30 612 l 1
 30 715 l 1
 134 715 l 1
296 715 m 1
 296 612 l 1
 192 612 l 1
 192 715 l 1
 296 715 l 1
EndSplineSet
EndChar
StartChar: copyright
Encoding: 169 169 104
Width: 737
Flags: W
HStem: -22 62<261.5 472> 126 62<317.5 446> 530 62<319 422.5> 680 62<263.5 474.5>
VStem: -13 68<256 465.5> 181 69<289 427> 683 68<254 466>
Fore
552 312 m 1
 541 259 517 126 375 126 c 0
 260 126 181 221 181 357 c 0
 181 497 260 592 378 592 c 0
 467 592 520 543 544 437 c 1
 473 437 l 1
 456 503 428 530 375 530 c 0
 299 530 250 463 250 358 c 0
 250 265 298 188 375 188 c 0
 431 188 468 231 481 312 c 1
 552 312 l 1
369 742 m 0
 580 742 751 571 751 361 c 0
 751 147 580 -22 364 -22 c 0
 159 -22 -13 152 -13 360 c 0
 -13 571 158 742 369 742 c 0
369 680 m 0
 196 680 55 536 55 360 c 0
 55 186 196 40 365 40 c 0
 543 40 683 182 683 361 c 0
 683 536 542 680 369 680 c 0
EndSplineSet
EndChar
StartChar: ordfeminine
Encoding: 170 170 105
Width: 370
Flags: W
HStem: 303 51<43 320> 399 52<109 176.5> 690 52<137 218.5>
VStem: 37 58<465.5 531> 243 57<469 679.5>
Fore
320 354 m 1
 320 303 l 1
 43 303 l 1
 43 354 l 1
 320 354 l 1
333 449 m 1
 333 405 l 1
 320 400 313 399 301 399 c 0
 268 399 252 411 246 442 c 1
 213 413 180 399 141 399 c 0
 77 399 37 436 37 495 c 0
 37 558 71 591 194 600 c 0
 232 603 243 611 243 633 c 2
 243 646 l 2
 243 674 219 690 176 690 c 0
 131 690 115 677 108 634 c 1
 49 634 l 1
 51 705 96 742 178 742 c 0
 259 742 300 711 300 648 c 2
 300 469 l 2
 300 454 308 446 323 446 c 0
 326 446 329 447 333 449 c 1
243 568 m 1
 187 544 95 564 95 498 c 0
 95 468 116 451 152 451 c 0
 201 451 243 482 243 517 c 2
 243 568 l 1
EndSplineSet
EndChar
StartChar: guillemotleft
Encoding: 171 171 106
Width: 556
Flags: W
Fore
98 227 m 1
 98 316 l 1
 250 438 l 1
 250 355 l 1
 144 272 l 1
 250 189 l 1
 250 106 l 1
 98 227 l 1
303 227 m 1
 303 316 l 1
 455 438 l 1
 455 355 l 1
 349 272 l 1
 455 189 l 1
 455 106 l 1
 303 227 l 1
EndSplineSet
EndChar
StartChar: logicalnot
Encoding: 172 172 107
Width: 584
Flags: W
HStem: 305 70<40 474>
VStem: 474 70<86 375>
Fore
40 375 m 1
 544 375 l 1
 544 86 l 1
 474 86 l 1
 474 305 l 1
 40 305 l 1
 40 375 l 1
EndSplineSet
EndChar
StartChar: softhyphen
Encoding: 173 173 108
Width: 333
Flags: W
HStem: 240 72<46 284>
Fore
284 312 m 1
 284 240 l 1
 46 240 l 1
 46 312 l 1
 284 312 l 1
EndSplineSet
EndChar
StartChar: registered
Encoding: 174 174 109
Width: 737
Flags: W
HStem: -22 62<261.5 472> 325 63<272 428.5> 522 63<202 455.5> 680 62<263.5 474.5>
VStem: -13 68<256 465.5> 202 70<140 585> 469 94<140 217> 476 73<432 501.5> 683 68<254 466>
Fore
495 360 m 1xfd80
 581 304 508 205 563 165 c 1
 563 140 l 1
 484 140 l 1
 475 161 468 189 469 217 c 0xfe80
 470 257 l 1
 470 305 451 325 406 325 c 2
 272 325 l 1
 272 140 l 1
 202 140 l 1
 202 585 l 1
 408 585 l 2
 503 585 549 544 549 459 c 0
 549 413 536 390 495 360 c 1xfd80
272 388 m 1
 401 388 l 2
 453 388 476 409 476 455 c 0xfd80
 476 502 454 522 401 522 c 2
 272 522 l 1
 272 388 l 1
369 742 m 0
 580 742 751 571 751 361 c 0
 751 147 580 -22 364 -22 c 0
 159 -22 -13 152 -13 360 c 0
 -13 571 158 742 369 742 c 0
369 680 m 0
 196 680 55 536 55 360 c 0
 55 186 196 40 365 40 c 0
 543 40 683 182 683 361 c 0
 683 536 542 680 369 680 c 0
EndSplineSet
EndChar
StartChar: macron
Encoding: 175 175 110
Width: 333
Flags: W
HStem: 631 70<28 302>
Fore
302 701 m 1
 302 631 l 1
 28 631 l 1
 28 701 l 1
 302 701 l 1
EndSplineSet
EndChar
StartChar: degree
Encoding: 176 176 111
Width: 606
Flags: W
HStem: 383 57<260 343.5> 629 57<261 344.5>
VStem: 151 57<493.5 576.5> 397 57<492.5 576.5>
Fore
303 686 m 0
 386 686 454 618 454 535 c 0
 454 450 386 383 301 383 c 0
 219 383 151 452 151 535 c 0
 151 618 219 686 303 686 c 0
303 629 m 0
 251 629 208 586 208 535 c 0
 208 483 251 440 301 440 c 0
 355 440 397 482 397 535 c 0
 397 587 355 629 303 629 c 0
EndSplineSet
EndChar
StartChar: plusminus
Encoding: 177 177 112
Width: 584
Flags: W
HStem: -11 70<50 534> 346 70<50 257 327 534>
VStem: 257 70<139 346 416 623>
Fore
534 416 m 1
 534 346 l 1
 327 346 l 1
 327 139 l 1
 257 139 l 1
 257 346 l 1
 50 346 l 1
 50 416 l 1
 257 416 l 1
 257 623 l 1
 327 623 l 1
 327 416 l 1
 534 416 l 1
534 59 m 1
 534 -11 l 1
 50 -11 l 1
 50 59 l 1
 534 59 l 1
EndSplineSet
EndChar
StartChar: twosuperior
Encoding: 178 178 113
Width: 351
Flags: W
HStem: 284 58<19 323> 656 53<130.5 223>
VStem: 263 63<556.5 620>
Fore
178 656 m 0
 104 656 94 600 91 557 c 1
 29 557 l 1
 32 660 81 709 180 709 c 0
 266 709 326 657 326 583 c 0
 326 530 293 485 230 454 c 2
 167 422 l 2
 124 399 106 380 94 342 c 1
 323 342 l 1
 323 284 l 1
 19 284 l 1
 24 381 50 420 146 471 c 2
 204 502 l 2
 243 523 263 550 263 581 c 0
 263 624 226 656 178 656 c 0
EndSplineSet
EndChar
StartChar: threesuperior
Encoding: 179 179 114
Width: 351
Flags: W
HStem: 270 53<119 214> 656 53<122.5 212>
VStem: 245 63<564.5 626> 259 63<363.5 429.5>
Fore
169 656 m 0xe0
 103 656 88 620 88 567 c 1
 25 567 l 1
 27 661 76 709 169 709 c 0
 255 709 308 663 308 589 c 0xe0
 308 550 288 521 251 504 c 1
 299 488 322 455 322 404 c 0
 322 323 261 270 167 270 c 4
 71 270 16 322 16 412 c 1
 78 412 l 1
 81 350 109 323 169 323 c 0
 225 323 259 353 259 404 c 0xd0
 259 440 236 468 201 474 c 0
 186 476 170 476 135 476 c 1
 135 527 l 1
 221 527 245 541 245 588 c 0
 245 630 216 656 169 656 c 0xe0
EndSplineSet
EndChar
StartChar: acute
Encoding: 180 180 115
Width: 333
Flags: W
HStem: 720 20G<188 301>
Fore
188 740 m 1
 301 740 l 1
 152 592 l 1
 92 592 l 1
 188 740 l 1
EndSplineSet
EndChar
StartChar: mu
Encoding: 181 181 116
Width: 556
Flags: W
HStem: -23 73<220 298.5> 504 20G<65 148 398 481>
VStem: 65 83<-220 524> 398 83<74.5 524>
Fore
544 49 m 1
 544 -14 l 1
 518 -21 505 -23 487 -23 c 0
 430 -23 403 3 401 60 c 1
 362 5 306 -23 238 -23 c 0
 202 -23 173 -15 148 3 c 1
 148 -220 l 1
 65 -220 l 1
 65 524 l 1
 148 524 l 1
 148 153 l 2
 148 90 190 50 255 50 c 0
 342 50 398 120 398 227 c 2
 398 524 l 1
 481 524 l 1
 481 88 l 2
 481 61 497 47 526 47 c 0
 530 47 534 47 544 49 c 1
EndSplineSet
EndChar
StartChar: paragraph
Encoding: 182 182 117
Width: 537
Flags: W
HStem: 665 64<272 522>
VStem: 48 271<429.5 665> 255 64<-177 259> 401 64<-177 665>
Fore
255 259 m 1xb0
 120 266 48 370 48 489 c 0
 48 624 146 729 272 729 c 2
 522 729 l 1
 522 665 l 1
 465 665 l 1
 465 -177 l 1
 401 -177 l 1
 401 665 l 1
 319 665 l 1xd0
 319 -177 l 1
 255 -177 l 1
 255 259 l 1xb0
EndSplineSet
EndChar
StartChar: periodcentered
Encoding: 183 183 118
Width: 278
Flags: W
Fore
211 427 m 1
 211 302 l 1
 87 302 l 1
 87 427 l 1
 211 427 l 1
EndSplineSet
EndChar
StartChar: cedilla
Encoding: 184 184 119
Width: 333
Flags: W
HStem: -214 41<139.5 202> -91 91<160 180.5>
VStem: 212 75<-149.5 -99.5>
Fore
60 -140 m 1
 99 -157 121 -173 158 -173 c 0
 189 -173 212 -154 212 -128 c 0
 212 -105 195 -91 166 -91 c 0
 154 -91 147 -93 135 -99 c 1
 123 -92 l 1
 165 0 l 1
 203 0 l 1
 180 -56 l 1
 193 -54 200 -54 208 -54 c 0
 258 -54 287 -78 287 -121 c 0
 287 -178 240 -214 164 -214 c 0
 125 -214 101 -207 39 -180 c 1
 60 -140 l 1
EndSplineSet
EndChar
StartChar: onesuperior
Encoding: 185 185 120
Width: 351
Flags: W
HStem: 689 20G<179 222>
VStem: 160 62<284 709>
Fore
160 580 m 1
 61 580 l 1
 61 626 l 1
 76 627 l 2
 148 634 162 645 179 709 c 1
 222 709 l 1
 222 284 l 1
 160 284 l 1
 160 580 l 1
EndSplineSet
EndChar
StartChar: ordmasculine
Encoding: 186 186 121
Width: 365
Flags: W
HStem: 303 51<51 314> 399 52<137 226.5> 690 52<137 227.5>
VStem: 40 58<516.5 625> 266 58<515 624>
Fore
314 354 m 1
 314 303 l 1
 51 303 l 1
 51 354 l 1
 314 354 l 1
182 742 m 0
 273 742 324 680 324 568 c 0
 324 462 271 399 182 399 c 0
 92 399 40 462 40 571 c 0
 40 679 92 742 182 742 c 0
182 690 m 0
 130 690 98 645 98 571 c 0
 98 496 130 451 182 451 c 0
 234 451 266 496 266 569 c 0
 266 645 235 690 182 690 c 0
EndSplineSet
EndChar
StartChar: guillemotright
Encoding: 187 187 122
Width: 556
Flags: W
Fore
252 317 m 1
 252 228 l 1
 98 106 l 1
 98 189 l 1
 206 272 l 1
 98 355 l 1
 98 438 l 1
 252 317 l 1
451 317 m 1
 451 228 l 1
 297 106 l 1
 297 189 l 1
 405 272 l 1
 297 355 l 1
 297 438 l 1
 451 317 l 1
EndSplineSet
KernsSLIFO: 57 -133 3 0 55 -66 3 0 54 -93 3 0 52 -126 3 0 132 -50 3 0 131 -50 3 0 128 -50 3 0 133 -54 3 0 33 -50 3 0
EndChar
StartChar: onequarter
Encoding: 188 188 123
Width: 869
Flags: W
HStem: -20 21G<191 249> 100 53<532 720 782 849> 689 20G<179 222 643 701>
VStem: 160 62<284 709> 720 62<0 100 153 425>
Fore
160 580 m 1
 61 580 l 1
 61 626 l 1
 76 627 l 2
 148 634 162 645 179 709 c 1
 222 709 l 1
 222 284 l 1
 160 284 l 1
 160 580 l 1
643 709 m 1
 701 709 l 1
 249 -20 l 1
 191 -20 l 1
 643 709 l 1
720 100 m 1
 532 100 l 1
 532 159 l 1
 736 425 l 1
 782 425 l 1
 782 153 l 1
 849 153 l 1
 849 100 l 1
 782 100 l 1
 782 0 l 1
 720 0 l 1
 720 100 l 1
720 153 m 1
 720 323 l 1
 591 153 l 1
 720 153 l 1
EndSplineSet
EndChar
StartChar: onehalf
Encoding: 189 189 124
Width: 869
Flags: W
HStem: 0 58<537 841> 372 53<648.5 741> 689 20G<179 222 619 677>
VStem: 160 62<284 709> 781 63<272.5 336>
Fore
160 580 m 1
 61 580 l 1
 61 626 l 1
 76 627 l 2
 148 634 162 645 179 709 c 1
 222 709 l 1
 222 284 l 1
 160 284 l 1
 160 580 l 1
619 709 m 1
 677 709 l 1
 225 -20 l 1
 167 -20 l 1
 619 709 l 1
696 372 m 0
 622 372 612 316 609 273 c 1
 547 273 l 1
 550 376 599 425 698 425 c 0
 784 425 844 373 844 299 c 0
 844 246 811 201 748 170 c 2
 685 138 l 2
 642 115 624 96 612 58 c 1
 841 58 l 1
 841 0 l 1
 537 0 l 1
 542 97 568 136 664 187 c 2
 722 218 l 2
 761 239 781 266 781 297 c 0
 781 340 744 372 696 372 c 0
EndSplineSet
EndChar
StartChar: threequarters
Encoding: 190 190 125
Width: 869
Flags: W
HStem: -20 21G<201 259> 100 53<532 720 782 849> 270 53<119 214> 656 53<122.5 212>
VStem: 245 63<564.5 626> 259 63<363.5 429.5> 720 62<0 100 153 425>
Fore
169 656 m 0xfa
 103 656 88 620 88 567 c 1
 25 567 l 1
 27 661 76 709 169 709 c 0
 255 709 308 663 308 589 c 0xfa
 308 550 288 521 251 504 c 1
 299 488 322 455 322 404 c 0
 322 323 261 270 167 270 c 0
 71 270 16 322 16 412 c 1
 78 412 l 1
 81 350 109 323 169 323 c 0
 225 323 259 353 259 404 c 0xf6
 259 440 236 468 201 474 c 0
 186 476 170 476 135 476 c 1
 135 527 l 1
 221 527 245 541 245 588 c 0
 245 630 216 656 169 656 c 0xfa
653 709 m 1
 711 709 l 1
 259 -20 l 1xf6
 201 -20 l 1
 653 709 l 1
720 100 m 1
 532 100 l 1
 532 159 l 1
 736 425 l 1
 782 425 l 1
 782 153 l 1
 849 153 l 1
 849 100 l 1
 782 100 l 1
 782 0 l 1
 720 0 l 1
 720 100 l 1
720 153 m 1
 720 323 l 1
 591 153 l 1
 720 153 l 1
EndSplineSet
EndChar
StartChar: AE
Encoding: 198 198 133
Width: 1000
Flags: W
HStem: 0 82<468 950> 214 82<199 468> 332 82<561 913> 647 82<310 932>
VStem: 468 93<0 647>
AnchorPoint: "below" 618 0 basechar 0
AnchorPoint: "above" 618 737 basechar 0
Fore
468 214 m 1
 199 214 l 1
 114 0 l 1
 11 0 l 1
 310 729 l 1
 932 729 l 1
 932 647 l 1
 561 647 l 1
 561 414 l 1
 913 414 l 1
 913 332 l 1
 561 332 l 1
 561 82 l 1
 950 82 l 1
 950 0 l 1
 468 0 l 1
 468 214 l 1
468 296 m 1
 468 647 l 1
 368 647 l 1
 230 296 l 1
 468 296 l 1
EndSplineSet
EndChar
StartChar: Ccedilla
Encoding: 199 199 134
Width: 722
Flags: W
HStem: -214 41<324.5 388> -91 37<346 419> -23 81<305.5 467> 659 82<248 461>
VStem: 48 93<265.5 450.5> 398 75<-149.5 -99.5>
Fore
378 58 m 0
 500 58 558 125 581 266 c 1
 677 266 l 1
 655 75 555 -23 379 -23 c 1
 366 -56 l 1
 379 -54 386 -54 394 -54 c 0
 444 -54 473 -78 473 -121 c 0
 473 -178 426 -214 350 -214 c 0
 312 -214 286 -207 225 -180 c 1
 246 -140 l 1
 278 -154 305 -173 344 -173 c 0
 375 -173 398 -154 398 -128 c 0
 398 -105 381 -91 352 -91 c 0
 340 -91 333 -93 321 -99 c 1
 310 -92 l 1
 341 -23 l 1
 265 -12 235 -1 192 29 c 0
 101 94 48 214 48 356 c 0
 48 508 115 741 381 741 c 0
 541 741 633 663 662 503 c 1
 567 503 l 1
 547 602 492 659 371 659 c 0
 229 659 141 544 141 357 c 0
 141 174 233 58 378 58 c 0
EndSplineSet
KernsSLIFO: 33 -31 0 0
EndChar
StartChar: Eth
Encoding: 208 208 143
Width: 722
Flags: W
HStem: 0 82<89 463> 339 67<20 89 182 353> 647 82<89 463>
VStem: 89 93<0 339 406 729> 574 93<251.5 478>
Fore
89 339 m 5
 20 339 l 5
 20 406 l 5
 89 406 l 5
 89 729 l 1
 371 729 l 2
 555 729 667 591 667 365 c 0
 667 138 555 0 371 0 c 2
 89 0 l 1
 89 339 l 5
182 339 m 5
 182 82 l 1
 355 82 l 2
 498 82 574 179 574 365 c 0
 574 550 498 647 355 647 c 2
 182 647 l 1
 182 406 l 5
 353 406 l 5
 353 339 l 5
 182 339 l 5
EndSplineSet
EndChar
StartChar: multiply
Encoding: 215 215 150
Width: 584
Flags: W
Fore
438 427 m 1
 487 377 l 1
 341 231 l 1
 488 84 l 1
 438 34 l 1
 291 181 l 1
 145 35 l 1
 95 84 l 1
 242 231 l 1
 96 377 l 1
 145 426 l 1
 291 281 l 1
 438 427 l 1
EndSplineSet
EndChar
StartChar: Oslash
Encoding: 216 216 151
Width: 778
Flags: W
HStem: -23 82<338.5 492> 659 82<282 432.5>
VStem: 35 93<311.5 473.5> 646 93<244.5 409>
AnchorPoint: "above" 390 729 basechar 0
Fore
30 19 m 1
 111 108 l 1
 61 178 35 263 35 360 c 0
 35 587 177 741 387 741 c 0
 478 741 555 714 617 660 c 1
 704 755 l 1
 744 719 l 1
 655 622 l 1
 709 554 739 460 739 358 c 0
 739 131 597 -23 387 -23 c 0
 290 -23 212 6 146 67 c 1
 69 -17 l 1
 30 19 l 1
174 176 m 1
 558 595 l 1
 510 637 452 659 387 659 c 0
 232 659 128 539 128 360 c 0
 128 291 144 228 174 176 c 1
593 554 m 1
 206 133 l 1
 255 84 316 59 387 59 c 0
 542 59 646 179 646 358 c 0
 646 433 628 500 593 554 c 1
EndSplineSet
KernsSLIFO: 33 -33 0 0
EndChar
StartChar: Thorn
Encoding: 222 222 157
Width: 666
Flags: W
HStem: 0 21G<91 184> 189 82<184 413> 527 82<184 392> 709 20G<91 184>
VStem: 91 93<0 729> 516 100<336 463>
Fore
184 189 m 1
 184 0 l 1
 91 0 l 1
 91 729 l 1
 184 729 l 1
 184 609 l 1
 392 609 l 2
 531 609 616 529 616 397 c 0
 616 275 532 189 413 189 c 2
 184 189 l 1
184 271 m 1
 378 271 l 2
 465 271 516 319 516 399 c 0
 516 479 465 527 378 527 c 2
 184 527 l 1
 184 271 l 1
EndSplineSet
EndChar
StartChar: germandbls
Encoding: 223 223 158
Width: 611
Flags: W
HStem: -15 79<303 390.5> 354 73<294 361> 652 76<223 372>
VStem: 67 88<0 589.5> 449 88<499.5 602.5> 480 91<145.5 266.5>
AnchorPoint: "below" 314 0 basechar 0
AnchorPoint: "above" 307 729 basechar 0
Fore
294 427 m 1xf4
 414 427 449 481 449 540 c 0
 449 605 398 652 297 652 c 0
 184 652 155 595 155 510 c 2
 155 0 l 1
 67 0 l 1
 67 532 l 2
 67 647 148 728 298 728 c 0
 446 728 537 657 537 548 c 0xf8
 537 451 478 415 455 400 c 1
 529 380 571 294 571 234 c 0
 571 57 462 -15 319 -15 c 0
 290 -15 280 -11 266 -8 c 1
 266 67 l 1
 281 65 296 64 310 64 c 0
 419 64 480 113 480 214 c 0
 480 319 412 354 310 354 c 2
 294 354 l 1
 294 427 l 1xf4
EndSplineSet
EndChar
StartChar: ae
Encoding: 230 230 165
Width: 889
Flags: W
HStem: -23 73<151 274.5> 234 68<459 845> 462 77<219.5 307.5 569 661.5>
VStem: 34 87<85 197.5> 381 78<146 234> 755 90<234 349.5>
AnchorPoint: "below" 436 0 basechar 0
AnchorPoint: "above" 436 538 basechar 0
Fore
459 234 m 1
 462 88 551 54 613 54 c 0
 680 54 727 90 751 159 c 1
 835 159 l 1
 814 45 730 -23 612 -23 c 0
 535 -23 469 8 434 60 c 0
 429 68 425 75 418 87 c 1
 343 9 280 -23 202 -23 c 0
 100 -23 34 38 34 132 c 0
 34 263 141 290 294 303 c 0
 362 309 381 323 381 362 c 2
 381 384 l 2
 381 435 340 462 263 462 c 0
 186 462 148 433 141 369 c 1
 57 369 l 1
 62 511 174 539 265 539 c 0
 350 539 409 511 440 457 c 1
 476 508 541 539 613 539 c 0
 710 539 790 486 824 401 c 0
 839 362 845 314 845 234 c 1
 459 234 l 1
221 50 m 0
 328 50 381 135 381 157 c 2
 381 258 l 1
 282 215 121 249 121 134 c 0
 121 82 159 50 221 50 c 0
461 302 m 1
 755 302 l 1
 755 397 696 462 611 462 c 0
 527 462 468 399 461 302 c 1
EndSplineSet
KernsSLIFO: 89 -20 0 0 87 -10 0 0 86 -16 0 0
EndChar
StartChar: ccedilla
Encoding: 231 231 166
Width: 500
Flags: W
HStem: -214 41<209 273> -91 37<231 304> -23 76<219 325.5> 462 77<193.5 324>
VStem: 31 87<190 340> 283 75<-149.5 -100>
Fore
225 -21 m 1
 37 14 31 204 31 253 c 0
 31 427 123 539 264 539 c 0
 384 539 461 473 471 348 c 1
 387 348 l 1
 377 421 333 462 263 462 c 0
 172 462 118 384 118 252 c 0
 118 128 173 53 265 53 c 0
 336 53 379 96 393 180 c 1
 477 180 l 1
 470 55 387 -23 264 -23 c 1
 251 -56 l 1
 265 -54 271 -54 279 -54 c 0
 329 -54 358 -79 358 -121 c 0
 358 -178 311 -214 235 -214 c 0
 196 -214 174 -208 110 -181 c 1
 131 -140 l 1
 163 -154 189 -173 229 -173 c 0
 260 -173 283 -154 283 -128 c 0
 283 -105 266 -91 237 -91 c 0
 225 -91 218 -93 206 -99 c 1
 194 -92 l 1
 225 -21 l 1
EndSplineSet
EndChar
StartChar: eth
Encoding: 240 240 175
Width: 556
Flags: W
HStem: -23 77<197.5 348.5> 462 75<210.5 320>
VStem: 36 87<168.5 369.5> 423 87<169 368>
Fore
36 258 m 0
 36 481 167 537 254 537 c 0
 273 537 287 534 317 524 c 1
 282 559 271 569 219 613 c 1
 122 568 l 1
 86 607 l 1
 171 647 l 1
 145 667 132 675 89 699 c 1
 133 743 l 1
 164 730 177 723 244 680 c 1
 341 725 l 1
 381 688 l 1
 291 647 l 1
 362 593 510 477 510 259 c 0
 510 79 424 -23 273 -23 c 0
 122 -23 36 79 36 258 c 0
273 462 m 0
 180 462 123 384 123 258 c 0
 123 132 180 54 273 54 c 0
 365 54 423 132 423 255 c 0
 423 385 367 462 273 462 c 0
EndSplineSet
EndChar
StartChar: divide
Encoding: 247 247 182
Width: 584
Flags: W
HStem: 0 21G<240 344> 201 70<50 534>
Fore
534 271 m 1
 534 201 l 1
 50 201 l 1
 50 271 l 1
 534 271 l 1
344 104 m 1
 344 0 l 1
 240 0 l 1
 240 104 l 1
 344 104 l 1
344 472 m 1
 344 368 l 1
 240 368 l 1
 240 472 l 1
 344 472 l 1
EndSplineSet
EndChar
StartChar: oslash
Encoding: 248 248 183
Width: 611
Flags: W
HStem: -23 77<240.5 348> 462 77<199 307.5>
VStem: 36 87<219 346> 423 87<170 296>
Fore
529 511 m 1
 466 440 l 1
 496 390 510 334 510 258 c 0
 510 82 422 -23 274 -23 c 0
 207 -23 151 -2 111 39 c 1
 50 -30 l 1
 18 -2 l 1
 84 72 l 1
 51 121 36 180 36 258 c 0
 36 434 125 539 273 539 c 0
 342 539 394 519 439 474 c 1
 497 539 l 1
 529 511 l 1
405 371 m 1
 167 102 l 1
 196 70 231 54 273 54 c 0
 366 54 423 132 423 258 c 0
 423 302 417 340 405 371 c 1
144 141 m 1
 383 410 l 1
 357 443 317 462 273 462 c 0
 180 462 123 384 123 258 c 0
 123 211 130 174 144 141 c 1
EndSplineSet
EndChar
StartChar: thorn
Encoding: 254 254 189
Width: 555
Flags: W
HStem: -23 78<239 365.5> 461 78<239 366>
VStem: 54 83<-218 714> 435 87<169.5 340>
Fore
54 -218 m 1
 54 714 l 1
 137 714 l 1
 137 459 l 1
 173 510 231 539 298 539 c 0
 434 539 522 427 522 253 c 0
 522 86 433 -23 298 -23 c 0
 230 -23 181 1 137 55 c 1
 137 -218 l 1
 54 -218 l 1
283 461 m 0
 195 461 137 381 137 258 c 0
 137 135 195 55 283 55 c 0
 374 55 435 136 435 255 c 0
 435 380 375 461 283 461 c 0
EndSplineSet
EndChar
StartChar: aogonek
Encoding: 261 261 196
Width: 556
Flags: W
HStem: -205 45<499 544.5> -23 73<162 281.5> 462 77<229 340.5>
VStem: 43 86<84.5 203> 388 72<-147.5 -85.5> 389 84<75 259>
Fore
67 369 m 1xf8
 72 511 182 539 276 539 c 0
 405 539 473 489 473 396 c 2
 473 88 l 2xf4
 473 62 489 47 518 47 c 0
 523 47 527 47 536 49 c 1
 536 -14 l 1
 488 -33 460 -66 460 -105 c 0
 460 -141 485 -160 532 -160 c 0
 557 -160 578 -157 596 -150 c 1
 596 -195 l 1
 571 -201 541 -205 525 -205 c 0
 473 -205 388 -183 388 -112 c 0
 388 -74 406 -50 456 -23 c 1
 418 -16 397 10 393 54 c 1
 337 1 281 -23 215 -23 c 0
 109 -23 43 37 43 132 c 0
 43 274 163 286 304 304 c 0
 369 312 390 326 390 362 c 2
 390 384 l 2
 390 435 349 462 273 462 c 0
 195 462 157 433 151 369 c 1
 67 369 l 1xf8
232 50 m 0
 331 50 389 115 389 165 c 2
 389 259 l 1
 304 220 129 249 129 134 c 0
 129 81 167 50 232 50 c 0
EndSplineSet
EndChar
StartChar: dcaron
Encoding: 271 271 206
Width: 722
Flags: W
HStem: -23 78<183.5 310> 461 78<183 310> 605 20<585 645> 709 20<412 495>
VStem: 26 87<174.5 346.5> 412 83<195.5 318.5 458 729> 421 74<0 69> 645 45<566 625>
Back
495 729 m 1
 495 0 l 1
 421 0 l 1
 421 69 l 1
 376 4 326 -23 254 -23 c 0
 113 -23 26 86 26 263 c 0
 26 430 115 539 251 539 c 0
 321 539 377 511 412 458 c 1
 412 729 l 1
 495 729 l 1
265 461 m 0
 174 461 113 380 113 258 c 128
 113 136 174 55 266 55 c 0
 354 55 412 135 412 256 c 0
 412 381 355 461 265 461 c 0
548 729 m 1
 648 729 l 1
 648 626 l 2
 648 556 610 505 556 505 c 2
 548 505 l 1
 548 543 l 1
 586 543 605 574 603 629 c 1
 548 629 l 1
 548 729 l 1
EndSplineSet
Refer: 12 44 N 1 0 0 1 498 625 0
Refer: 68 100 N 1 0 0 1 0 0 0
EndChar
StartChar: Dcroat
Encoding: 272 272 207
Width: 722
Flags: W
HStem: 0 82<89 463> 339 67<20 89 182 353> 647 82<89 463>
VStem: 89 93<0 339 406 729> 574 93<251.5 478>
Fore
89 339 m 1
 20 339 l 1
 20 406 l 1
 89 406 l 1
 89 729 l 1
 371 729 l 2
 555 729 667 591 667 365 c 0
 667 138 555 0 371 0 c 2
 89 0 l 1
 89 339 l 1
182 339 m 1
 182 82 l 1
 355 82 l 2
 498 82 574 179 574 365 c 0
 574 550 498 647 355 647 c 2
 182 647 l 1
 182 406 l 1
 353 406 l 1
 353 339 l 1
 182 339 l 1
EndSplineSet
EndChar
StartChar: dcroat
Encoding: 273 273 208
Width: 556
Flags: W
HStem: -23 82<184 309> 457 82<182.5 309.5> 600 53<261 411 494 557> 709 20G<411 494>
VStem: 26 87<177.5 347> 411 83<196.5 317.5 461 600 653 729> 420 74<0 59>
Fore
494 653 m 1xfc
 557 653 l 1
 557 600 l 1
 494 600 l 1xfc
 494 0 l 1
 420 0 l 1
 420 59 l 1xfa
 372 3 319 -23 252 -23 c 0
 116 -23 26 91 26 264 c 0
 26 430 115 539 250 539 c 0
 318 539 367 515 411 461 c 1
 411 600 l 1
 261 600 l 1
 261 653 l 1
 411 653 l 1
 411 729 l 1
 494 729 l 1
 494 653 l 1xfc
265 457 m 0
 174 457 113 377 113 258 c 0
 113 139 174 59 265 59 c 0
 353 59 411 137 411 256 c 0
 411 379 354 457 265 457 c 0
EndSplineSet
EndChar
StartChar: eogonek
Encoding: 281 281 216
Width: 556
Flags: W
HStem: -204 44<376 435.5> -23 77<204.5 314.5> 234 68<127 513> 462 77<207 329>
VStem: 40 473<167.5 340.5> 279 72<-142.5 -57>
Fore
503 159 m 1xf8
 476 11 351 -5 351 -109 c 0
 351 -141 378 -160 423 -160 c 0
 448 -160 469 -157 487 -150 c 1
 487 -195 l 1
 460 -201 440 -204 418 -204 c 0
 334 -204 279 -169 279 -116 c 0
 279 -59 330 -28 347 -15 c 1
 317 -21 302 -23 279 -23 c 0xf4
 130 -23 40 81 40 254 c 0
 40 427 134 539 280 539 c 0
 378 539 459 487 492 401 c 0
 506 365 513 320 513 249 c 0
 513 234 l 1
 127 234 l 1
 130 88 221 54 281 54 c 0
 348 54 395 90 419 159 c 1
 503 159 l 1xf8
424 302 m 1
 424 308 l 2
 424 394 361 462 279 462 c 0
 195 462 136 399 130 302 c 1
 424 302 l 1
EndSplineSet
EndChar
StartChar: Hbar
Encoding: 294 294 229
Width: 722
Flags: W
HStem: 0 21G<83 177 551 644> 332 82<176 551> 504 72<176 551> 709 20G<83 176 551 644>
VStem: 83 94<0 332> 551 93<0 506 576 729>
Fore
176 504 m 5
 176 414 l 1
 551 414 l 1
 551 504 l 5
 176 504 l 5
83 576 m 5
 83 729 l 1
 176 729 l 1
 176 576 l 5
 551 576 l 5
 551 729 l 1
 644 729 l 1
 644 576 l 5
 688 576 l 5
 688 506 l 5
 644 506 l 5
 644 0 l 1
 551 0 l 1
 551 332 l 1
 177 332 l 1
 177 0 l 1
 83 0 l 1
 83 506 l 5
 39 506 l 5
 39 576 l 5
 83 576 l 5
EndSplineSet
EndChar
StartChar: hbar
Encoding: 295 295 230
Width: 556
Flags: W
HStem: 0 21G<70 153 403 486> 466 73<252 372> 600 53<7 70 153 303> 709 20G<70 153>
VStem: 70 83<0 600 653 729> 403 83<0 440>
Fore
403 363 m 2
 403 445 338 466 295 466 c 0
 209 466 153 396 153 289 c 2
 153 0 l 1
 70 0 l 1
 70 600 l 5
 7 600 l 5
 7 653 l 5
 70 653 l 5
 70 729 l 1
 153 729 l 1
 153 653 l 5
 303 653 l 5
 303 600 l 5
 153 600 l 5
 153 452 l 1
 202 516 247 539 321 539 c 0
 423 539 486 484 486 396 c 2
 486 0 l 1
 403 0 l 1
 403 363 l 2
EndSplineSet
EndChar
StartChar: dotlessi
Encoding: 305 305 240
Width: 278
Flags: W
HStem: 0 21G<94 177> 504 20G<94 177>
VStem: 94 83<0 524>
AnchorPoint: "above" 135 538 basechar 0
Fore
177 524 m 1
 177 0 l 1
 94 0 l 1
 94 524 l 1
 177 524 l 1
EndSplineSet
EndChar
StartChar: kgreenlandic
Encoding: 312 312 247
Width: 500
Flags: W
HStem: 0 21G<58 141 399 502> 504 20G<58 141 363 470>
VStem: 58 83<0 524>
Fore
141 524 m 1
 141 302 l 1
 363 524 l 1
 470 524 l 1
 198 264 l 1
 502 0 l 1
 399 0 l 1
 141 216 l 1
 141 0 l 1
 58 0 l 1
 58 524 l 1
 141 524 l 1
EndSplineSet
EndChar
StartChar: Lslash
Encoding: 321 321 256
Width: 556
Flags: W
HStem: 0 82<80 552> 709 20G<80 173>
VStem: 80 93<0 329 356 729>
Fore
173 406 m 5
 344 527 l 5
 344 451 l 5
 173 329 l 5
 173 82 l 1
 552 82 l 1
 552 0 l 1
 80 0 l 1
 80 280 l 5
 0 223 l 5
 0 300 l 5
 80 356 l 5
 80 729 l 1
 173 729 l 1
 173 406 l 5
EndSplineSet
EndChar
StartChar: lslash
Encoding: 322 322 257
Width: 222
Flags: W
HStem: 0 21G<63 146> 709 20G<63 146>
VStem: 63 83<0 357 377 729>
Fore
146 421 m 1
 212 472 l 1
 212 408 l 1
 146 357 l 1
 146 0 l 1
 63 0 l 1
 63 313 l 1
 0 263 l 1
 0 327 l 1
 63 377 l 1
 63 729 l 1
 146 729 l 1
 146 421 l 1
EndSplineSet
EndChar
StartChar: Eng
Encoding: 330 330 265
Width: 722
Flags: W
HStem: -218 83<488.5 545> 0 21G<76 164> 709 20G<76 177 558 646>
VStem: 76 88<0 729> 558 88<-144.5 729>
Fore
558 133 m 1
 558 729 l 1
 646 729 l 1
 646 -109 l 2
 646 -180 592 -218 498 -218 c 0
 485 -218 480 -217 470 -215 c 1
 470 -134 l 1
 487 -135 487 -135 490 -135 c 0
 534 -136 558 -120 558 -76 c 2
 558 -27 l 1
 164 591 l 1
 164 0 l 1
 76 0 l 1
 76 729 l 1
 177 729 l 1
 558 133 l 1
EndSplineSet
EndChar
StartChar: eng
Encoding: 331 331 266
Width: 556
Flags: W
HStem: -218 73<334.5 391> 0 21G<70 154> 466 73<253 371.5>
VStem: 70 77<436 524> 70 84<0 342.5> 404 83<-109 439.5>
Fore
487 396 m 2xf4
 487 -109 l 2
 487 -180 438 -218 344 -218 c 0
 331 -218 326 -217 316 -215 c 1
 316 -144 l 1
 333 -145 333 -145 336 -145 c 0
 387 -145 404 -128 404 -76 c 2
 404 363 l 2
 404 426 362 466 296 466 c 0
 210 466 154 396 154 289 c 2
 154 0 l 1
 70 0 l 1xec
 70 524 l 1
 147 524 l 1
 147 436 l 1
 193 509 243 539 321 539 c 0
 422 539 487 483 487 396 c 2xf4
EndSplineSet
EndChar
StartChar: OE
Encoding: 338 338 273
Width: 1000
Flags: W
HStem: -20 82<279.5 383> 0 82<525 959> 327 82<618 946> 647 82<525 954> 659 82<281.5 384>
VStem: 43 93<205.5 510> 525 93<182 539>
AnchorPoint: "below" 571 0 basechar 0
AnchorPoint: "above" 571 729 basechar 0
Fore
43 356 m 0xa6
 43 664 221 741 342 741 c 0xae
 424 741 483 713 525 653 c 1
 525 729 l 1
 954 729 l 1
 954 647 l 1
 618 647 l 1
 618 409 l 1
 946 409 l 1
 946 327 l 1
 618 327 l 1
 618 82 l 1
 959 82 l 1
 959 0 l 1
 525 0 l 1x76
 525 74 l 1
 479 9 422 -20 341 -20 c 0
 218 -20 43 55 43 356 c 0xa6
136 360 m 0
 136 107 253 62 341 62 c 0
 425 62 485 101 525 182 c 1
 525 539 l 1
 485 620 426 659 342 659 c 0
 249 659 136 610 136 360 c 0
EndSplineSet
EndChar
StartChar: oe
Encoding: 339 339 274
Width: 944
Flags: W
HStem: -23 77<201.5 323 622.5 724.5> 234 68<513 899> 462 77<201.5 324 623 715>
VStem: 40 87<169 348.5> 809 90<234 349.5>
AnchorPoint: "below" 474 0 basechar 0
AnchorPoint: "above" 474 538 basechar 0
Fore
513 234 m 1
 516 88 605 54 667 54 c 0
 734 54 781 90 804 159 c 1
 888 159 l 1
 867 45 784 -23 665 -23 c 0
 580 -23 511 14 471 80 c 1
 429 11 365 -23 277 -23 c 0
 126 -23 40 79 40 259 c 0
 40 438 126 539 277 539 c 0
 366 539 433 503 473 433 c 1
 514 500 585 539 666 539 c 0
 764 539 844 487 878 401 c 0
 893 362 899 314 899 234 c 1
 513 234 l 1
277 462 m 0
 184 462 127 385 127 259 c 0
 127 131 184 54 277 54 c 0
 369 54 427 131 427 256 c 0
 427 385 371 462 277 462 c 0
515 302 m 1
 809 302 l 1
 809 397 750 462 665 462 c 0
 581 462 522 399 515 302 c 1
EndSplineSet
EndChar
StartChar: Scedilla
Encoding: 350 350 285
Width: 667
Flags: W
HStem: -214 41<278.5 342> -91 37<300.5 373> -24 83<259.5 421> 663 78<249 413>
VStem: 48 88<164.5 232> 70 93<482.5 593> 352 75<-149.5 -99.5> 528 93<152.5 245>
Fore
342 59 m 0xfb
 500 59 528 139 528 191 c 0
 528 248 486 285 394 309 c 2
 213 357 l 2
 117 382 70 438 70 527 c 0
 70 659 169 741 329 741 c 0
 497 741 595 658 596 515 c 1
 508 515 l 1
 507 610 442 663 326 663 c 0
 228 663 163 614 163 540 c 0xf7
 163 484 195 456 283 432 c 2
 466 383 l 2
 565 356 621 290 621 200 c 0
 621 105 571 -14 335 -24 c 1
 320 -56 l 1
 334 -54 340 -54 348 -54 c 0
 398 -54 427 -78 427 -121 c 0
 427 -178 380 -214 304 -214 c 0
 266 -214 241 -207 179 -180 c 1
 200 -140 l 1
 232 -154 259 -173 298 -173 c 0
 329 -173 352 -154 352 -128 c 0
 352 -105 335 -91 306 -91 c 0
 295 -91 287 -93 275 -98 c 1
 264 -92 l 1
 295 -23 l 1
 289 -21 285 -20 284 -20 c 2
 240 -13 l 1
 121 12 48 104 48 225 c 0
 48 227 48 230 48 232 c 1
 136 232 l 1
 136 230 136 229 136 227 c 0
 136 153 177 59 342 59 c 0xfb
EndSplineSet
EndChar
StartChar: scedilla
Encoding: 351 351 286
Width: 500
Flags: W
HStem: -214 41<188.5 252> -91 37<210 283> 462 77<187 308.5>
VStem: 47 87<338 427.5> 262 75<-149.5 -99.5> 372 87<111.5 182>
Fore
122 156 m 1
 129 105 148 54 250 54 c 0
 323 54 372 87 372 136 c 0
 372 174 349 195 291 209 c 2
 213 228 l 2
 89 258 47 297 47 379 c 0
 47 476 126 539 248 539 c 0
 369 539 437 481 438 378 c 1
 350 378 l 1
 348 433 312 462 245 462 c 0
 177 462 134 431 134 383 c 0
 134 346 163 324 231 308 c 2
 311 289 l 2
 415 264 459 221 459 143 c 0
 459 81 422 25 361 -2 c 0
 334 -14 304 -20 244 -24 c 1
 230 -56 l 1
 244 -54 250 -54 258 -54 c 0
 308 -54 337 -78 337 -121 c 0
 337 -178 290 -214 214 -214 c 0
 176 -214 151 -207 89 -180 c 1
 110 -140 l 1
 142 -154 169 -173 208 -173 c 0
 239 -173 262 -154 262 -128 c 0
 262 -105 245 -91 216 -91 c 0
 204 -91 197 -93 185 -98 c 1
 174 -92 l 1
 205 -21 l 1
 93 -10 36 48 34 156 c 1
 122 156 l 1
EndSplineSet
EndChar
StartChar: Tbar
Encoding: 358 358 293
Width: 611
Flags: W
HStem: 0 21G<261 354> 357 72<120 495> 647 82<21 593>
VStem: 261 93<0 647>
Fore
120 357 m 13
 120 429 l 21
 495 429 l 13
 495 357 l 21
 120 357 l 13
354 647 m 1
 354 0 l 1
 261 0 l 1
 261 647 l 1
 21 647 l 1
 21 729 l 1
 593 729 l 1
 593 647 l 1
 354 647 l 1
EndSplineSet
EndChar
StartChar: tbar
Encoding: 359 359 294
Width: 278
Flags: W
HStem: -23 73<153.5 222> 240 72<9 247> 456 68<14 85 168 254>
VStem: 85 83<60 456 524 668>
Fore
9 312 m 1
 247 312 l 1
 247 240 l 1
 9 240 l 1
 9 312 l 1
254 524 m 1
 254 456 l 1
 168 456 l 1
 168 97 l 2
 168 60 178 50 214 50 c 0
 230 50 243 51 254 54 c 1
 254 -16 l 1
 226 -21 206 -23 186 -23 c 0
 121 -23 85 7 85 60 c 2
 85 456 l 1
 14 456 l 1
 14 524 l 1
 85 524 l 1
 85 668 l 1
 168 668 l 1
 168 524 l 1
 254 524 l 1
EndSplineSet
EndChar
StartChar: Uogonek
Encoding: 370 370 305
Width: 722
Flags: W
HStem: -205 45<490 551> -23 82<279 422.5> 709 20G<85 178 552 645>
VStem: 85 93<142.5 729> 394 73<-140 -56.5> 552 93<123 729>
Fore
527 -205 m 0
 453 -205 394 -168 394 -112 c 0
 394 -71 415 -42 467 -10 c 1
 423 -20 402 -23 366 -23 c 0
 192 -23 85 68 85 217 c 2
 85 729 l 1
 178 729 l 1
 178 217 l 2
 178 107 257 59 364 59 c 0
 481 59 552 119 552 217 c 2
 552 729 l 1
 645 729 l 1
 645 217 l 2
 645 29 467 -7 467 -106 c 0
 467 -141 492 -160 539 -160 c 0
 563 -160 584 -157 602 -150 c 1
 602 -195 l 1
 578 -200 545 -205 527 -205 c 0
EndSplineSet
EndChar
StartChar: uogonek
Encoding: 371 371 306
Width: 556
Flags: W
HStem: -204 44<427.5 480> -23 73<181 299.5> 504 20G<65 148 399 482>
VStem: 65 83<76.5 524> 333 72<-139.5 -88.5> 399 83<173.5 524> 407 75<0 73>
Fore
482 524 m 1xf4
 482 0 l 1
 436 -26 405 -69 405 -108 c 0
 405 -140 431 -160 472 -160 c 0
 488 -160 500 -158 521 -150 c 1
 521 -195 l 1
 502 -198 483 -204 469 -204 c 0
 386 -204 333 -168 333 -111 c 0
 333 -68 363 -34 429 0 c 1
 407 0 l 1
 407 73 l 1xfa
 358 4 309 -23 232 -23 c 0
 130 -23 65 33 65 120 c 2
 65 524 l 1
 148 524 l 1
 148 153 l 2
 148 90 190 50 256 50 c 0
 343 50 399 120 399 227 c 2
 399 524 l 1
 482 524 l 1xf4
EndSplineSet
EndChar
StartChar: longs
Encoding: 383 383 318
Width: 278
Flags: W
HStem: 0 21G<88 171> 456 68<18 88> 659 73<172.5 232.5>
VStem: 88 83<0 623.5>
Fore
171 0 m 1
 88 0 l 1
 88 456 l 1
 18 456 l 1
 18 524 l 1
 88 524 l 1
 88 613 l 2
 88 688 134 732 211 732 c 0
 228 732 239 731 258 727 c 1
 258 658 l 1
 239 659 236 659 229 659 c 0
 191 659 171 641 171 606 c 2
 171 0 l 1
EndSplineSet
EndChar
StartChar: uni0180
Encoding: 384 384 319
Width: 556
Flags: W
HStem: -23 82<274 399> 457 82<273.5 400.5> 600 53<26 89 172 322> 709 20G<89 172>
VStem: 89 74<0 59> 89 83<196.5 317.5 461 600 653 729> 470 87<177.5 347>
Fore
89 653 m 1xf6
 89 729 l 1
 172 729 l 1
 172 653 l 1
 322 653 l 1
 322 600 l 1
 172 600 l 1
 172 461 l 1xf6
 216 515 265 539 333 539 c 0
 468 539 557 430 557 264 c 0
 557 91 467 -23 331 -23 c 0
 264 -23 211 3 163 59 c 1
 163 0 l 1
 89 0 l 1xfa
 89 600 l 1
 26 600 l 1
 26 653 l 1
 89 653 l 1xf6
318 457 m 0
 229 457 172 379 172 256 c 0
 172 137 230 59 318 59 c 0
 409 59 470 139 470 258 c 0
 470 377 409 457 318 457 c 0
EndSplineSet
EndChar
StartChar: uni0183
Encoding: 387 387 321
Width: 556
Flags: W
HStem: -23 78<239 364> 461 78<239 368> 656 73<54 445>
VStem: 54 75<0 67> 54 83<196.5 319.5 453 729> 436 87<177 349>
Fore
283 461 m 0xec
 195 461 137 381 137 258 c 0
 137 135 195 55 283 55 c 0
 374 55 436 136 436 255 c 0
 436 380 376 461 283 461 c 0xec
54 0 m 1xf4
 54 729 l 1
 445 729 l 1
 445 656 l 1
 137 656 l 1
 137 453 l 1xec
 176 512 227 539 299 539 c 0
 437 539 523 434 523 264 c 0
 523 90 433 -23 295 -23 c 0
 222 -23 169 6 129 67 c 1
 129 0 l 1
 54 0 l 1xf4
EndSplineSet
EndChar
StartChar: uni0184
Encoding: 388 388 322
Width: 667
Flags: W
HStem: 0 82<79 393> 369 82<172 442.5> 709 20G<79 172>
VStem: 79 93<0 451> 530 93<159.5 267.5>
Fore
172 82 m 1
 384 82 l 2
 470 82 530 144 530 225 c 0
 530 310 471 369 384 369 c 2
 172 369 l 1
 172 82 l 1
79 729 m 1
 172 729 l 1
 172 451 l 1
 337 451 l 2
 548 451 623 355 623 229 c 0
 623 226 l 0
 623 93 525 0 393 0 c 2
 79 0 l 1
 79 451 l 1
 -49 590 l 1
 79 729 l 1
EndSplineSet
EndChar
StartChar: uni0185
Encoding: 389 389 323
Width: 556
Flags: W
HStem: -23 78<239 364> 461 78<239 368> 709 20G<54 137>
VStem: 54 75<0 67> 54 83<196.5 451> 436 87<177 349>
Fore
283 461 m 0xec
 195 461 137 381 137 258 c 0
 137 135 195 55 283 55 c 0
 374 55 436 136 436 255 c 0
 436 380 376 461 283 461 c 0xec
54 729 m 1
 137 729 l 1
 137 453 l 1xec
 176 512 227 539 299 539 c 0
 437 539 523 434 523 264 c 0
 523 90 433 -23 295 -23 c 0
 222 -23 169 6 129 67 c 1
 129 0 l 1
 54 0 l 1xf4
 54 451 l 1
 -39 590 l 1
 54 729 l 1
EndSplineSet
EndChar
StartChar: florin
Encoding: 402 402 324
Width: 278
Flags: W
HStem: -218 73<18.5 75> 456 68<18 88 171 258> 659 73<172.5 232.5>
VStem: 88 83<-109 456 524 613>
Fore
258 524 m 1
 258 456 l 1
 171 456 l 1
 171 -109 l 2
 171 -180 122 -218 28 -218 c 0
 15 -218 10 -217 0 -215 c 1
 0 -144 l 1
 17 -145 17 -145 20 -145 c 0
 71 -145 88 -128 88 -76 c 2
 88 456 l 1
 18 456 l 1
 18 524 l 1
 88 524 l 1
 88 613 l 2
 88 688 134 732 211 732 c 0
 228 732 239 731 258 727 c 1
 258 658 l 1
 239 659 236 659 229 659 c 0
 191 659 171 641 171 606 c 2
 171 524 l 1
 258 524 l 1
EndSplineSet
EndChar
StartChar: uni0193
Encoding: 403 403 325
Width: 778
Flags: W
HStem: -23 82<279.5 464.5> 303 82<405 709> 643 83<711 760.5> 659 82<254 448.5>
VStem: 44 93<245 451.5> 627 82<218 303 385 385>
Fore
137 362 m 0xdc
 137 245 189 59 398 59 c 0
 531 59 627 153 627 283 c 2
 627 303 l 1
 405 303 l 1
 405 385 l 1
 709 385 l 1
 709 -4 l 1
 650 -4 l 1
 627 93 l 1
 556 14 477 -23 378 -23 c 0
 181 -23 44 133 44 357 c 0
 44 503 114 741 394 741 c 0
 491 741 570 712 624 659 c 1xdc
 642 702 683 726 739 726 c 0
 756 726 767 725 786 721 c 1
 786 642 l 1
 767 643 764 643 757 643 c 0xec
 719 643 699 630 699 590 c 2
 699 508 l 1
 604 508 l 1
 584 602 504 659 393 659 c 0
 239 659 137 541 137 362 c 0xdc
EndSplineSet
EndChar
StartChar: uni0199
Encoding: 409 409 326
Width: 500
Flags: W
HStem: 0 21G<58 141 399 502> 504 20G<363 470> 659 73<142.5 202.5>
VStem: 58 83<0 623.5>
Fore
58 0 m 1
 58 613 l 2
 58 688 104 732 181 732 c 0
 198 732 209 731 228 727 c 1
 228 658 l 1
 209 659 206 659 199 659 c 0
 161 659 141 641 141 606 c 2
 141 302 l 1
 363 524 l 1
 470 524 l 1
 288 343 l 1
 502 0 l 1
 399 0 l 1
 222 284 l 1
 141 204 l 1
 141 0 l 1
 58 0 l 1
EndSplineSet
EndChar
StartChar: uni019F
Encoding: 415 415 327
Width: 778
Flags: W
HStem: -23 82<285 499> 315 70<132 648> 659 82<284.5 496>
Fore
742 353 m 0
 742 143 608 -23 390 -23 c 0
 180 -23 38 131 38 359 c 0
 38 587 180 741 389 741 c 0
 603 741 742 588 742 353 c 0
648 385 m 1
 638 552 538 659 389 659 c 0
 243 659 141 550 132 385 c 1
 648 385 l 1
647 315 m 1
 133 315 l 1
 149 160 248 59 390 59 c 0
 532 59 632 161 647 315 c 1
EndSplineSet
EndChar
StartChar: uni01A5
Encoding: 421 421 328
Width: 556
Flags: W
HStem: -23 78<240 366.5> 461 78<240 367.5> 659 73<134.5 192.5>
VStem: 54 77<445 650.5> 54 84<-218 55 196.5 319.5> 436 87<169.5 341>
AnchorPoint: "below" 272 -200 basechar 0
AnchorPoint: "above" 272 538 basechar 0
Fore
284 461 m 0xec
 196 461 138 381 138 258 c 0
 138 135 196 55 284 55 c 0
 375 55 436 136 436 255 c 0
 436 380 376 461 284 461 c 0xec
131 606 m 2xf4
 131 445 l 1xf4
 170 507 227 539 298 539 c 0
 437 539 523 429 523 253 c 0
 523 86 434 -23 299 -23 c 0
 231 -23 182 1 138 55 c 1
 138 -218 l 1
 54 -218 l 1xec
 54 613 l 2
 54 688 96 732 173 732 c 0
 190 732 199 731 218 727 c 1
 218 658 l 1
 199 659 196 659 189 659 c 0
 151 659 131 641 131 606 c 2xf4
EndSplineSet
EndChar
StartChar: uni01A9
Encoding: 425 425 330
Width: 611
Flags: W
HStem: 0 82<28 583> 647 82<30 555>
Fore
247 365 m 1
 30 645 l 1
 30 729 l 1
 555 729 l 1
 555 647 l 1
 145 647 l 1
 364 365 l 25
 145 82 l 1
 583 82 l 1
 583 0 l 1
 28 0 l 1
 28 82 l 1
 247 365 l 1
EndSplineSet
EndChar
StartChar: uni01AD
Encoding: 429 429 331
Width: 278
Flags: W
HStem: -23 73<153.5 222> 456 68<14 85 168 254> 659 73<169.5 229.5>
VStem: 85 83<60 456 524 650.5>
Fore
168 606 m 2
 168 524 l 1
 254 524 l 1
 254 456 l 1
 168 456 l 1
 168 97 l 2
 168 60 178 50 214 50 c 0
 230 50 243 51 254 54 c 1
 254 -16 l 1
 226 -21 206 -23 186 -23 c 0
 121 -23 85 7 85 60 c 2
 85 456 l 1
 14 456 l 1
 14 524 l 1
 85 524 l 1
 85 613 l 2
 85 688 131 732 208 732 c 0
 225 732 236 731 255 727 c 1
 255 658 l 1
 236 659 233 659 226 659 c 0
 188 659 168 641 168 606 c 2
EndSplineSet
EndChar
StartChar: uni01AE
Encoding: 430 430 332
Width: 611
Flags: W
HStem: -218 83<367 423.5> 647 82<21 593>
VStem: 261 93<-144.5 647>
Fore
261 -109 m 2
 261 647 l 1
 21 647 l 1
 21 729 l 1
 593 729 l 1
 593 647 l 1
 354 647 l 1
 354 -76 l 2
 354 -120 381 -135 422 -135 c 0
 425 -135 425 -135 442 -134 c 1
 442 -215 l 1
 432 -217 427 -218 414 -218 c 0
 320 -218 261 -180 261 -109 c 2
EndSplineSet
EndChar
StartChar: Scommaaccent
Encoding: 536 536 410
Width: 667
Flags: W
HStem: -284 38<291 323.5> -160 100<291 391> -23 82<259.5 450> 663 78<249 413>
VStem: 48 88<190 232> 70 93<482.5 593> 291 100<-284 -246 -160 -60> 346 45<-200 -160> 528 93<155.5 245>
Fore
342 59 m 0xf880
 500 59 528 139 528 191 c 0
 528 248 486 285 394 309 c 2
 213 357 l 2
 117 382 70 438 70 527 c 0
 70 659 169 741 329 741 c 0
 497 741 595 658 596 515 c 1
 508 515 l 1
 507 610 442 663 326 663 c 0
 228 663 163 614 163 540 c 0xf480
 163 484 195 456 283 432 c 2
 466 383 l 2
 565 356 621 290 621 200 c 0
 621 111 564 -23 336 -23 c 0
 210 -23 51 25 48 232 c 1
 136 232 l 1
 136 230 136 229 136 227 c 0
 136 153 177 59 342 59 c 0xf880
291 -60 m 1xf280
 391 -60 l 1xf280
 391 -163 l 2xf180
 391 -237 354 -284 293 -284 c 0
 292 -284 292 -284 291 -284 c 1
 291 -246 l 1xf280
 327 -246 346 -218 346 -168 c 0
 346 -165 346 -163 346 -160 c 1xf180
 291 -160 l 1
 291 -60 l 1xf280
EndSplineSet
EndChar
StartChar: scommaaccent
Encoding: 537 537 411
Width: 500
Flags: W
HStem: -284 38<197 229.5> -160 100<197 297> -23 77<174.5 309> 462 77<187 308.5>
VStem: 47 87<338 427.5> 197 100<-284 -246 -160 -60> 252 45<-200 -160> 372 87<92.5 182>
Fore
122 156 m 1xf9
 129 105 148 54 250 54 c 0
 323 54 372 87 372 136 c 0
 372 174 349 195 291 209 c 2
 213 228 l 2
 89 258 47 297 47 379 c 0
 47 476 126 539 248 539 c 0
 369 539 437 481 438 378 c 1
 350 378 l 1
 348 433 312 462 245 462 c 0
 177 462 134 431 134 383 c 0
 134 346 163 324 231 308 c 2
 311 289 l 2
 415 264 459 221 459 143 c 0
 459 42 375 -23 243 -23 c 0
 106 -23 38 35 34 156 c 1
 122 156 l 1xf9
197 -60 m 1xfd
 297 -60 l 1xfd
 297 -163 l 2xfb
 297 -237 260 -284 199 -284 c 0
 198 -284 198 -284 197 -284 c 1
 197 -246 l 1xfd
 233 -246 252 -218 252 -168 c 0
 252 -165 252 -163 252 -160 c 1xfb
 197 -160 l 1
 197 -60 l 1xfd
EndSplineSet
EndChar
StartChar: Tcommaaccent
Encoding: 538 538 412
Width: 611
Flags: W
HStem: -284 38<260 292.5> -160 100<260 360> 0 21G<261 354> 647 82<21 593>
VStem: 260 100<-284 -246 -160 -60> 315 45<-200 -160>
Fore
354 647 m 1xf0
 354 0 l 1
 261 0 l 1
 261 647 l 1
 21 647 l 1
 21 729 l 1
 593 729 l 1
 593 647 l 1
 354 647 l 1xf0
260 -60 m 1xf8
 360 -60 l 1xf8
 360 -163 l 2xf4
 360 -237 323 -284 262 -284 c 0
 261 -284 261 -284 260 -284 c 1
 260 -246 l 1xf8
 296 -246 315 -218 315 -168 c 0
 315 -165 315 -163 315 -160 c 1xf4
 260 -160 l 1
 260 -60 l 1xf8
EndSplineSet
EndChar
StartChar: tcommaaccent
Encoding: 539 539 413
Width: 278
Flags: W
HStem: -284 38<111 143.5> -160 100<111 211> -23 73<153.5 222> 456 68<14 85 168 254>
VStem: 85 83<60 456 524 668> 111 100<-284 -246 -160 -60> 166 45<-200 -160>
Fore
254 524 m 1xf8
 254 456 l 1
 168 456 l 1
 168 97 l 2
 168 60 178 50 214 50 c 0
 230 50 243 51 254 54 c 1
 254 -16 l 1
 226 -21 206 -23 186 -23 c 0
 121 -23 85 7 85 60 c 2
 85 456 l 1
 14 456 l 1
 14 524 l 1
 85 524 l 1
 85 668 l 1
 168 668 l 1
 168 524 l 1
 254 524 l 1xf8
111 -60 m 1xf4
 211 -60 l 1xf4
 211 -163 l 2xf2
 211 -237 174 -284 113 -284 c 0
 112 -284 112 -284 111 -284 c 1
 111 -246 l 1xf4
 147 -246 166 -218 166 -168 c 0
 166 -165 166 -163 166 -160 c 1xf2
 111 -160 l 1
 111 -60 l 1xf4
EndSplineSet
EndChar
StartChar: uni0251
Encoding: 593 593 431
Width: 556
Flags: W
HStem: -23 70<465 532.5> -14 74<187.5 310.5> 471 67<171 296.5>
VStem: 26 87<174.5 335> 397 88<75 317.5>
AnchorPoint: "below" 274 0 basechar 0
AnchorPoint: "above" 274 538 basechar 0
Fore
397 263 m 0x78
 397 372 345 471 248 471 c 0
 159 471 113 363 113 261 c 0
 113 158 173 60 265 60 c 0
 356 60 397 160 397 263 c 0x78
233 -14 m 0
 142 -14 26 91 26 258 c 0
 26 412 96 538 246 538 c 0
 306 538 358 511 402 458 c 1
 402 524 l 1
 485 524 l 1
 485 88 l 2
 485 62 501 47 530 47 c 0xb8
 535 47 539 47 548 49 c 1
 548 -14 l 1x78
 521 -21 508 -23 491 -23 c 0xb8
 439 -23 410 -2 403 57 c 1
 356 12 314 -12 233 -14 c 0
EndSplineSet
EndChar
StartChar: uni0253
Encoding: 595 595 433
Width: 556
Flags: W
HStem: -23 78<239 364> 461 78<239 368> 659 73<138.5 198.5>
VStem: 54 75<0 67> 54 83<196.5 319.5 453 650.5> 436 87<177 349>
AnchorPoint: "below" 274 0 basechar 0
Fore
283 461 m 0xec
 195 461 137 381 137 258 c 0
 137 135 195 55 283 55 c 0
 374 55 436 136 436 255 c 0
 436 380 376 461 283 461 c 0xec
54 0 m 1xf4
 54 613 l 2
 54 688 100 732 177 732 c 0
 194 732 205 731 224 727 c 1
 224 658 l 1
 205 659 202 659 195 659 c 0
 157 659 137 641 137 606 c 2
 137 453 l 1xec
 176 512 227 539 299 539 c 0
 437 539 523 434 523 264 c 0
 523 90 433 -23 295 -23 c 0
 222 -23 169 6 129 67 c 1
 129 0 l 1
 54 0 l 1xf4
EndSplineSet
EndChar
StartChar: uni0256
Encoding: 598 598 435
Width: 556
Flags: W
HStem: -218 73<513 569.5> -23 78<183.5 310> 461 78<183 310> 709 20G<412 495>
VStem: 26 87<174.5 346.5> 412 83<195.5 318.5 458 729> 421 74<-109 69>
AnchorPoint: "below" 274 -200 basechar 0
Fore
265 461 m 0xfc
 174 461 113 380 113 258 c 0
 113 136 174 55 266 55 c 0
 354 55 412 135 412 256 c 0
 412 381 355 461 265 461 c 0xfc
421 69 m 1xfa
 376 4 326 -23 254 -23 c 0
 113 -23 26 86 26 263 c 0
 26 430 115 539 251 539 c 0
 321 539 377 511 412 458 c 1
 412 729 l 1
 495 729 l 1xfc
 495 -76 l 2
 495 -128 517 -145 568 -145 c 0
 571 -145 571 -145 588 -144 c 1
 588 -215 l 1
 578 -217 573 -218 560 -218 c 0
 466 -218 421 -180 421 -109 c 2
 421 69 l 1xfa
EndSplineSet
EndChar
StartChar: uni0257
Encoding: 599 599 436
Width: 556
Flags: W
HStem: -23 78<183.5 310> 461 78<183 310> 659 73<496.5 556.5>
VStem: 26 87<174.5 346.5> 412 83<195.5 318.5 458 650.5> 421 74<0 69>
AnchorPoint: "below" 274 0 basechar 0
Fore
265 461 m 0xf8
 174 461 113 380 113 258 c 0
 113 136 174 55 266 55 c 0
 354 55 412 135 412 256 c 0
 412 381 355 461 265 461 c 0xf8
495 606 m 2
 495 0 l 1
 421 0 l 1
 421 69 l 1xf4
 376 4 326 -23 254 -23 c 0
 113 -23 26 86 26 263 c 0
 26 430 115 539 251 539 c 0
 321 539 377 511 412 458 c 1
 412 613 l 2
 412 688 458 732 535 732 c 0
 552 732 563 731 582 727 c 1
 582 658 l 1
 563 659 560 659 553 659 c 0
 515 659 495 641 495 606 c 2
EndSplineSet
EndChar
StartChar: uni0260
Encoding: 608 608 441
Width: 556
Flags: W
HStem: -218 70<193.5 354.5> -23 77<185.5 306> 462 77<185.5 306> 577 73<490.5 550.5>
VStem: 29 87<167.5 338> 404 85<-16.5 86 -5 320.5> 412 77<448 544>
AnchorPoint: "below" 250 -200 basechar 0
AnchorPoint: "above" 250 538 basechar 0
Fore
261 462 m 0xfc
 172 462 116 384 116 258 c 0
 116 131 171 54 262 54 c 0
 350 54 404 130 404 255 c 0
 404 386 351 462 261 462 c 0xfc
258 -148 m 0
 376 -148 404 -77 404 44 c 2
 404 71 l 1xfc
 357 5 311 -23 245 -23 c 0
 126 -23 29 82 29 253 c 0
 29 423 119 539 252 539 c 0
 319 539 370 510 412 448 c 1
 412 531 l 2
 412 606 452 650 529 650 c 0
 546 650 557 649 576 645 c 1
 576 576 l 1
 557 577 554 577 547 577 c 0
 509 577 489 564 489 524 c 2xfa
 489 86 l 2
 489 -96 454 -218 255 -218 c 0
 132 -218 55 -159 46 -60 c 1
 131 -60 l 1
 145 -145 232 -148 258 -148 c 0
EndSplineSet
EndChar
StartChar: uni0266
Encoding: 614 614 444
Width: 556
Flags: W
HStem: 0 21G<70 153 403 486> 466 73<252 372> 659 73<154.5 214.5>
VStem: 70 83<0 650.5> 403 83<0 440>
Fore
403 363 m 2
 403 445 338 466 295 466 c 0
 209 466 153 396 153 289 c 2
 153 0 l 1
 70 0 l 1
 70 613 l 2
 70 688 116 732 193 732 c 0
 210 732 221 731 240 727 c 1
 240 658 l 1
 221 659 218 659 211 659 c 0
 173 659 153 641 153 606 c 2
 153 452 l 1
 202 516 247 539 321 539 c 0
 423 539 486 484 486 396 c 2
 486 0 l 1
 403 0 l 1
 403 363 l 2
EndSplineSet
EndChar
StartChar: uni0267
Encoding: 615 615 445
Width: 556
Flags: W
HStem: -218 73<333.5 390> 0 21G<70 153> 466 73<252 372> 659 73<154.5 214.5>
VStem: 70 83<0 650.5> 403 83<-109 440>
Fore
403 363 m 2
 403 445 338 466 295 466 c 0
 209 466 153 396 153 289 c 2
 153 0 l 1
 70 0 l 1
 70 613 l 2
 70 688 116 732 193 732 c 0
 210 732 221 731 240 727 c 1
 240 658 l 1
 221 659 218 659 211 659 c 0
 173 659 153 641 153 606 c 2
 153 452 l 1
 202 516 247 539 321 539 c 0
 423 539 486 484 486 396 c 2
 486 -109 l 2
 486 -180 437 -218 343 -218 c 0
 330 -218 325 -217 315 -215 c 1
 315 -144 l 1
 332 -145 332 -145 335 -145 c 0
 386 -145 403 -128 403 -76 c 2
 403 363 l 2
EndSplineSet
EndChar
StartChar: uni0268
Encoding: 616 616 446
Width: 222
Flags: W
HStem: 0 21G<67 150> 240 72<-8 67 150 230> 504 20G<67 150> 709 20G<66 150>
VStem: 66 84<624 729>
Fore
150 729 m 1
 150 624 l 1
 66 624 l 1
 66 729 l 1
 150 729 l 1
67 312 m 5
 67 524 l 1
 150 524 l 1
 150 312 l 5
 230 312 l 5
 230 240 l 5
 150 240 l 5
 150 0 l 1
 67 0 l 1
 67 240 l 5
 -8 240 l 5
 -8 312 l 5
 67 312 l 5
EndSplineSet
EndChar
StartChar: uni0269
Encoding: 617 617 447
Width: 222
Flags: W
HStem: -23 73<134.5 203> 504 20G<66 149>
VStem: 66 83<33.5 524>
Fore
149 524 m 5
 149 97 l 6
 149 60 159 50 195 50 c 0
 211 50 224 51 235 54 c 1
 235 -16 l 1
 207 -21 187 -23 167 -23 c 0
 102 -23 66 7 66 60 c 2
 66 524 l 1
 149 524 l 5
EndSplineSet
EndChar
StartChar: uni026A
Encoding: 618 618 448
Width: 278
Flags: W
HStem: 0 72<12 250> 452 72<12 250>
VStem: 94 83<72 452>
AnchorPoint: "below" 134 0 basechar 0
AnchorPoint: "above" 135 538 basechar 0
Fore
12 524 m 1
 250 524 l 1
 250 452 l 1
 177 452 l 1
 177 72 l 1
 250 72 l 1
 250 0 l 1
 12 0 l 1
 12 72 l 1
 94 72 l 1
 94 452 l 1
 12 452 l 1
 12 524 l 1
EndSplineSet
EndChar
StartChar: uni026D
Encoding: 621 621 449
Width: 222
Flags: W
HStem: -218 73<165 221.5> 709 20G<68 152>
VStem: 68 84<-144.5 729>
Fore
68 -109 m 2
 68 729 l 1
 152 729 l 1
 152 -76 l 2
 152 -128 169 -145 220 -145 c 0
 223 -145 223 -145 240 -144 c 1
 240 -215 l 1
 230 -217 225 -218 212 -218 c 0
 118 -218 68 -180 68 -109 c 2
EndSplineSet
EndChar
StartChar: uni0270
Encoding: 624 624 451
Width: 833
Flags: W
HStem: -15 73<173 285 490 589> 504 20G<70 154 374 458 678 762>
VStem: 70 84<84 524> 374 84<129.5 524> 678 84<157 524> 685 77<-200 74>
Fore
762 -200 m 1xf4
 685 -200 l 1
 685 74 l 1xf4
 640 11 594 -15 524 -15 c 0
 456 -15 414 9 383 65 c 1
 334 6 292 -15 222 -15 c 0
 124 -15 70 37 70 131 c 2
 70 524 l 1
 154 524 l 1
 154 163 l 2
 154 97 190 58 251 58 c 0
 319 58 374 119 374 195 c 2
 374 524 l 1
 458 524 l 1
 458 163 l 2
 458 96 493 58 555 58 c 0
 623 58 678 119 678 195 c 2
 678 524 l 1
 762 524 l 1xf8
 762 -200 l 1xf4
EndSplineSet
EndChar
StartChar: uni0271
Encoding: 625 625 452
Width: 833
Flags: W
HStem: -218 73<608.5 665> 0 21G<70 154 374 458> 466 73<243 342 547 659>
VStem: 70 84<0 367> 70 77<450 524> 374 84<0 394.5> 678 84<-109 440>
AnchorPoint: "above" 416.5 538 basechar 0
AnchorPoint: "below" 412 -200 basechar 0
Fore
70 524 m 1xee
 147 524 l 1
 147 450 l 1xee
 192 513 238 539 308 539 c 0
 376 539 418 515 449 459 c 1
 498 518 540 539 610 539 c 0
 708 539 762 487 762 393 c 2
 762 -109 l 2
 762 -180 712 -218 618 -218 c 0
 605 -218 600 -217 590 -215 c 1
 590 -144 l 1
 607 -145 607 -145 610 -145 c 0
 661 -145 678 -128 678 -76 c 2
 678 361 l 2
 678 427 642 466 581 466 c 0
 513 466 458 405 458 329 c 2
 458 0 l 1
 374 0 l 1
 374 361 l 2
 374 428 339 466 277 466 c 0
 209 466 154 405 154 329 c 2
 154 0 l 1
 70 0 l 1xf6
 70 524 l 1xee
EndSplineSet
EndChar
StartChar: uni0272
Encoding: 626 626 453
Width: 556
Flags: W
HStem: -218 73<0.5 57> 0 21G<404 487> 466 73<253 371.5>
VStem: 70 84<-109 342.5> 70 77<436 524> 404 83<0 439.5>
AnchorPoint: "above" 278 538 basechar 0
AnchorPoint: "below" 272 -200 basechar 0
Fore
70 524 m 1xec
 147 524 l 1
 147 436 l 1xec
 193 509 243 539 321 539 c 0
 422 539 487 483 487 396 c 2
 487 0 l 1
 404 0 l 1
 404 363 l 2
 404 426 362 466 296 466 c 0
 210 466 154 396 154 289 c 2
 154 -109 l 2
 154 -180 104 -218 10 -218 c 0
 -3 -218 -8 -217 -18 -215 c 1
 -18 -144 l 1
 -1 -145 -1 -145 2 -145 c 0
 53 -145 70 -128 70 -76 c 2xf4
 70 524 l 1xec
EndSplineSet
EndChar
StartChar: uni0273
Encoding: 627 627 454
Width: 556
Flags: W
HStem: -218 73<501 557.5> 0 21G<70 154> 466 73<253 371.5>
VStem: 70 84<0 342.5> 70 77<436 524> 404 84<-144.5 -109 -76 224>
AnchorPoint: "above" 278 538 basechar 0
AnchorPoint: "below" 272 -200 basechar 0
Fore
70 524 m 1xec
 147 524 l 1
 147 436 l 1xec
 193 509 243 539 321 539 c 0
 422 539 487 483 487 396 c 2
 487 224 l 1
 488 224 l 1
 488 -76 l 2
 488 -128 505 -145 556 -145 c 0
 559 -145 559 -145 576 -144 c 1
 576 -215 l 1
 566 -217 561 -218 548 -218 c 0
 454 -218 404 -180 404 -109 c 2
 404 363 l 2
 404 426 362 466 296 466 c 0
 210 466 154 396 154 289 c 2
 154 0 l 1
 70 0 l 1xf4
 70 524 l 1xec
EndSplineSet
EndChar
StartChar: uni0275
Encoding: 629 629 455
Width: 556
Flags: W
HStem: -23 77<198.5 346.5> 220 70<124 422> 462 77<198.5 347.5>
AnchorPoint: "above" 272 538 basechar 0
AnchorPoint: "below" 273 0 basechar 0
Fore
272 539 m 0
 423 539 510 435 510 254 c 0
 510 82 420 -23 273 -23 c 0
 124 -23 36 82 36 258 c 0
 36 434 125 539 272 539 c 0
422 290 m 1
 412 399 358 462 273 462 c 0
 188 462 133 397 124 290 c 1
 422 290 l 1
421 220 m 1
 125 220 l 1
 135 116 190 54 273 54 c 0
 356 54 411 117 421 220 c 1
EndSplineSet
EndChar
StartChar: uni027A
Encoding: 634 634 457
Width: 333
Flags: W
HStem: -15 88<69 128> 709 20G<237 321>
VStem: 237 84<178.5 729> 244 77<0 95>
Fore
69 73 m 1xd0
 170 75 237 105 237 252 c 2
 237 729 l 1
 321 729 l 1xe0
 321 0 l 1
 244 0 l 1
 244 95 l 1
 196 17 155 -15 101 -15 c 0
 90 -15 83 -14 69 -12 c 1
 69 73 l 1xd0
EndSplineSet
EndChar
StartChar: uni027B
Encoding: 635 635 458
Width: 333
Flags: W
HStem: -218 73<334 390.5> -15 88<69 128> 504 20G<237 321>
VStem: 237 84<178.5 524> 244 77<-144.5 95>
Fore
69 73 m 1xe8
 170 75 237 105 237 252 c 2
 237 524 l 1
 321 524 l 1xf0
 321 -76 l 2
 321 -128 338 -145 389 -145 c 0
 392 -145 392 -145 409 -144 c 1
 409 -215 l 1
 399 -217 394 -218 381 -218 c 0
 287 -218 244 -180 244 -109 c 2
 244 95 l 1
 196 17 155 -15 101 -15 c 0
 90 -15 83 -14 69 -12 c 1
 69 73 l 1xe8
EndSplineSet
EndChar
StartChar: uni027C
Encoding: 636 636 459
Width: 333
Flags: W
HStem: 451 88<262 321>
VStem: 69 77<429 524> 69 84<-200 345.5>
Fore
321 451 m 1xc0
 220 449 153 419 153 272 c 2
 153 -200 l 1
 69 -200 l 1xa0
 69 524 l 1
 146 524 l 1
 146 429 l 1
 194 507 235 539 289 539 c 0
 300 539 307 538 321 536 c 1
 321 451 l 1xc0
EndSplineSet
EndChar
StartChar: uni027D
Encoding: 637 637 460
Width: 333
Flags: W
HStem: -218 73<166 222.5> 451 88<262 321>
VStem: 69 77<429 524> 69 84<-144.5 -109 -76 345.5>
Fore
321 451 m 1xe0
 220 449 153 419 153 272 c 2
 153 -76 l 2
 153 -128 170 -145 221 -145 c 0
 224 -145 224 -145 241 -144 c 1
 241 -215 l 1
 231 -217 226 -218 213 -218 c 0
 119 -218 69 -180 69 -109 c 2xd0
 69 524 l 1
 146 524 l 1
 146 429 l 1
 194 507 235 539 289 539 c 0
 300 539 307 538 321 536 c 1
 321 451 l 1xe0
EndSplineSet
EndChar
StartChar: uni027E
Encoding: 638 638 461
Width: 384
Flags: W
HStem: 0 21G<84 168> 466 73<181 275>
VStem: 84 84<0 465.5> 288 84<397 465.5>
Fore
168 0 m 1
 84 0 l 1
 84 430 l 2
 84 501 134 539 228 539 c 0
 322 539 372 501 372 430 c 2
 372 397 l 1
 288 397 l 1
 288 446 273 464 228 466 c 0
 183 464 168 446 168 397 c 2
 168 0 l 1
EndSplineSet
EndChar
StartChar: uni0282
Encoding: 642 642 463
Width: 500
Flags: W
HStem: -216 73<131 187.5> -23 77<199 309> 462 77<187 308.5>
VStem: 34 84<-142.5 2> 47 87<338 427.5> 372 87<92.5 182>
Fore
34 -107 m 2xf4
 34 156 l 1xf4
 122 156 l 1
 129 105 148 54 250 54 c 0
 323 54 372 87 372 136 c 0
 372 174 349 195 291 209 c 2
 213 228 l 2
 89 258 47 297 47 379 c 0
 47 476 126 539 248 539 c 0
 369 539 437 481 438 378 c 1
 350 378 l 1
 348 433 312 462 245 462 c 0
 177 462 134 431 134 383 c 0xec
 134 346 163 324 231 308 c 2
 311 289 l 2
 415 264 459 221 459 143 c 0
 459 42 375 -23 243 -23 c 0
 192 -23 150 -15 118 2 c 1
 118 -74 l 2
 118 -126 135 -143 186 -143 c 0
 189 -143 189 -143 206 -142 c 1
 206 -213 l 1
 196 -215 191 -216 178 -216 c 0
 84 -216 34 -178 34 -107 c 2xf4
EndSplineSet
EndChar
StartChar: uni0288
Encoding: 648 648 465
Width: 278
Flags: W
HStem: -218 73<153.5 222> 456 68<14 85 168 254>
VStem: 85 83<-135 456 524 668>
Fore
254 524 m 1
 254 456 l 1
 168 456 l 1
 168 -98 l 2
 168 -135 178 -145 214 -145 c 0
 230 -145 243 -144 254 -141 c 1
 254 -211 l 1
 226 -216 206 -218 186 -218 c 0
 121 -218 85 -188 85 -135 c 2
 85 456 l 1
 14 456 l 1
 14 524 l 1
 85 524 l 1
 85 668 l 1
 168 668 l 1
 168 524 l 1
 254 524 l 1
EndSplineSet
EndChar
StartChar: uni0289
Encoding: 649 649 466
Width: 556
Flags: W
HStem: -23 73<181 299.5> 240 72<-8 65 148 399 482 560> 504 20G<65 148 399 482>
VStem: 65 83<76.5 240 312 524> 399 83<227 240 312 524> 407 75<0 73>
Fore
482 0 m 1xf4
 407 0 l 1
 407 73 l 1xf4
 358 4 309 -23 232 -23 c 0
 130 -23 65 33 65 120 c 2
 65 240 l 1
 -8 240 l 1
 -8 312 l 1
 65 312 l 1
 65 524 l 1
 148 524 l 1
 148 312 l 1
 399 312 l 1
 399 524 l 1
 482 524 l 1
 482 312 l 1
 560 312 l 1
 560 240 l 1
 482 240 l 1xf8
 482 0 l 1xf4
148 240 m 1
 148 153 l 2
 148 90 190 50 256 50 c 0
 343 50 399 120 399 227 c 2
 399 240 l 1xf8
 148 240 l 1
EndSplineSet
EndChar
StartChar: uni0290
Encoding: 656 656 470
Width: 500
Flags: W
HStem: -216 73<470 526.5> 0 73<31 457> 451 73<52 443>
VStem: 373 84<-107 73>
Fore
373 0 m 1
 31 0 l 1
 31 75 l 1
 344 451 l 1
 52 451 l 1
 52 524 l 1
 443 524 l 1
 443 450 l 1
 132 73 l 1
 457 73 l 1
 457 -74 l 2
 457 -126 474 -143 525 -143 c 0
 528 -143 528 -143 545 -142 c 1
 545 -213 l 1
 535 -215 530 -216 517 -216 c 0
 423 -216 373 -178 373 -107 c 2
 373 0 l 1
EndSplineSet
EndChar
StartChar: uni02A0
Encoding: 672 672 473
Width: 556
Flags: W
HStem: -23 78<181 310> 461 78<185 310.5> 577 73<496.5 556.5>
VStem: 26 87<167 339> 412 83<-218 60 195 318>
Fore
266 461 m 0
 174 461 113 379 113 258 c 0
 113 136 174 55 266 55 c 0
 354 55 412 135 412 255 c 0
 412 381 355 461 266 461 c 0
418 458 m 1
 418 531 l 2
 418 606 458 650 535 650 c 0
 552 650 563 649 582 645 c 1
 582 576 l 1
 563 577 560 577 553 577 c 0
 515 577 495 564 495 524 c 2
 495 -218 l 1
 412 -218 l 1
 412 60 l 1
 373 3 323 -23 250 -23 c 0
 112 -23 26 82 26 252 c 0
 26 426 116 539 254 539 c 0
 321 539 379 510 418 458 c 1
EndSplineSet
EndChar
StartChar: breve
Encoding: 728 728 474
Width: 333
Flags: W
HStem: 597 69<133.5 210.5> 712 20G<15 74 257 316>
Fore
15 732 m 1
 74 732 l 1
 79 688 109 666 166 666 c 0
 220 666 253 690 257 732 c 1
 316 732 l 1
 309 643 257 597 164 597 c 0
 103 597 18 621 15 732 c 1
EndSplineSet
EndChar
StartChar: dotaccent
Encoding: 729 729 475
Width: 333
Flags: W
Fore
219 716 m 1
 219 612 l 1
 115 612 l 1
 115 716 l 1
 219 716 l 1
EndSplineSet
EndChar
StartChar: ring
Encoding: 730 730 476
Width: 333
Flags: W
HStem: 579 44<143 191> 710 44<143 191.5>
VStem: 79 44<643 690.5> 211 44<642 690.5>
Fore
167 754 m 0
 216 754 255 715 255 666 c 0
 255 618 215 579 167 579 c 0
 119 579 79 619 79 667 c 0
 79 714 119 754 167 754 c 0
167 710 m 0
 143 710 123 690 123 667 c 0
 123 643 143 623 167 623 c 0
 191 623 211 643 211 666 c 0
 211 691 192 710 167 710 c 0
EndSplineSet
EndChar
StartChar: ogonek
Encoding: 731 731 477
Width: 333
Flags: W
HStem: -205 45<152.5 214> -20 20G<154 224>
VStem: 57 73<-140 -85>
Fore
189 -205 m 0
 116 -205 57 -169 57 -111 c 0
 57 -63 93 -22 154 0 c 1
 224 0 l 1
 151 -41 130 -64 130 -106 c 0
 130 -141 155 -160 202 -160 c 0
 226 -160 247 -157 265 -150 c 1
 265 -195 l 1
 241 -200 208 -205 189 -205 c 0
EndSplineSet
EndChar
StartChar: tilde
Encoding: 732 732 478
Width: 333
Flags: W
HStem: 613 67<203.5 254.5> 651 66<69 115.5>
Fore
91 717 m 0x40
 140 717 183 680 224 680 c 0x80
 242 680 253 692 261 717 c 1
 319 717 l 1x40
 309 648 279 613 230 613 c 0x80
 193 613 125 651 96 651 c 0
 81 651 69 637 63 614 c 1
 5 614 l 1
 16 680 47 717 91 717 c 0x40
EndSplineSet
EndChar
StartChar: hungarumlaut
Encoding: 733 733 479
Width: 333
Flags: W
HStem: 720 20G<61 174 235 348>
Fore
61 740 m 1
 174 740 l 1
 25 590 l 1
 -35 590 l 1
 61 740 l 1
235 740 m 1
 348 740 l 1
 199 590 l 1
 139 590 l 1
 235 740 l 1
EndSplineSet
EndChar
StartChar: uni030F
Encoding: 783 783 491
Width: 0
Flags: W
HStem: 720 20G<-368 -255 -194 -81>
AnchorPoint: "abovemk" -171 538 mark 0
AnchorPoint: "abovemk" -171 740 basemark 0
AnchorPoint: "above" -171 538 mark 0
Fore
-81 740 m 1
 15 590 l 1
 -45 590 l 1
 -194 740 l 1
 -81 740 l 1
-255 740 m 1
 -159 590 l 1
 -219 590 l 1
 -368 740 l 1
 -255 740 l 1
EndSplineSet
EndChar
StartChar: uni0313
Encoding: 787 787 494
Width: 0
Flags: W
HStem: 583 42<-202 -174> 670 70<-202 -121>
VStem: -202 81<625 671 642.5 740>
AnchorPoint: "abovemk" -171 538 mark 0
AnchorPoint: "abovemk" -171 742 basemark 0
AnchorPoint: "above" -171 538 mark 0
Fore
-202 740 m 1
 -121 740 l 1
 -121 671 l 2
 -121 614 -146 583 -202 583 c 1
 -202 625 l 1
 -199 625 l 0
 -180 625 -161 626 -161 670 c 1
 -202 670 l 1
 -202 740 l 1
EndSplineSet
EndChar
StartChar: uni0374
Encoding: 884 884 496
Width: 199
Flags: W
Fore
156 716 m 5
 50 580 l 5
 39 644 l 5
 105 780 l 5
 156 716 l 5
EndSplineSet
EndChar
StartChar: uni0375
Encoding: 885 885 497
Width: 199
Flags: W
Fore
22 -130 m 1
 128 6 l 1
 139 -58 l 1
 73 -194 l 1
 22 -130 l 1
EndSplineSet
EndChar
StartChar: uni037A
Encoding: 890 890 498
Width: 332
Flags: W
HStem: -253 178<129 232>
VStem: 129 76<-199.5 -75>
Fore
231 -216 m 0
 260 -216 253 -211 260 -192 c 1
 285 -192 l 1
 285 -252 261 -253 203 -253 c 0
 150 -253 129 -225 129 -174 c 2
 129 -75 l 1
 205 -75 l 1
 205 -81 205 -88 205 -94 c 0
 205 -113 205 -129 205 -144 c 0
 205 -192 208 -216 231 -216 c 0
EndSplineSet
EndChar
StartChar: Gamma
Encoding: 915 915 508
Width: 582
Flags: W
HStem: 0 21G<82 178> 645 84<82 566>
VStem: 82 96<0 729>
Fore
566 645 m 1
 178 645 l 1
 178 0 l 1
 82 0 l 1
 82 729 l 1
 566 729 l 1
 566 645 l 1
EndSplineSet
EndChar
StartChar: uni0394
Encoding: 916 916 509
Width: 778
Flags: W
HStem: 0 84<53 723> 709 20G<317 433>
Fore
723 0 m 1
 53 0 l 1
 317 729 l 1
 433 729 l 1
 723 0 l 1
187 84 m 1
 585 84 l 17
 585 87 377 655 377 655 c 1
 187 84 l 1
EndSplineSet
EndChar
StartChar: Theta
Encoding: 920 920 513
Width: 778
Flags: W
HStem: -23 82<285 499> 320 82<217 553> 659 82<284.5 496>
VStem: 38 93<245 473> 649 93<248 470.5>
Fore
553 320 m 1
 217 320 l 1
 217 402 l 1
 553 402 l 1
 553 320 l 1
742 353 m 0
 742 143 608 -23 390 -23 c 0
 180 -23 38 131 38 359 c 0
 38 587 180 741 389 741 c 0
 603 741 742 588 742 353 c 0
389 659 m 0
 235 659 131 539 131 359 c 0
 131 179 235 59 390 59 c 0
 544 59 649 179 649 355 c 0
 649 539 547 659 389 659 c 0
EndSplineSet
EndChar
StartChar: Lambda
Encoding: 923 923 516
Width: 667
Flags: W
HStem: 0 21G<17 116 549 653> 709 20G<277 397>
AnchorPoint: "above" 335 729 basechar 0
Fore
116 0 m 1
 17 0 l 1
 277 729 l 1
 397 729 l 1
 653 0 l 1
 549 0 l 1
 336 629 l 1
 116 0 l 1
EndSplineSet
EndChar
StartChar: Xi
Encoding: 926 926 519
Width: 630
Flags: W
HStem: -0 83<65 611> 332 83<129 538> 646 83<65 595>
Fore
595 646 m 1
 65 646 l 1
 65 729 l 1
 595 729 l 1
 595 646 l 1
538 332 m 1
 129 332 l 1
 129 415 l 1
 538 415 l 1
 538 332 l 1
611 -0 m 1
 65 -0 l 1
 65 83 l 1
 611 83 l 1
 611 -0 l 1
EndSplineSet
EndChar
StartChar: Pi
Encoding: 928 928 521
Width: 722
Flags: W
HStem: -0 21G<80 174 546 640> 647 82<80 640>
VStem: 80 94<-0 729> 546 94<-0 729>
Fore
640 -0 m 1
 546 -0 l 1
 546 647 l 1
 174 647 l 1
 174 -0 l 1
 80 -0 l 1
 80 729 l 1
 640 729 l 1
 640 -0 l 1
EndSplineSet
EndChar
StartChar: Sigma
Encoding: 931 931 523
Width: 628
Flags: W
HStem: 0 81<40 606> 647 82<74 586>
Fore
606 0 m 1
 40 0 l 1
 40 85 l 1
 276 376 l 1
 74 647 l 1
 74 729 l 1
 586 729 l 1
 586 647 l 1
 190 647 l 1
 190 646 326 452 392 376 c 1
 150 81 l 1
 606 81 l 1
 606 0 l 1
EndSplineSet
EndChar
StartChar: Phi
Encoding: 934 934 526
Width: 717
Flags: W
HStem: 0 21G<317 400> 709 20G<318 399>
VStem: 29 91<283.5 450> 317 83<0 95 163 576> 597 91<284.5 448.5>
CounterMasks: 1 00
Fore
317 95 m 1
 158 95 29 198 29 369 c 0
 29 531 154 648 318 648 c 1
 318 729 l 1
 399 729 l 1
 399 648 l 1
 566 648 688 528 688 369 c 0
 688 200 559 95 400 95 c 1
 400 0 l 1
 317 0 l 1
 317 95 l 1
597 374 m 0
 597 492 510 565 400 576 c 1
 400 163 l 1
 514 175 597 254 597 374 c 0
317 163 m 1
 317 576 l 1
 206 565 120 491 120 374 c 0
 120 252 204 175 317 163 c 1
EndSplineSet
EndChar
StartChar: Psi
Encoding: 936 936 528
Width: 745
Flags: W
HStem: 0 21G<326 420> 171 81<292 330 416 522> 689 20G<330 416>
VStem: 52 90<313.5 709> 326 94<0 171> 604 90<300.5 709>
CounterMasks: 1 00
Fore
454 171 m 2
 420 171 l 1
 420 0 l 1
 326 0 l 1
 326 171 l 1
 292 171 l 2
 124 171 52 251 52 376 c 2
 52 729 l 1
 142 709 l 1
 142 398 l 2
 142 289 190 252 304 252 c 2
 330 252 l 1
 330 709 l 1
 416 709 l 1
 416 252 l 1
 442 252 l 2
 555 252 604 288 604 398 c 2
 604 709 l 1
 694 729 l 1
 694 376 l 2
 694 225 590 171 454 171 c 2
EndSplineSet
EndChar
StartChar: uni03A9
Encoding: 937 937 529
Width: 778
Flags: W
HStem: 0 72<57 321 443 717> 660 73<284 485.5>
VStem: 52 87<323.5 480.5> 638 91<299.5 489>
Fore
443 76 m 1
 492 96 638 206 638 393 c 0
 638 541 536 660 383 660 c 0
 232 660 139 530 139 390 c 0
 139 257 219 122 321 76 c 1
 321 0 l 1
 57 0 l 1
 57 72 l 1
 221 72 l 1
 116 134 52 256 52 391 c 0
 52 570 187 733 381 733 c 0
 590 733 729 583 729 395 c 0
 729 252 650 129 541 72 c 1
 717 72 l 1
 717 0 l 1
 443 0 l 1
 443 76 l 1
EndSplineSet
EndChar
StartChar: alpha
Encoding: 945 945 537
Width: 596
Flags: W
HStem: -13 81<482.5 542.5> 454 76<185 321.5>
VStem: 48 84<170.5 315> 424 94<90 316> 446 72<442 524>
Fore
48 262 m 0xf0
 48 362 94 530 276 530 c 0
 350 529 404 505 438 458 c 1
 446 442 l 1
 446 524 l 1
 518 524 l 1xe8
 518 99 l 2
 518 81 525 68 539 68 c 0
 546 68 554 71 562 77 c 1
 583 8 l 1
 554 -6 528 -13 503 -13 c 0
 462 -13 438 11 438 46 c 2
 438 55 l 2
 437 60 437 63 437 65 c 1
 437 42 373 -12 276 -12 c 0
 127 -12 48 79 48 262 c 0xf0
424 266 m 0xf0
 424 366 367 454 276 454 c 0
 172 454 132 372 132 258 c 0
 132 148 170 66 274 66 c 0
 370 66 424 135 424 266 c 0xf0
EndSplineSet
EndChar
StartChar: beta
Encoding: 946 946 538
Width: 516
Flags: W
HStem: -14 74<240 362> 338 74<202 317> 660 72<169 314>
VStem: 50 86<-198 558> 378 72<504 602.5> 414 90<137.5 256>
Fore
50 490 m 2xf4
 50 626 88 732 250 732 c 0
 378 732 450 661 450 544 c 0xf8
 450 464 411 411 346 388 c 1
 442 370 504 312 504 200 c 0
 504 75 426 -14 298 -14 c 0
 218 -14 179 5 136 52 c 1
 136 -198 l 1
 50 -198 l 1
 50 490 l 2xf4
378 546 m 0
 378 614 332 660 263 660 c 0
 224 660 190 646 163 619 c 0
 145 601 136 557 136 486 c 2
 136 144 l 1
 156 89 200 60 280 60 c 0
 367 60 414 112 414 202 c 0xf4
 414 272 382 338 252 338 c 2
 202 338 l 1
 202 412 l 1
 244 412 l 2
 330 412 378 466 378 546 c 0
EndSplineSet
EndChar
StartChar: gamma
Encoding: 947 947 539
Width: 531
Flags: W
HStem: 460 76<52.5 98.5>
VStem: 249 86<-198 38>
Fore
523 524 m 1
 335 38 l 1
 335 -198 l 1
 249 -198 l 1
 249 38 l 1
 82 446 l 2
 78 456 68 460 57 460 c 0
 48 460 40 458 31 454 c 1
 25 524 l 1
 25 529 61 536 67 536 c 0
 130 536 146 517 173 446 c 2
 291 142 l 1
 435 524 l 1
 523 524 l 1
EndSplineSet
EndChar
StartChar: delta
Encoding: 948 948 540
Width: 556
Flags: W
HStem: -16 82<226 364.5> 432 67<186.5 334.5> 657 72<73 471>
VStem: 37 90<139 319> 441 88<159.5 335.5>
Fore
37 242 m 0
 37 396 123 499 250 499 c 0
 266 499 272 497 284 495 c 1
 73 657 l 1
 73 729 l 1
 471 729 l 1
 471 657 l 1
 202 657 l 1
 377 519 l 2
 427 482 529 421 529 250 c 0
 529 69 454 -16 275 -16 c 0
 177 -16 37 36 37 242 c 0
281 432 m 0
 185 432 130 351 127 250 c 0
 127 125 187 66 275 66 c 2
 303 66 l 2
 331 66 353 68 372 82 c 0
 415 114 441 182 441 252 c 0
 441 357 388 432 281 432 c 0
EndSplineSet
EndChar
StartChar: epsilon
Encoding: 949 949 541
Width: 510
Flags: W
HStem: -10 70<192 318.5> 231 59<208.5 295> 462 70<215.5 284.5>
VStem: 39 82<80 177 344.5 444.5>
Fore
476 136 m 1
 461 26 384 -10 253 -10 c 0
 131 -10 39 24 39 136 c 0
 39 209 83 244 141 261 c 1
 82 278 39 312 39 386 c 0
 39 503 132 530 253 532 c 2
 262 532 l 2
 390 532 461 494 476 386 c 1
 400 386 l 1
 393 442 319 462 250 462 c 0
 181 462 121 443 121 377 c 0
 121 312 168 290 249 290 c 2
 295 290 l 1
 295 231 l 1
 249 231 l 2
 169 231 121 210 121 144 c 0
 121 81 182 60 250 60 c 0
 317 60 393 80 400 136 c 1
 476 136 l 1
EndSplineSet
EndChar
StartChar: zeta
Encoding: 950 950 542
Width: 462
Flags: W
HStem: -24 20G<266 318.5> 646 72<54 410>
VStem: 38 92<125 331.5> 360 80<-74.5 5.5>
Fore
294 -4 m 0
 238 -4 38 30 38 220 c 0
 38 415 152 566 278 646 c 1
 54 646 l 1
 54 718 l 1
 410 718 l 1
 410 658 l 1
 278 583 130 427 130 236 c 0
 130 139 190 87 303 74 c 0
 381 68 440 53 440 -42 c 0
 440 -79 427 -130 402 -194 c 1
 326 -166 l 1
 349 -119 360 -85 360 -64 c 0
 360 -17 343 -4 294 -4 c 0
EndSplineSet
EndChar
StartChar: eta
Encoding: 951 951 543
Width: 526
Flags: W
HStem: 0 21G<76 164> 451 80<52 107.5>
VStem: 76 88<0 426.5> 410 88<-158 358.5>
Fore
410 316 m 2
 410 401 389 454 302 454 c 0
 210 454 164 397 164 284 c 2
 164 0 l 1
 76 0 l 1
 76 414 l 2
 76 439 69 451 54 451 c 0
 50 451 45 450 38 448 c 1
 24 520 l 1
 43 527 63 531 85 531 c 0
 130 531 153 491 155 445 c 0
 156 430 l 1
 201 497 255 530 320 530 c 0
 429 530 491 475 497 371 c 0
 498 364 498 347 498 320 c 2
 498 -182 l 1
 410 -158 l 1
 410 316 l 2
EndSplineSet
EndChar
StartChar: theta
Encoding: 952 952 544
Width: 526
Flags: W
HStem: -12 74<202 357> 330 72<131 406> 658 72<178.5 357>
VStem: 45 86<268 452.5 325.5 464.5> 406 84<223 452 247.5 452>
Fore
490 360 m 0
 490 135 446 -12 268 -12 c 0
 136 -12 84 69 60 184 c 0
 50 232 45 291 45 360 c 0
 45 545 89 730 268 730 c 0
 446 730 490 544 490 360 c 0
268 658 m 0
 155 658 131 527 131 402 c 1
 406 402 l 1
 406 475 396 536 377 586 c 0
 358 634 321 658 268 658 c 0
406 330 m 1
 131 330 l 1
 131 206 147 62 268 62 c 0
 346 62 406 116 406 330 c 1
EndSplineSet
EndChar
StartChar: iota
Encoding: 953 953 545
Width: 286
Flags: W
HStem: -8 87<140 197.5> 504 20G<56 144>
VStem: 56 88<87 524>
Fore
144 136 m 2
 144 101 165 79 192 79 c 0
 203 79 221 85 240 94 c 1
 270 13 l 1
 239 -1 209 -8 180 -8 c 0
 100 -8 56 41 56 133 c 2
 56 524 l 1
 144 524 l 1
 144 136 l 2
EndSplineSet
EndChar
StartChar: kappa
Encoding: 954 954 546
Width: 516
Flags: W
HStem: 0 21G<66 154 388 496> 504 20G<66 154 362 476>
VStem: 66 88<0 524>
Fore
496 0 m 1
 388 0 l 1
 216 266 l 1
 154 206 l 1
 154 0 l 1
 66 0 l 1
 66 524 l 1
 154 524 l 1
 154 314 l 1
 362 524 l 1
 476 524 l 1
 278 326 l 1
 496 0 l 1
EndSplineSet
EndChar
StartChar: lambda
Encoding: 955 955 547
Width: 560
Flags: W
HStem: -12 83<449 505> 644 86<110.5 187.5>
Fore
228 520 m 1
 200 600 186 644 120 644 c 0
 101 644 66 636 66 636 c 1
 76 718 l 1
 98 726 117 730 132 730 c 0
 243 730 273 619 308 528 c 2
 474 90 l 2
 479 78 489 71 502 71 c 0
 508 71 532 78 536 82 c 1
 556 12 l 1
 524 -4 497 -12 475 -12 c 0
 423 -12 409 23 394 66 c 2
 272 420 l 1
 126 0 l 1
 30 0 l 1
 228 520 l 1
EndSplineSet
EndChar
StartChar: uni03BC
Encoding: 956 956 548
Width: 574
Flags: W
HStem: -12 80<258 321.5>
VStem: 78 88<-200 518> 412 86<264 518>
Fore
288 -12 m 0
 228 -12 198 9 166 52 c 1
 166 -200 l 1
 78 -200 l 1
 78 518 l 1
 166 518 l 1
 166 300 l 2
 166 219 170 168 178 145 c 0
 192 100 230 68 286 68 c 0
 350 68 389 118 395 137 c 0
 409 182 412 230 412 298 c 2
 412 518 l 1
 498 518 l 1
 498 0 l 1
 418 0 l 1
 418 62 l 1
 389 16 355 -12 288 -12 c 0
EndSplineSet
EndChar
StartChar: xi
Encoding: 958 958 550
Width: 470
Flags: W
HStem: 0 70<219.5 331.5> 340 64<225 384> 648 70<38 410>
VStem: 16 84<138 255.5> 62 76<477.5 546.5> 363 78<-59.5 6.5>
Fore
262 70 m 0xf4
 401 70 441 52 441 -39 c 0
 441 -80 428 -131 402 -194 c 1
 328 -166 l 1
 354 -102 363 -70 363 -46 c 0
 363 -8 343 0 269 0 c 2
 250 0 l 2
 62 0 16 101 16 175 c 0xf4
 16 336 145 370 184 376 c 1
 114 386 62 439 62 516 c 0
 62 576 98 627 138 648 c 1
 38 648 l 1
 38 718 l 1
 410 718 l 1
 410 648 l 1
 244 648 l 2
 186 648 138 577 138 516 c 0xec
 138 471 171 404 302 404 c 2
 384 404 l 1
 384 340 l 1
 274 340 l 2
 176 340 100 278 100 198 c 0
 100 114 177 70 262 70 c 0xf4
EndSplineSet
EndChar
StartChar: pi
Encoding: 960 960 552
Width: 661
Flags: W
HStem: -4 68<515 578.5> 454 70<53 605>
VStem: 124 93<0 454> 453 88<64 454>
Fore
571 64 m 0
 586 64 597 72 601 76 c 1
 617 14 l 1
 601 8 565 -4 543 -4 c 0
 487 -4 453 14 453 114 c 2
 453 454 l 1
 217 454 l 1
 217 0 l 1
 123 0 l 1
 124 454 l 1
 53 454 l 1
 53 524 l 1
 605 524 l 1
 605 454 l 1
 541 454 l 1
 541 116 l 2
 541 84 541 64 571 64 c 0
EndSplineSet
EndChar
StartChar: rho
Encoding: 961 961 553
Width: 566
Flags: W
HStem: -10 74<262 330.5> 460 72<246.5 374>
VStem: 57 88<-200 376> 451 90<184 348>
Fore
57 270 m 2
 57 482 196 532 297 532 c 0
 451 532 541 426 541 270 c 0
 541 117 494 61 411 15 c 0
 382 -2 344 -10 297 -10 c 0
 227 -10 178 17 145 61 c 1
 145 -200 l 1
 57 -200 l 1
 57 270 l 2
297 64 m 0
 364 64 451 104 451 264 c 0
 451 421 359 460 297 460 c 0
 234 460 145 420 145 262 c 0
 145 104 230 64 297 64 c 0
EndSplineSet
EndChar
StartChar: sigma1
Encoding: 962 962 554
Width: 535
Flags: W
HStem: 458 78<201 343.5>
VStem: 22 96<195.5 354.5> 403 97<-48.5 15>
Fore
22 276 m 0
 22 433 124 536 278 536 c 0
 409 536 501 452 501 324 c 1
 410 324 l 1
 410 410 357 458 270 458 c 0
 209 458 118 421 118 274 c 0
 118 117 234 99 364 87 c 0
 448 75 500 58 500 -28 c 0
 500 -69 469 -143 452 -182 c 1
 362 -150 l 1
 374 -126 403 -54 403 -34 c 0
 403 -7 358 -4 318 -2 c 0
 225 2 192 13 125 62 c 0
 67 101 22 177 22 276 c 0
EndSplineSet
EndChar
StartChar: sigma
Encoding: 963 963 555
Width: 616
Flags: W
HStem: -12 74<197.5 352> 444 82<454 590> 458 72<222 330>
VStem: 34 90<179 368> 428 90<179 313>
Fore
34 260 m 0xd8
 34 476 169 530 276 530 c 0xb8
 295 530 312 529 326 526 c 1
 590 526 l 1
 590 444 l 1
 454 444 l 1
 497 389 518 328 518 260 c 0
 518 98 428 -12 276 -12 c 0
 119 -12 34 98 34 260 c 0xd8
124 260 m 0
 124 103 209 62 276 62 c 0
 376 62 428 143 428 260 c 0
 428 366 384 458 276 458 c 0
 168 458 124 362 124 260 c 0
EndSplineSet
EndChar
StartChar: tau
Encoding: 964 964 556
Width: 532
Flags: W
HStem: -4 84<277.5 349.5> 451 73<42 494>
VStem: 206 88<93 451>
Fore
328 -4 m 0
 227 -4 206 42 206 144 c 2
 206 451 l 1
 42 451 l 1
 42 524 l 1
 494 524 l 1
 494 451 l 1
 294 451 l 1
 294 152 l 2
 294 98 298 80 344 80 c 0
 355 80 373 84 377 85 c 1
 396 6 l 1
 382 2 347 -4 328 -4 c 0
EndSplineSet
EndChar
StartChar: upsilon
Encoding: 965 965 557
Width: 515
Flags: W
HStem: -14 76<167.5 327.5> 504 20G<40 128 390 478>
VStem: 40 88<130.5 524> 390 88<108 524>
Fore
128 232 m 2
 128 109 144 62 260 62 c 0
 302 62 329 69 355 89 c 0
 387 111 390 164 390 232 c 2
 390 524 l 1
 478 524 l 1
 478 198 l 2
 478 18 393 -14 262 -14 c 0
 73 -14 40 63 40 198 c 2
 40 524 l 1
 128 524 l 1
 128 232 l 2
EndSplineSet
EndChar
StartChar: phi
Encoding: 966 966 558
Width: 741
Flags: W
HStem: -10 81<228 333 421 528.5> 434 90<421 501.5>
VStem: 46 84<179.5 313> 333 88<-200 -10 71 524> 613 84<178.5 331.5>
Fore
311 -10 m 2
 145 -10 46 109 46 250 c 0
 46 376 119 469 206 514 c 1
 248 446 l 1
 185 406 130 338 130 254 c 0
 130 151 208 71 313 71 c 2
 333 71 l 1
 333 524 l 1
 421 524 l 2
 582 524 697 413 697 250 c 0
 697 107 604 -10 453 -10 c 2
 421 -10 l 1
 421 -200 l 1
 333 -200 l 1
 333 -10 l 1
 311 -10 l 2
613 251 m 0
 613 354 549 434 441 434 c 2
 421 434 l 1
 421 71 l 1
 445 71 l 2
 547 71 613 148 613 251 c 0
EndSplineSet
EndChar
StartChar: chi
Encoding: 967 967 559
Width: 572
Flags: W
HStem: -212 85<514 546> 458 80<41 98.5>
Fore
573 -200 m 1
 556 -208 539 -212 522 -212 c 2
 514 -212 l 2
 462 -212 421 -168 399 -123 c 0
 302 74 l 1
 118 -200 l 1
 14 -200 l 1
 248 160 l 1
 99 420 l 2
 85 446 77 458 41 458 c 1
 31 455 23 454 17 454 c 1
 17 532 l 1
 25 534 67 538 73 538 c 0
 124 538 151 516 171 478 c 0
 302 234 l 1
 455 518 l 1
 551 518 l 1
 356 160 l 1
 487 -91 l 2
 501 -122 519 -127 539 -127 c 0
 553 -127 563 -124 573 -121 c 1
 573 -200 l 1
EndSplineSet
EndChar
StartChar: psi
Encoding: 968 968 560
Width: 662
Flags: W
HStem: -2 74<213.5 288 374 449.5> 504 20G<42 132 530 620>
VStem: 42 90<138.5 524> 288 86<-200 -2 72 506> 530 90<140 524>
CounterMasks: 1 00
Fore
620 214 m 2
 620 66 525 -2 374 -2 c 1
 374 -200 l 1
 288 -200 l 1
 288 -2 l 1
 139 -2 42 63 42 214 c 2
 42 524 l 1
 132 524 l 1
 132 242 l 2
 132 125 173 72 288 72 c 1
 288 506 l 1
 374 506 l 1
 374 72 l 1
 489 72 530 126 530 242 c 2
 530 524 l 1
 620 524 l 1
 620 214 l 2
EndSplineSet
EndChar
StartChar: omega
Encoding: 969 969 561
Width: 740
Flags: W
HStem: -9 72<160 263 477.5 553.5>
VStem: 36 84<175.5 289> 328 84<134.5 376> 620 84<142 294.5>
CounterMasks: 1 00
Fore
412 153 m 2
 412 116 434 67 510 63 c 0
 595 63 620 150 620 235 c 0
 620 354 572 435 512 500 c 1
 592 526 l 1
 647 482 704 348 704 241 c 0
 704 43 593 -9 514 -9 c 0
 441 -9 398 28 370 81 c 1
 343 28 300 -9 226 -9 c 0
 94 -9 36 110 36 241 c 0
 36 302 71 465 148 526 c 1
 228 500 l 1
 165 437 120 343 120 235 c 0
 120 151 144 63 229 63 c 0
 312 67 328 122 328 153 c 2
 328 376 l 1
 412 376 l 1
 412 153 l 2
EndSplineSet
EndChar
StartChar: afii10051
Encoding: 1026 1026 569
Width: 766
Flags: W
HStem: -148 66<469 585.5> 0 21G<228 321> 372 82<321 603> 649 80<28 518>
VStem: 227 94<0 649> 625 93<-16 343.5>
Fore
553 454 m 2
 653 454 718 389 718 298 c 2
 718 0 l 2
 718 -125 620 -148 551 -148 c 2
 469 -148 l 1
 469 -82 l 1
 568 -82 l 2
 603 -82 625 -60 625 -16 c 2
 625 315 l 2
 625 350 603 372 559 372 c 2
 321 372 l 1
 321 0 l 1
 228 0 l 1
 227 649 l 1
 28 649 l 1
 28 729 l 1
 518 729 l 1
 518 649 l 1
 321 649 l 1
 321 454 l 1
 553 454 l 2
EndSplineSet
EndChar
StartChar: afii10053
Encoding: 1028 1028 571
Width: 722
Flags: W
HStem: -23 82<245.5 466> 332 82<142 508> 659 82<248 461>
VStem: 48 460<281.5 432>
Fore
567 503 m 1
 546 605 488 659 370 659 c 0
 244 659 160 567 144 414 c 1
 508 414 l 1
 508 332 l 1
 142 332 l 1
 150 164 240 59 378 59 c 0
 500 59 559 128 581 266 c 1
 677 266 l 1
 655 73 555 -23 377 -23 c 0
 114 -23 48 207 48 356 c 0
 48 508 115 741 381 741 c 0
 541 741 633 663 662 503 c 1
 567 503 l 1
EndSplineSet
EndChar
StartChar: afii10058
Encoding: 1033 1033 576
Width: 1080
Flags: W
HStem: 0 82<514 871.5> 333 82<607 788> 647 82<194 607>
VStem: 194 95<410 561> 513 94<333 333 415 647> 929 93<181.5 267>
Fore
514 0 m 1
 513 647 l 1
 288 647 l 1
 288 610 289 524 289 524 c 2
 289 296 273 -0 83 0 c 1
 83 94 l 1
 185 94 194 314 194 561 c 2
 194 729 l 1
 607 729 l 1
 607 415 l 1
 754 415 l 2
 929 415 1022 324 1022 210 c 0
 1022 208 l 0
 1021 82 936 0 807 0 c 2
 514 0 l 1
798 82 m 2
 903 82 929 156 929 207 c 0
 929 281 874 333 788 333 c 2
 607 333 l 1
 607 82 l 1
 798 82 l 2
EndSplineSet
EndChar
StartChar: afii10059
Encoding: 1034 1034 577
Width: 1014
Flags: W
HStem: 0 82<481 821> 332 82<176 481> 709 20G<83 176 481 574>
VStem: 83 93<414 729> 481 93<0 333 414 729> 879 93<181.5 244>
CounterMasks: 1 00
Fore
481 0 m 1
 481 332 l 1
 177 332 l 1
 177 0 l 1
 83 0 l 1
 83 729 l 1
 176 729 l 1
 176 414 l 1
 481 414 l 1
 481 729 l 1
 574 729 l 1
 574 415 l 1
 714 415 l 2
 886 415 971 322 972 208 c 0
 972 206 l 0
 972 83 885 -0 757 0 c 2
 481 0 l 1
748 82 m 2
 853 82 879 156 879 207 c 0
 879 281 824 333 738 333 c 2
 574 333 l 1
 574 82 l 1
 748 82 l 2
EndSplineSet
EndChar
StartChar: afii10060
Encoding: 1035 1035 578
Width: 766
Flags: W
HStem: 0 21G<228 321 625 718> 372 82<321 603> 649 80<28 518>
VStem: 227 94<0 649> 625 93<0 343.5>
Fore
553 454 m 2
 653 454 718 389 718 298 c 2
 718 0 l 1
 625 0 l 1
 625 315 l 2
 625 350 603 372 559 372 c 2
 321 372 l 1
 321 0 l 1
 228 0 l 1
 227 649 l 1
 28 649 l 1
 28 729 l 1
 518 729 l 1
 518 649 l 1
 321 649 l 1
 321 454 l 1
 553 454 l 2
EndSplineSet
EndChar
StartChar: afii10145
Encoding: 1039 1039 582
Width: 722
Flags: W
HStem: 0 82<177 551> 709 20G<83 177 551 645>
VStem: 83 94<0 729> 324 80<-135 0> 551 94<0 729>
CounterMasks: 1 00
Fore
404 0 m 1
 404 -135 l 1
 324 -135 l 1
 324 0 l 1
 83 0 l 1
 83 729 l 1
 177 729 l 1
 177 82 l 1
 551 82 l 1
 551 729 l 1
 645 729 l 1
 645 0 l 1
 404 0 l 1
EndSplineSet
EndChar
StartChar: afii10018
Encoding: 1041 1041 584
Width: 667
Flags: W
HStem: 0 82<79 494> 353 82<172 399> 647 82<79 568>
VStem: 79 93<0 729> 530 93<175 243.5>
Fore
623 218 m 2
 623 132 580 0 408 0 c 2
 79 0 l 1
 79 729 l 1
 568 729 l 1
 568 647 l 1
 172 647 l 1
 172 435 l 1
 352 435 l 2
 545 435 623 351 623 220 c 0
 623 218 l 2
530 217 m 0
 530 270 510 353 399 353 c 2
 172 353 l 1
 172 82 l 1
 399 82 l 2
 510 82 530 165 530 217 c 0
EndSplineSet
EndChar
StartChar: afii10020
Encoding: 1043 1043 586
Width: 611
Flags: W
HStem: 0 21G<79 172> 647 82<79 568>
VStem: 79 93<0 729>
AnchorPoint: "above" 276 732 basechar 0
Fore
172 0 m 1
 79 0 l 1
 79 729 l 1
 568 729 l 1
 568 647 l 1
 172 647 l 1
 172 0 l 1
EndSplineSet
EndChar
StartChar: afii10021
Encoding: 1044 1044 587
Width: 812
Flags: W
HStem: 0 74<114 698> 647 82<237 687>
VStem: 34 80<-135 74> 237 95<419 591> 593 94<74 729> 698 80<-135 74>
Fore
262 82 m 1
 593 82 l 1
 593 647 l 1
 331 647 l 1
 331 602 332 549 332 493 c 0
 332 345 324 179 262 82 c 1
126 74 m 1
 228 121 237 325 237 564 c 0
 237 618 237 673 237 729 c 1
 687 729 l 1
 687 74 l 1
 778 74 l 1
 778 -135 l 1
 698 -135 l 1
 698 0 l 1
 114 0 l 1
 114 -135 l 1
 34 -135 l 1
 34 74 l 1
 126 74 l 1
EndSplineSet
EndChar
StartChar: afii10024
Encoding: 1046 1046 589
Width: 1023
Flags: W
HStem: 0 21G<63 173 459 552 830 948> 709 20G<105 221 459 552 790 906>
VStem: 459 93<0 324 421 729>
AnchorPoint: "above" 506 726 basechar 0
Fore
459 324 m 1
 173 0 l 1
 63 0 l 1
 388 375 l 1
 105 729 l 1
 221 729 l 1
 459 421 l 1
 459 729 l 1
 552 729 l 1
 552 421 l 1
 790 729 l 1
 906 729 l 1
 623 375 l 1
 948 0 l 1
 830 0 l 1
 552 324 l 1
 552 0 l 1
 459 0 l 1
 459 324 l 1
EndSplineSet
EndChar
StartChar: afii10025
Encoding: 1047 1047 590
Width: 667
Flags: W
HStem: -23 82<259.5 450> 321 82<257 412.5> 663 78<253 417>
VStem: 48 88<190 232> 503 93<489.5 593> 528 93<155.5 241>
AnchorPoint: "above" 339 743 basechar 0
Fore
342 59 m 0xf4
 500 59 528 139 528 191 c 0xf4
 528 248 460 321 365 321 c 2
 257 321 l 1
 257 403 l 1
 345 403 l 2
 434 403 503 484 503 540 c 0
 503 614 438 663 340 663 c 0
 224 663 159 610 158 515 c 1
 70 515 l 1
 71 658 169 741 337 741 c 0
 497 741 596 659 596 527 c 0xf8
 596 452 559 403 491 374 c 1
 574 343 621 282 621 200 c 0
 621 111 564 -23 336 -23 c 0
 210 -23 51 25 48 232 c 1
 136 232 l 1
 136 230 136 229 136 227 c 0
 136 153 177 59 342 59 c 0xf4
EndSplineSet
EndChar
StartChar: afii10026
Encoding: 1048 1048 591
Width: 728
Flags: W
HStem: 0 21G<79 184 561 649> 709 20G<79 167 548 649>
VStem: 79 88<0 729> 561 88<0 729>
AnchorPoint: "above" 360 732 basechar 0
Fore
79 729 m 1
 167 729 l 1
 167 126 l 1
 548 729 l 1
 649 729 l 1
 649 0 l 1
 561 0 l 1
 561 598 l 1
 184 0 l 1
 79 0 l 1
 79 729 l 1
EndSplineSet
EndChar
StartChar: afii10028
Encoding: 1050 1050 593
Width: 667
Flags: W
HStem: 0 21G<79 172 497 621> 709 20G<79 172 477 588>
VStem: 79 93<0 729>
AnchorPoint: "above" 306 726 basechar 0
Fore
172 0 m 1
 79 0 l 1
 79 729 l 1
 172 729 l 1
 172 423 l 1
 477 729 l 1
 588 729 l 1
 243 384 l 1
 621 0 l 1
 497 0 l 1
 172 333 l 1
 172 0 l 1
EndSplineSet
EndChar
StartChar: afii10029
Encoding: 1051 1051 594
Width: 673
Flags: W
HStem: 0 21G<500 594> 647 82<144 594>
VStem: 144 95<408.5 588> 500 94<0 729>
Fore
500 647 m 1
 238 647 l 1
 238 610 239 568 239 524 c 0
 239 293 223 -10 33 -10 c 1
 33 84 l 1
 135 84 144 311 144 560 c 0
 144 616 144 673 144 729 c 1
 594 729 l 1
 594 0 l 1
 500 0 l 1
 500 647 l 1
EndSplineSet
EndChar
StartChar: afii10033
Encoding: 1055 1055 598
Width: 719
Flags: W
HStem: 0 21G<79 173 546 640> 647 82<79 640>
VStem: 79 94<0 729> 546 94<0 729>
Fore
546 647 m 1
 173 647 l 1
 173 0 l 1
 79 0 l 1
 79 729 l 1
 640 729 l 1
 640 0 l 1
 546 0 l 1
 546 647 l 1
EndSplineSet
EndChar
StartChar: afii10037
Encoding: 1059 1059 602
Width: 650
Flags: W
HStem: 0 21G<139 252> 709 20G<26 139 508 619>
AnchorPoint: "above" 324 732 basechar 0
Fore
252 0 m 1
 139 0 l 1
 268 244 l 1
 26 729 l 1
 139 729 l 1
 324 350 l 1
 508 729 l 1
 619 729 l 1
 252 0 l 1
EndSplineSet
EndChar
StartChar: afii10038
Encoding: 1060 1060 603
Width: 936
Flags: W
HStem: 0 21G<399 494> 94 82<343.5 399 494 549.5> 554 82<341 399 494 522.5> 709 20G<399 494>
VStem: 64 100<233.5 492> 399 95<0 94 176 554 636 729> 729 100<233.5 492>
CounterMasks: 1 00
Fore
494 636 m 1
 497 636 500 636 504 636 c 0
 600 636 829 619 829 365 c 0
 829 102 605 94 494 94 c 1
 494 0 l 1
 399 0 l 1
 399 94 l 1
 288 94 64 102 64 365 c 0
 64 619 293 636 389 636 c 0
 393 636 396 636 399 636 c 1
 399 729 l 1
 494 729 l 1
 494 636 l 1
494 176 m 1
 551 176 729 190 729 365 c 0
 729 540 551 554 494 554 c 1
 494 176 l 1
399 176 m 1
 399 554 l 1
 342 554 164 540 164 365 c 0
 164 190 342 176 399 176 c 1
EndSplineSet
EndChar
StartChar: afii10040
Encoding: 1062 1062 605
Width: 741
Flags: W
HStem: 0 82<79 627> 709 20G<79 173 546 640>
VStem: 79 94<0 729> 546 94<74 729> 627 80<-135 74>
Fore
546 82 m 1xf0
 546 729 l 1
 640 729 l 1
 640 74 l 1xf0
 707 74 l 1
 707 -135 l 1
 627 -135 l 1
 627 0 l 1xe8
 79 0 l 1
 79 729 l 1
 173 729 l 1
 173 82 l 1
 546 82 l 1xf0
EndSplineSet
EndChar
StartChar: afii10041
Encoding: 1063 1063 606
Width: 648
Flags: W
HStem: 0 21G<476 569> 275 82<244 476> 709 20G<79 172 476 569>
VStem: 79 93<391.5 729> 476 93<0 729>
AnchorPoint: "above" 336 732 basechar 0
Fore
476 275 m 1
 244 275 l 2
 136 275 79 351 79 432 c 2
 79 729 l 1
 172 729 l 1
 172 414 l 2
 172 373 206 357 248 357 c 2
 476 357 l 1
 476 729 l 1
 569 729 l 1
 569 0 l 1
 476 0 l 1
 476 275 l 1
EndSplineSet
EndChar
StartChar: afii10042
Encoding: 1064 1064 607
Width: 828
Flags: W
HStem: 0 82<79 749> 709 20G<79 173 367 461 655 749>
VStem: 79 94<0 729> 367 94<82 729> 655 94<0 729>
CounterMasks: 1 00
Fore
461 82 m 1
 655 82 l 1
 655 729 l 1
 749 729 l 1
 749 0 l 1
 79 0 l 1
 79 729 l 1
 173 729 l 1
 173 82 l 1
 367 82 l 1
 367 729 l 1
 461 729 l 1
 461 82 l 1
EndSplineSet
EndChar
StartChar: afii10043
Encoding: 1065 1065 608
Width: 850
Flags: W
HStem: -20 20G<79 736> 709 20G<79 173 367 461 655 749>
VStem: 79 94<0 729> 367 94<82 729> 655 94<74 729> 736 80<-135 74>
Fore
736 0 m 1xf4
 79 0 l 1
 79 729 l 1
 173 729 l 1
 173 82 l 1
 367 82 l 1
 367 729 l 1
 461 729 l 1
 461 82 l 1
 655 82 l 1
 655 729 l 1
 749 729 l 1
 749 74 l 1xf8
 816 74 l 1
 816 -135 l 1
 736 -135 l 1
 736 0 l 1xf4
EndSplineSet
EndChar
StartChar: afii10044
Encoding: 1066 1066 609
Width: 897
Flags: W
HStem: 0 82<312 692> 369 82<405 617> 647 82<81 405>
VStem: 312 93<0 729> 763 93<184.5 292>
Fore
312 0 m 1
 312 647 l 1
 81 647 l 1
 81 729 l 1
 405 729 l 1
 405 451 l 1
 570 451 l 2
 781 451 856 355 856 229 c 0
 856 226 l 0
 856 93 758 0 626 0 c 2
 312 0 l 1
405 82 m 1
 617 82 l 2
 703 82 763 144 763 225 c 0
 763 310 704 369 617 369 c 2
 405 369 l 1
 405 82 l 1
EndSplineSet
EndChar
StartChar: afii10045
Encoding: 1067 1067 610
Width: 872
Flags: W
HStem: 0 82<79 459> 369 82<172 384> 709 20G<79 172 699 793>
VStem: 79 93<0 729> 530 93<159.5 267.5> 699 94<0 729>
AnchorPoint: "above" 438 732 basechar 0
Fore
623 226 m 0
 623 93 525 0 393 0 c 2
 79 0 l 1
 79 729 l 1
 172 729 l 1
 172 451 l 1
 337 451 l 2
 548 451 623 355 623 229 c 0
 623 226 l 0
172 82 m 1
 384 82 l 2
 470 82 530 144 530 225 c 0
 530 310 471 369 384 369 c 2
 172 369 l 1
 172 82 l 1
793 729 m 1
 793 0 l 1
 699 0 l 1
 699 729 l 1
 793 729 l 1
EndSplineSet
EndChar
StartChar: afii10046
Encoding: 1068 1068 611
Width: 667
Flags: W
HStem: 0 82<79 459> 369 82<172 384> 709 20G<79 172>
VStem: 79 93<0 729> 530 93<159.5 267.5>
Fore
623 226 m 0
 623 93 525 0 393 0 c 2
 79 0 l 1
 79 729 l 1
 172 729 l 1
 172 451 l 1
 337 451 l 2
 548 451 623 355 623 229 c 0
 623 226 l 0
172 82 m 1
 384 82 l 2
 470 82 530 144 530 225 c 0
 530 310 471 369 384 369 c 2
 172 369 l 1
 172 82 l 1
EndSplineSet
EndChar
StartChar: afii10047
Encoding: 1069 1069 612
Width: 722
Flags: W
HStem: -23 82<259 479.5> 332 82<217 584> 659 82<264 477>
VStem: 217 460<281.5 432>
AnchorPoint: "above" 356 740 basechar 0
Fore
144 266 m 1
 166 128 224 59 347 59 c 0
 485 59 575 164 584 332 c 1
 217 332 l 1
 217 414 l 1
 581 414 l 1
 565 567 481 659 355 659 c 0
 236 659 179 605 158 503 c 1
 63 503 l 1
 92 663 184 741 344 741 c 0
 610 741 677 508 677 356 c 0
 677 207 611 -23 348 -23 c 0
 170 -23 70 73 48 266 c 1
 144 266 l 1
EndSplineSet
EndChar
StartChar: afii10048
Encoding: 1070 1070 613
Width: 1032
Flags: W
HStem: -23 82<528 724.5> 332 82<176 297> 659 82<529 732>
VStem: 83 93<414 729> 865 93<249 470.5>
Fore
958 353 m 0
 958 145 820 -23 629 -23 c 0
 427 -23 305 119 295 332 c 1
 177 332 l 1
 177 0 l 1
 83 0 l 1
 83 729 l 1
 176 729 l 1
 176 414 l 1
 297 414 l 1
 318 611 433 741 625 741 c 0
 839 741 958 588 958 353 c 0
625 659 m 0
 471 659 387 539 387 359 c 0
 387 179 471 59 626 59 c 0
 780 59 865 179 865 355 c 0
 865 539 783 659 625 659 c 0
EndSplineSet
EndChar
StartChar: afii10049
Encoding: 1071 1071 614
Width: 702
Flags: W
HStem: 0 21G<32 142 530 623> 314 82<234.5 305 303 530> 647 82<229.5 623>
VStem: 79 93<495 583.5> 530 93<0 729>
Fore
79 521 m 0
 79 646 165 729 294 729 c 2
 623 729 l 1
 623 0 l 1
 530 0 l 1
 530 314 l 1
 419 314 l 1
 142 0 l 1
 32 0 l 1
 305 314 l 1
 164 314 94 401 79 521 c 0
172 521 m 0
 172 469 198 396 303 396 c 2
 530 396 l 1
 530 647 l 1
 303 647 l 2
 198 647 172 573 172 521 c 0
EndSplineSet
EndChar
StartChar: afii10066
Encoding: 1073 1073 616
Width: 556
Flags: W
HStem: -23 77<198.5 346.5> 462 77<226.5 347.5>
VStem: 36 87<170 350> 423 87<168 344.5>
Fore
117 469 m 1
 155 530 230 539 272 539 c 0
 423 539 510 435 510 254 c 0
 510 82 420 -23 273 -23 c 0
 124 -23 36 82 36 258 c 0
 36 442 68 658 207 690 c 0
 276 705 396 707 396 775 c 1
 470 775 l 1
 470 640 413 656 224 611 c 0
 171 598 129 541 117 469 c 1
273 462 m 0
 180 462 123 384 123 258 c 0
 123 131 180 54 273 54 c 0
 365 54 423 132 423 255 c 0
 423 385 367 462 273 462 c 0
EndSplineSet
EndChar
StartChar: afii10067
Encoding: 1074 1074 617
Width: 522
Flags: W
HStem: 0 76<70 361> 231 76<154 286> 449 75<70 350>
VStem: 70 84<0 524> 357 84<362 420> 377 91<107.5 181.5>
Fore
289 524 m 2xf4
 411 524 441 448 441 392 c 0xf8
 441 338 419 300 372 277 c 1
 439 251 468 213 468 150 c 0
 468 65 409 0 313 0 c 2
 70 0 l 1
 70 524 l 1
 289 524 l 2xf4
357 376 m 0
 357 405 341 449 252 449 c 2
 154 449 l 1
 154 307 l 1
 252 307 l 2
 341 307 357 348 357 376 c 0
377 161 m 0xf4
 377 221 322 231 286 231 c 2
 154 231 l 1
 154 76 l 1
 286 76 l 2
 342 76 377 108 377 155 c 0
 377 161 l 0xf4
EndSplineSet
EndChar
StartChar: afii10068
Encoding: 1075 1075 618
Width: 430
Flags: W
HStem: 0 21G<70 154> 448 76<70 380>
VStem: 70 84<0 524>
AnchorPoint: "above" 212 524 basechar 0
Fore
70 524 m 1
 380 524 l 1
 380 448 l 1
 154 448 l 1
 154 0 l 1
 70 0 l 1
 70 524 l 1
EndSplineSet
EndChar
StartChar: afii10069
Encoding: 1076 1076 619
Width: 602
Flags: W
HStem: 0 76<100 502> 448 76<169 508>
VStem: 30 70<-120 64> 169 339<64 524> 424 84<76 448 524 524> 502 70<-120 64>
Fore
87 64 m 1xe4
 157 71 169 292 169 524 c 1
 508 524 l 1
 508 64 l 1xf0
 572 64 l 1
 572 -120 l 1
 502 -120 l 1
 502 0 l 1
 100 0 l 1
 100 -120 l 1
 30 -120 l 1
 30 64 l 1
 87 64 l 1xe4
203 76 m 1
 424 76 l 1
 424 448 l 1xe8
 252 448 l 1
 252 430 252 389 252 389 c 2
 252 286 247 156 203 76 c 1
EndSplineSet
EndChar
StartChar: afii10072
Encoding: 1078 1078 621
Width: 837
Flags: W
HStem: 0 21G<44 150 375 458 683 789> 504 20G<76 183 375 458 650 757>
VStem: 375 83<0 226 323 524>
AnchorPoint: "above" 418 524 basechar 0
Fore
458 524 m 1
 375 524 l 1
 375 323 l 1
 183 524 l 1
 76 524 l 1
 318 274 l 1
 44 0 l 1
 150 0 l 1
 375 226 l 1
 375 0 l 1
 458 0 l 1
 458 226 l 1
 683 0 l 1
 789 0 l 1
 515 274 l 1
 757 524 l 1
 650 524 l 1
 458 323 l 1
 458 524 l 1
EndSplineSet
EndChar
StartChar: afii10073
Encoding: 1079 1079 622
Width: 500
Flags: W
HStem: -23 77<174.5 309> 221 76<192 296> 462 77<176.5 298>
VStem: 351 87<352.5 427.5> 368 91<92.5 173>
AnchorPoint: "above" 239 537 basechar 0
Fore
122 156 m 1xe8
 129 105 148 54 250 54 c 0
 323 54 368 87 368 136 c 0xe8
 368 174 326 221 266 221 c 2
 192 221 l 1
 192 297 l 1
 254 297 l 2
 324 297 351 346 351 383 c 0
 351 431 308 462 240 462 c 0
 173 462 137 433 135 378 c 1
 47 378 l 1
 48 481 116 539 237 539 c 0
 359 539 438 476 438 379 c 0xf0
 438 326 419 293 373 267 c 1
 432 241 459 203 459 143 c 0
 459 42 375 -23 243 -23 c 0
 106 -23 38 35 34 156 c 1
 122 156 l 1xe8
EndSplineSet
EndChar
StartChar: afii10074
Encoding: 1080 1080 623
Width: 567
Flags: W
HStem: 0 21G<70 179 414 497> 504 20G<70 154 389 497>
VStem: 70 84<0 524> 414 83<0 524>
AnchorPoint: "above" 284 524 basechar 0
Fore
70 524 m 1
 154 524 l 1
 154 111 l 1
 389 524 l 1
 497 524 l 1
 497 0 l 1
 414 0 l 1
 414 413 l 1
 179 0 l 1
 70 0 l 1
 70 524 l 1
EndSplineSet
EndChar
StartChar: afii10076
Encoding: 1082 1082 625
Width: 510
Flags: W
HStem: 0 21G<70 153 378 484> 504 20G<70 153 365 461>
VStem: 70 83<0 524>
AnchorPoint: "above" 236 524 basechar 0
Fore
153 524 m 1
 153 312 l 1
 365 524 l 1
 461 524 l 1
 210 274 l 1
 484 0 l 1
 378 0 l 1
 153 226 l 1
 153 0 l 1
 70 0 l 1
 70 524 l 1
 153 524 l 1
EndSplineSet
EndChar
StartChar: afii10077
Encoding: 1083 1083 626
Width: 557
Flags: W
HStem: 0 21G<403 487> 448 76<148 487>
VStem: 148 83<341.5 448> 403 84<0 524>
Fore
148 524 m 1
 487 524 l 1
 487 0 l 1
 403 0 l 1
 403 448 l 1
 231 448 l 1
 231 433 231 350 231 350 c 2
 231 202 220 -10 70 -10 c 1
 70 70 l 1
 146 70 148 242 148 441 c 2
 148 524 l 1
EndSplineSet
EndChar
StartChar: afii10078
Encoding: 1084 1084 627
Width: 618
Flags: W
HStem: 0 21G<70 154 464 548> 504 20G<70 174 444 548>
VStem: 70 84<0 524> 464 84<0 524>
Fore
70 524 m 1
 174 524 l 1
 309 198 l 1
 444 524 l 1
 548 524 l 1
 548 0 l 1
 464 0 l 1
 464 363 l 1
 334 40 l 1
 284 40 l 1
 154 363 l 1
 154 0 l 1
 70 0 l 1
 70 524 l 1
EndSplineSet
EndChar
StartChar: afii10079
Encoding: 1085 1085 628
Width: 558
Flags: W
HStem: 0 21G<70 154 404 488> 233 76<154 404> 504 20G<70 154 404 488>
VStem: 70 84<0 524> 404 84<0 524>
Fore
70 524 m 1
 154 524 l 1
 154 309 l 1
 404 309 l 1
 404 524 l 1
 488 524 l 1
 488 0 l 1
 404 0 l 1
 404 233 l 1
 154 233 l 1
 154 0 l 1
 70 0 l 1
 70 524 l 1
EndSplineSet
EndChar
StartChar: afii10081
Encoding: 1087 1087 630
Width: 557
Flags: W
HStem: 0 21G<70 154 403 487> 448 76<70 487>
VStem: 70 84<0 524> 403 84<0 524>
Fore
70 524 m 1
 487 524 l 1
 487 0 l 1
 403 0 l 1
 403 448 l 1
 154 448 l 1
 154 0 l 1
 70 0 l 1
 70 524 l 1
EndSplineSet
EndChar
StartChar: afii10084
Encoding: 1090 1090 633
Width: 496
Flags: W
HStem: 0 21G<204 288> 448 76<60 432>
VStem: 204 84<0 448>
Fore
60 524 m 1
 432 524 l 1
 432 448 l 1
 288 448 l 1
 288 0 l 1
 204 0 l 1
 204 448 l 1
 60 448 l 1
 60 524 l 1
EndSplineSet
EndChar
StartChar: afii10086
Encoding: 1092 1092 635
Width: 912
Flags: W
HStem: -23 78<196 325 582 708.5> 461 78<200 325.5 582 709.5>
VStem: 61 87<167 339> 412 83<-218 60 195 319.5 445 674> 763 87<169.5 341>
Fore
495 445 m 1
 524 506 569 539 640 539 c 0
 779 539 850 429 850 253 c 0
 850 86 776 -23 641 -23 c 0
 573 -23 539 1 495 55 c 1
 495 -218 l 1
 412 -218 l 1
 412 60 l 1
 373 3 338 -23 265 -23 c 0
 127 -23 61 82 61 252 c 0
 61 426 131 539 269 539 c 0
 338 539 382 502 412 445 c 1
 412 674 l 1
 495 674 l 1
 495 445 l 1
626 461 m 0
 538 461 495 381 495 258 c 0
 495 135 538 55 626 55 c 0
 717 55 763 136 763 255 c 0
 763 380 718 461 626 461 c 0
281 461 m 0
 189 461 148 379 148 258 c 0
 148 136 189 55 281 55 c 0
 369 55 412 135 412 255 c 0
 412 381 370 461 281 461 c 0
EndSplineSet
EndChar
StartChar: afii10088
Encoding: 1094 1094 637
Width: 578
Flags: W
HStem: 0 76<70 478> 504 20G<70 154 403 487>
VStem: 70 84<0 524> 403 84<64 524> 478 70<-120 64>
Fore
70 0 m 1xe8
 70 524 l 1
 154 524 l 1
 154 76 l 1
 403 76 l 1
 403 524 l 1
 487 524 l 1
 487 64 l 1xf0
 548 64 l 1
 548 -120 l 1
 478 -120 l 1
 478 0 l 1
 70 0 l 1xe8
EndSplineSet
EndChar
StartChar: afii10089
Encoding: 1095 1095 638
Width: 520
Flags: W
HStem: 0 21G<366 450> 201 76<178 366> 504 20G<70 154 366 450>
VStem: 70 84<284 524 309 524> 366 84<0 524>
AnchorPoint: "above" 260 524 basechar 0
Fore
70 524 m 1
 154 524 l 1
 154 327 l 2
 154 291 183 277 212 277 c 2
 366 277 l 1
 366 524 l 1
 450 524 l 1
 450 0 l 1
 366 0 l 1
 366 201 l 1
 215 201 l 2
 141 201 70 244 70 324 c 2
 70 524 l 1
EndSplineSet
EndChar
StartChar: afii10090
Encoding: 1096 1096 639
Width: 692
Flags: W
HStem: 0 76<70 622> 504 20G<70 154 304 388 538 622>
VStem: 70 84<0 524> 304 84<76 524> 538 84<0 524>
CounterMasks: 1 00
Fore
388 76 m 1
 538 76 l 1
 538 524 l 1
 622 524 l 1
 622 0 l 1
 70 0 l 1
 70 524 l 1
 154 524 l 1
 154 76 l 1
 304 76 l 1
 304 524 l 1
 388 524 l 1
 388 76 l 1
EndSplineSet
EndChar
StartChar: afii10091
Encoding: 1097 1097 640
Width: 712
Flags: W
HStem: -20 20G<70 612> 504 20G<70 154 304 388 538 622>
VStem: 70 84<0 524> 304 84<76 524> 538 84<64 524> 612 70<-120 64>
Fore
612 0 m 1xf4
 70 0 l 1
 70 524 l 1
 154 524 l 1
 154 76 l 1
 304 76 l 1
 304 524 l 1
 388 524 l 1
 388 76 l 1
 538 76 l 1
 538 524 l 1
 622 524 l 1
 622 64 l 1xf8
 682 64 l 1
 682 -120 l 1
 612 -120 l 1
 612 0 l 1xf4
EndSplineSet
EndChar
StartChar: afii10092
Encoding: 1098 1098 641
Width: 734
Flags: W
HStem: 0 76<240 534.5> 265 76<324 514> 448 76<57 324>
VStem: 240 84<0 524> 562 91<118 220.5>
Fore
240 0 m 1
 240 448 l 1
 57 448 l 1
 57 524 l 1
 324 524 l 1
 324 341 l 1
 437 341 l 2
 440 341 l 0
 588 341 653 274 653 167 c 0
 653 69 583 0 486 0 c 2
 240 0 l 1
324 76 m 1
 448 76 l 2
 544 76 562 118 562 164 c 0
 562 236 524 265 448 265 c 2
 324 265 l 1
 324 76 l 1
EndSplineSet
EndChar
StartChar: afii10093
Encoding: 1099 1099 642
Width: 690
Flags: W
HStem: 0 76<70 364.5> 265 76<154 344> 504 20G<70 154 537 620>
VStem: 70 84<0 524> 392 91<118 220.5> 537 83<0 524>
AnchorPoint: "above" 345 524 basechar 0
Fore
154 524 m 1
 154 341 l 1
 267 341 l 2
 270 341 l 0
 418 341 483 274 483 167 c 0
 483 69 413 0 316 0 c 2
 70 0 l 1
 70 524 l 1
 154 524 l 1
154 76 m 1
 278 76 l 2
 374 76 392 118 392 164 c 0
 392 236 354 265 278 265 c 2
 154 265 l 1
 154 76 l 1
620 524 m 1
 620 0 l 1
 537 0 l 1
 537 524 l 1
 620 524 l 1
EndSplineSet
EndChar
StartChar: afii10094
Encoding: 1100 1100 643
Width: 552
Flags: W
HStem: 0 76<70 364.5> 265 76<154 344> 504 20G<70 154>
VStem: 70 84<0 524> 392 91<118 220.5>
Fore
154 524 m 1
 154 341 l 1
 267 341 l 2
 270 341 l 0
 418 341 483 274 483 167 c 0
 483 69 413 0 316 0 c 2
 70 0 l 1
 70 524 l 1
 154 524 l 1
154 76 m 1
 278 76 l 2
 374 76 392 118 392 164 c 0
 392 236 354 265 278 265 c 2
 154 265 l 1
 154 76 l 1
EndSplineSet
EndChar
StartChar: afii10095
Encoding: 1101 1101 644
Width: 500
Flags: W
HStem: -23 77<182.5 316> 232 77<163 390> 462 77<184 314.5>
VStem: 163 314<168.5 340>
AnchorPoint: "above" 246 541 basechar 0
Fore
37 348 m 1
 47 472 124 539 244 539 c 0
 385 539 477 427 477 253 c 0
 477 84 387 -23 245 -23 c 0
 120 -23 41 52 31 180 c 1
 115 180 l 1
 129 96 172 54 243 54 c 0
 330 54 384 120 390 232 c 1
 163 232 l 1
 163 309 l 1
 387 309 l 1
 373 406 322 462 245 462 c 0
 175 462 131 421 121 348 c 1
 37 348 l 1
EndSplineSet
EndChar
StartChar: afii10096
Encoding: 1102 1102 645
Width: 758
Flags: W
HStem: -23 77<387 557.5> 233 76<154 250> 462 77<385.5 558.5>
VStem: 70 84<0 524> 248 86<191 321> 634 87<168 344.5>
Fore
250 309 m 1
 250 357 288 539 483 539 c 0
 634 539 721 435 721 254 c 0
 721 82 631 -23 484 -23 c 0
 290 -23 248 149 248 233 c 1
 154 233 l 1
 154 0 l 1
 70 0 l 1
 70 524 l 1
 154 524 l 1
 154 309 l 1
 250 309 l 1
484 462 m 0
 391 462 334 384 334 258 c 0
 334 131 391 54 484 54 c 0
 576 54 634 132 634 255 c 0
 634 385 578 462 484 462 c 0
EndSplineSet
EndChar
StartChar: afii10097
Encoding: 1103 1103 646
Width: 543
Flags: W
HStem: 0 21G<14 117 389 473> 218 76<252 389> 449 75<163 473>
VStem: 70 91<324.5 403> 389 84<0 524>
Fore
70 375 m 0
 70 431 101 524 225 524 c 2
 473 524 l 1
 473 0 l 1
 389 0 l 1
 389 218 l 1
 320 218 l 1
 117 0 l 1
 14 0 l 1
 219 221 l 1
 136 228 70 274 70 375 c 0
161 364 m 0
 161 304 216 294 252 294 c 2
 389 294 l 1
 389 449 l 1
 252 449 l 2
 196 449 161 417 161 370 c 0
 161 364 l 0
EndSplineSet
EndChar
StartChar: afii10099
Encoding: 1106 1106 649
Width: 568
Flags: W
HStem: -163 41<258 309> 0 21G<102 185> 451 73<280.5 401> 596 64<18 102 185 356> 709 20G<102 185>
VStem: 102 83<0 596 660 729> 434 83<96 428.5>
Fore
434 348 m 2
 434 430 370 451 326 451 c 0
 235 451 185 376 185 275 c 2
 185 0 l 1
 102 0 l 1
 102 596 l 1
 18 596 l 1
 18 660 l 1
 102 660 l 1
 102 729 l 1
 185 729 l 1
 185 660 l 1
 356 660 l 1
 356 596 l 1
 185 596 l 1
 185 437 l 1
 206 464 251 524 352 524 c 0
 450 524 517 475 517 382 c 2
 517 106 l 2
 517 -72 346 -163 272 -163 c 0
 267 -163 262 -163 258 -162 c 1
 258 -122 l 1
 314 -120 434 -41 434 96 c 2
 434 348 l 2
EndSplineSet
EndChar
StartChar: afii10101
Encoding: 1108 1108 651
Width: 500
Flags: W
HStem: -23 77<192 325.5> 232 77<118 344> 462 77<193.5 324>
VStem: 31 313<168.5 340>
Fore
344 232 m 1
 118 232 l 1
 124 120 178 54 265 54 c 0
 336 54 379 96 393 180 c 1
 477 180 l 1
 467 52 388 -23 263 -23 c 0
 121 -23 31 84 31 253 c 0
 31 427 123 539 264 539 c 0
 384 539 461 473 471 348 c 1
 387 348 l 1
 377 421 333 462 263 462 c 0
 186 462 135 406 121 309 c 1
 344 309 l 1
 344 232 l 1
EndSplineSet
EndChar
StartChar: afii10106
Encoding: 1113 1113 656
Width: 840
Flags: W
HStem: 0 76<403 694> 234 76<487 611> 448 76<148 487>
VStem: 148 83<262.5 448> 403 84<0 448> 725 91<108 217>
Fore
70 80 m 1
 128 80 148 122 148 403 c 2
 148 524 l 1
 487 524 l 1
 487 310 l 1
 600 310 l 2
 734 310 816 279 816 155 c 0
 816 61 739 0 649 0 c 2
 403 0 l 1
 403 448 l 1
 231 448 l 1
 231 442 231 351 231 351 c 2
 231 64 174 -0 70 0 c 1
 70 80 l 1
611 234 m 2
 487 234 l 1
 487 76 l 1
 611 76 l 2
 681 76 725 88 725 151 c 0
 725 204 702 234 611 234 c 2
EndSplineSet
EndChar
StartChar: afii10107
Encoding: 1114 1114 657
Width: 850
Flags: W
HStem: 0 76<404 695> 233 76<154 404> 504 20G<70 154 404 488>
VStem: 70 84<0 524> 404 84<0 234 309 524> 726 91<109 218>
Fore
650 0 m 2
 404 0 l 1
 404 233 l 1
 154 233 l 1
 154 0 l 1
 70 0 l 1
 70 524 l 1
 154 524 l 1
 154 309 l 1
 404 309 l 1
 404 524 l 1
 488 524 l 1
 488 310 l 1
 601 310 l 2
 735 310 817 280 817 156 c 0
 817 62 740 0 650 0 c 2
612 234 m 2
 488 234 l 1
 488 76 l 1
 612 76 l 2
 682 76 726 86 726 152 c 0
 726 202 703 234 612 234 c 2
EndSplineSet
EndChar
StartChar: afii10108
Encoding: 1115 1115 658
Width: 568
Flags: W
HStem: 0 21G<102 185 434 517> 451 73<280.5 401> 596 64<18 102 185 356> 709 20G<102 185>
VStem: 102 83<0 596 660 729> 434 83<0 428.5>
Fore
434 348 m 2
 434 430 370 451 326 451 c 0
 235 451 185 376 185 275 c 2
 185 0 l 1
 102 0 l 1
 102 596 l 1
 18 596 l 1
 18 660 l 1
 102 660 l 1
 102 729 l 1
 185 729 l 1
 185 660 l 1
 356 660 l 1
 356 596 l 1
 185 596 l 1
 185 437 l 1
 206 464 251 524 352 524 c 0
 450 524 517 475 517 382 c 2
 517 0 l 1
 434 0 l 1
 434 348 l 2
EndSplineSet
EndChar
StartChar: afii10193
Encoding: 1119 1119 662
Width: 556
Flags: W
HStem: 0 76<154 404> 504 20G<70 154 404 488>
VStem: 70 84<0 524> 244 70<-120 0> 404 84<0 524>
CounterMasks: 1 00
Fore
314 0 m 1
 314 -120 l 1
 244 -120 l 1
 244 0 l 1
 70 0 l 1
 70 524 l 1
 154 524 l 1
 154 76 l 1
 404 76 l 1
 404 524 l 1
 488 524 l 1
 488 0 l 1
 314 0 l 1
EndSplineSet
EndChar
StartChar: uni048C
Encoding: 1164 1164 663
Width: 667
Flags: W
HStem: 0 82<79 408> 333 82<172 451.5> 539 70<-10 79 172 264> 709 20G<79 172>
VStem: 79 93<0 539 609 729> 530 93<145.5 233>
Fore
530 207 m 0
 530 259 504 333 399 333 c 2
 172 333 l 1
 172 82 l 1
 399 82 l 2
 504 82 530 156 530 207 c 0
623 208 m 0
 623 83 537 0 408 0 c 2
 79 0 l 1
 79 539 l 1
 -10 539 l 1
 -10 609 l 1
 79 609 l 1
 79 729 l 1
 172 729 l 1
 172 609 l 1
 264 609 l 1
 264 539 l 1
 172 539 l 1
 172 415 l 1
 352 415 l 2
 530 415 607 338 623 208 c 0
EndSplineSet
EndChar
StartChar: uni048D
Encoding: 1165 1165 664
Width: 552
Flags: W
HStem: 0 76<70 333> 231 76<154 347> 382 70<8 70 154 226> 504 20G<70 154>
VStem: 70 84<0 382 452 524> 397 91<105.5 204>
Fore
397 153 m 0
 397 196 379 231 306 231 c 2
 154 231 l 1
 154 76 l 1
 306 76 l 2
 383 76 397 133 397 147 c 0
 397 153 l 0
488 150 m 0
 488 61 427 0 333 0 c 2
 70 0 l 1
 70 382 l 1
 8 382 l 1
 8 452 l 1
 70 452 l 1
 70 524 l 1
 154 524 l 1
 154 452 l 1
 226 452 l 1
 226 382 l 1
 154 382 l 1
 154 307 l 1
 272 307 l 2
 422 307 488 258 488 150 c 0
EndSplineSet
EndChar
StartChar: uni048E
Encoding: 1166 1166 665
Width: 667
Flags: W
HStem: 0 21G<91 184> 309 82<184 413> 647 82<91 464>
VStem: 91 93<0 729> 520 97<482 583.5>
Fore
489 432 m 1
 509 453 520 483 520 519 c 0
 520 599 467 647 378 647 c 2
 184 647 l 1
 184 391 l 1
 378 391 l 2
 395 391 411 393 425 396 c 1
 371 450 l 1
 421 500 l 1
 489 432 l 1
497 325 m 1
 472 314 444 309 413 309 c 2
 184 309 l 1
 184 0 l 1
 91 0 l 1
 91 729 l 1
 392 729 l 2
 536 729 617 652 617 515 c 0
 617 449 599 403 557 364 c 1
 615 306 l 1
 565 256 l 1
 497 325 l 1
EndSplineSet
EndChar
StartChar: uni048F
Encoding: 1167 1167 666
Width: 556
Flags: W
HStem: -23 78<240 319.5> 461 78<240 367.5>
VStem: 54 77<445 524> 54 84<-218 55 196.5 319.5> 436 87<211 341>
Fore
398 115 m 1xd8
 422 150 436 198 436 255 c 0
 436 380 376 461 284 461 c 0
 196 461 138 381 138 258 c 0
 138 135 196 55 284 55 c 0
 306 55 327 60 345 69 c 1
 281 133 l 1
 330 183 l 1
 398 115 l 1xd8
461 52 m 1
 524 -11 l 1
 475 -61 l 1
 408 6 l 1
 377 -13 340 -23 299 -23 c 0
 231 -23 182 1 138 55 c 1
 138 -218 l 1
 54 -218 l 1xd8
 54 524 l 1
 131 524 l 1
 131 445 l 1xe8
 170 507 227 539 298 539 c 0
 437 539 523 429 523 253 c 0
 523 169 501 100 461 52 c 1
EndSplineSet
EndChar
StartChar: afii10050
Encoding: 1168 1168 667
Width: 611
Flags: W
HStem: 0 21G<90 183> 647 82<90 579>
VStem: 90 93<0 729> 486 93<647 825>
Fore
183 0 m 1
 90 0 l 1
 90 729 l 1
 486 729 l 1
 486 825 l 1
 579 825 l 1
 579 647 l 1
 183 647 l 1
 183 0 l 1
EndSplineSet
EndChar
StartChar: afii10098
Encoding: 1169 1169 668
Width: 430
Flags: W
HStem: 0 21G<70 154> 448 76<70 365>
VStem: 70 84<0 524> 281 84<448 629>
Fore
70 524 m 1
 281 524 l 1
 281 629 l 1
 365 629 l 1
 365 448 l 1
 154 448 l 1
 154 0 l 1
 70 0 l 1
 70 524 l 1
EndSplineSet
EndChar
StartChar: uni0492
Encoding: 1170 1170 669
Width: 611
Flags: W
HStem: 0 21G<79 172> 423 70<4 79 172 278> 647 82<79 568>
VStem: 79 93<0 423 493 729>
Fore
172 493 m 1
 278 493 l 1
 278 423 l 1
 172 423 l 1
 172 0 l 1
 79 0 l 1
 79 423 l 1
 4 423 l 1
 4 493 l 1
 79 493 l 1
 79 729 l 1
 568 729 l 1
 568 647 l 1
 172 647 l 1
 172 493 l 1
EndSplineSet
EndChar
StartChar: uni0493
Encoding: 1171 1171 670
Width: 430
Flags: W
HStem: 0 21G<70 154> 258 70<8 70 154 222> 448 76<70 380>
VStem: 70 84<0 258 328 524>
Fore
70 328 m 1
 70 524 l 1
 380 524 l 1
 380 448 l 1
 154 448 l 1
 154 328 l 1
 222 328 l 1
 222 258 l 1
 154 258 l 1
 154 0 l 1
 70 0 l 1
 70 258 l 1
 8 258 l 1
 8 328 l 1
 70 328 l 1
EndSplineSet
EndChar
StartChar: uni0494
Encoding: 1172 1172 671
Width: 611
Flags: W
HStem: -174 82<303 418> 0 21G<90 183> 387 82<183 355> 647 82<90 579>
VStem: 90 93<0 729> 447 93<0 335>
Fore
183 0 m 1
 90 0 l 1
 90 729 l 1
 579 729 l 1
 579 647 l 1
 183 647 l 1
 183 469 l 1
 355 469 l 2
 481 469 540 393 540 277 c 2
 540 18 l 2
 540 -98 481 -174 355 -174 c 2
 303 -174 l 1
 303 -92 l 1
 351 -92 l 2
 406 -92 447 -62 447 0 c 2
 447 295 l 2
 447 357 406 387 351 387 c 2
 183 387 l 1
 183 0 l 1
EndSplineSet
EndChar
StartChar: uni0495
Encoding: 1173 1173 672
Width: 490
Flags: W
HStem: -143 73<236 313> 0 21G<70 154> 277 73<223 343> 448 76<70 365>
VStem: 70 84<0 524> 344 83<-44 207>
Fore
236 -70 m 1
 279 -70 344 -49 344 33 c 2
 344 174 l 2
 344 250 322 277 266 277 c 0
 180 277 154 207 154 100 c 2
 154 0 l 1
 70 0 l 1
 70 524 l 1
 365 524 l 1
 365 448 l 1
 154 448 l 1
 154 263 l 1
 176 328 218 350 292 350 c 0
 394 350 427 295 427 207 c 2
 427 0 l 2
 427 -88 364 -143 262 -143 c 2
 236 -143 l 1
 236 -70 l 1
EndSplineSet
EndChar
StartChar: uni0496
Encoding: 1174 1174 673
Width: 1023
Flags: W
HStem: -20 20G<838 868> 709 20G<101 221 459 552 790 910>
VStem: 459 93<0 324 421 729> 868 80<-135 74>
Fore
884 74 m 1
 948 74 l 1
 948 -135 l 1
 868 -135 l 1
 868 0 l 1
 838 0 l 1
 552 324 l 1
 552 0 l 1
 459 0 l 1
 459 324 l 1
 173 0 l 1
 63 0 l 1
 388 375 l 1
 101 729 l 1
 221 729 l 1
 459 421 l 1
 459 729 l 1
 552 729 l 1
 552 421 l 1
 790 729 l 1
 910 729 l 1
 623 375 l 1
 884 74 l 1
EndSplineSet
EndChar
StartChar: uni0497
Encoding: 1175 1175 674
Width: 837
Flags: W
HStem: 0 64<745 749> 504 20G<46 153 375 458 680 787>
VStem: 375 83<0 216 302 524> 749 70<-120 64>
Fore
745 64 m 1
 819 64 l 1
 819 -120 l 1
 749 -120 l 1
 749 0 l 1
 716 0 l 1
 458 216 l 1
 458 0 l 1
 375 0 l 1
 375 216 l 1
 117 0 l 1
 14 0 l 1
 318 264 l 1
 46 524 l 1
 153 524 l 1
 375 302 l 1
 375 524 l 1
 458 524 l 1
 458 302 l 1
 680 524 l 1
 787 524 l 1
 515 264 l 1
 745 64 l 1
EndSplineSet
EndChar
StartChar: uni0498
Encoding: 1176 1176 675
Width: 667
Flags: W
HStem: -205 45<272 333.5> 321 82<257 412.5> 663 78<253 417>
VStem: 48 88<190 232> 356 73<-139.5 -89> 503 93<489.5 593> 528 93<139.5 241>
Fore
621 200 m 0xfa
 621 79 535 -8 375 -22 c 1
 410 -44 429 -76 429 -111 c 0
 429 -168 370 -205 297 -205 c 0
 278 -205 245 -200 221 -195 c 1
 221 -150 l 1
 239 -157 260 -160 284 -160 c 0
 331 -160 356 -141 356 -106 c 0
 356 -72 342 -50 298 -22 c 1
 147 -9 50 73 48 232 c 1
 136 232 l 1
 136 230 136 229 136 227 c 0
 136 153 177 59 342 59 c 0
 500 59 528 139 528 191 c 0xfa
 528 248 460 321 365 321 c 2
 257 321 l 1
 257 403 l 1
 345 403 l 2
 434 403 503 484 503 540 c 0
 503 614 438 663 340 663 c 0
 224 663 159 610 158 515 c 1
 70 515 l 1
 71 658 169 741 337 741 c 0
 497 741 596 659 596 527 c 0xfc
 596 452 559 403 491 374 c 1
 574 343 621 282 621 200 c 0xfa
EndSplineSet
EndChar
StartChar: uni0499
Encoding: 1177 1177 676
Width: 500
Flags: W
HStem: -205 45<178 239.5> 221 76<192 296> 462 77<176.5 298>
VStem: 262 73<-139.5 -89> 351 87<352.5 427.5> 368 91<97.5 173>
Fore
122 156 m 1xf4
 129 105 148 54 250 54 c 0
 323 54 368 87 368 136 c 0xf4
 368 174 326 221 266 221 c 2
 192 221 l 1
 192 297 l 1
 254 297 l 2
 324 297 351 346 351 383 c 0
 351 431 308 462 240 462 c 0
 173 462 137 433 135 378 c 1
 47 378 l 1
 48 481 116 539 237 539 c 0
 359 539 438 476 438 379 c 0xf8
 438 326 419 293 373 267 c 1
 432 241 459 203 459 143 c 0
 459 52 391 -10 281 -21 c 1
 315 -44 335 -76 335 -111 c 0
 335 -168 276 -205 203 -205 c 0
 184 -205 151 -200 127 -195 c 1
 127 -150 l 1
 145 -157 166 -160 190 -160 c 0
 237 -160 262 -141 262 -106 c 0
 262 -72 248 -50 203 -21 c 1
 93 -11 38 47 34 156 c 1
 122 156 l 1xf4
EndSplineSet
EndChar
StartChar: uni049A
Encoding: 1178 1178 677
Width: 667
Flags: W
HStem: -20 20G<497 541> 709 20G<79 172 477 588>
VStem: 79 93<0 729> 541 80<-135 74>
Fore
548 74 m 1
 621 74 l 1
 621 -135 l 1
 541 -135 l 1
 541 0 l 1
 497 0 l 1
 172 333 l 1
 172 0 l 1
 79 0 l 1
 79 729 l 1
 172 729 l 1
 172 423 l 1
 477 729 l 1
 588 729 l 1
 243 384 l 1
 548 74 l 1
EndSplineSet
EndChar
StartChar: uni049B
Encoding: 1179 1179 678
Width: 510
Flags: W
HStem: -20 20G<378 414> 504 20G<70 153 365 461>
VStem: 70 83<0 524> 414 70<-120 64>
Fore
420 64 m 1
 484 64 l 1
 484 -120 l 1
 414 -120 l 1
 414 0 l 1
 378 0 l 1
 153 226 l 1
 153 0 l 1
 70 0 l 1
 70 524 l 1
 153 524 l 1
 153 312 l 1
 365 524 l 1
 461 524 l 1
 210 274 l 1
 420 64 l 1
EndSplineSet
EndChar
StartChar: uni049C
Encoding: 1180 1180 679
Width: 667
Flags: W
HStem: 0 21G<79 172 548 664> 709 20G<79 172 535 655>
VStem: 79 93<0 729> 220 70<159 283 456 593>
Fore
220 283 m 1
 172 324 l 1
 172 0 l 1
 79 0 l 1
 79 729 l 1
 172 729 l 1
 172 414 l 1
 220 456 l 1
 220 593 l 1
 290 593 l 1
 290 516 l 1
 535 729 l 1
 655 729 l 1
 290 415 l 1
 290 333 l 1
 664 0 l 1
 548 0 l 1
 290 222 l 1
 290 159 l 1
 220 159 l 1
 220 283 l 1
EndSplineSet
EndChar
StartChar: uni049D
Encoding: 1181 1181 680
Width: 500
Flags: W
HStem: 0 21G<58 141 399 502> 504 20G<58 141 363 470>
VStem: 58 83<0 524> 190 70<74 175 351 458>
Fore
190 175 m 1
 141 216 l 1
 141 0 l 1
 58 0 l 1
 58 524 l 1
 141 524 l 1
 141 302 l 1
 190 351 l 1
 190 458 l 1
 260 458 l 1
 260 421 l 1
 363 524 l 1
 470 524 l 1
 260 323 l 1
 260 210 l 1
 502 0 l 1
 399 0 l 1
 260 116 l 1
 260 74 l 1
 190 74 l 1
 190 175 l 1
EndSplineSet
EndChar
StartChar: uni049E
Encoding: 1182 1182 681
Width: 667
Flags: W
HStem: 0 21G<79 172 548 658> 553 70<-6 79 172 268> 709 20G<79 172 535 655>
VStem: 79 93<0 553 623 729>
Fore
172 623 m 1
 268 623 l 1
 268 553 l 1
 172 553 l 1
 172 414 l 1
 535 729 l 1
 655 729 l 1
 243 375 l 1
 658 0 l 1
 548 0 l 1
 172 324 l 1
 172 0 l 1
 79 0 l 1
 79 553 l 1
 -6 553 l 1
 -6 623 l 1
 79 623 l 1
 79 729 l 1
 172 729 l 1
 172 623 l 1
EndSplineSet
EndChar
StartChar: uni049F
Encoding: 1183 1183 682
Width: 500
Flags: W
HStem: 0 21G<58 141 399 502> 408 70<-2 58 141 212> 504 20G<58 141 363 470>
VStem: 58 83<0 408 478 524>
Fore
58 478 m 1
 58 524 l 1
 141 524 l 1
 141 478 l 1
 212 478 l 1
 212 408 l 1
 141 408 l 1
 141 302 l 1
 363 524 l 1
 470 524 l 1
 198 264 l 1
 502 0 l 1
 399 0 l 1
 141 216 l 1
 141 0 l 1
 58 0 l 1
 58 408 l 1
 -2 408 l 1
 -2 478 l 1
 58 478 l 1
EndSplineSet
EndChar
StartChar: uni04A0
Encoding: 1184 1184 683
Width: 900
Flags: W
HStem: 0 21G<312 405 781 891> 647 82<81 405>
VStem: 312 93<0 729>
Fore
312 647 m 1
 81 647 l 1
 81 729 l 1
 405 729 l 1
 405 414 l 1
 768 729 l 1
 888 729 l 1
 476 375 l 1
 891 0 l 1
 781 0 l 1
 405 324 l 1
 405 0 l 1
 312 0 l 1
 312 647 l 1
EndSplineSet
EndChar
StartChar: uni04A1
Encoding: 1185 1185 684
Width: 683
Flags: W
HStem: 0 21G<241 324 582 685> 448 76<57 324>
VStem: 241 83<0 524>
Fore
241 448 m 1
 57 448 l 1
 57 524 l 1
 324 524 l 1
 324 302 l 1
 546 524 l 1
 653 524 l 1
 381 264 l 1
 685 0 l 1
 582 0 l 1
 324 216 l 1
 324 0 l 1
 241 0 l 1
 241 448 l 1
EndSplineSet
EndChar
StartChar: uni04A2
Encoding: 1186 1186 685
Width: 722
Flags: W
HStem: -20 20G<550 631> 332 82<176 550> 709 20G<83 176 550 644>
VStem: 83 93<414 729> 550 94<0 729> 631 80<-135 74>
Fore
644 74 m 1xf8
 711 74 l 1
 711 -135 l 1
 631 -135 l 1
 631 0 l 1xf4
 550 0 l 1
 550 332 l 1
 177 332 l 1
 177 0 l 1
 83 0 l 1
 83 729 l 1
 176 729 l 1
 176 414 l 1
 550 414 l 1
 550 729 l 1
 644 729 l 1
 644 74 l 1xf8
EndSplineSet
EndChar
StartChar: uni04A3
Encoding: 1187 1187 686
Width: 556
Flags: W
HStem: -20 20G<404 478> 233 76<154 404> 504 20G<70 154 404 488>
VStem: 70 84<0 524> 404 84<0 524> 478 70<-120 64>
Fore
488 64 m 1xf8
 548 64 l 1
 548 -120 l 1
 478 -120 l 1
 478 0 l 1xf4
 404 0 l 1
 404 233 l 1
 154 233 l 1
 154 0 l 1
 70 0 l 1
 70 524 l 1
 154 524 l 1
 154 309 l 1
 404 309 l 1
 404 524 l 1
 488 524 l 1
 488 64 l 1xf8
EndSplineSet
EndChar
StartChar: uni04A4
Encoding: 1188 1188 687
Width: 1000
Flags: W
HStem: 0 21G<83 177 550 644> 332 82<176 550> 647 82<550 968>
VStem: 83 93<414 729> 550 94<0 647>
Fore
644 0 m 1
 550 0 l 1
 550 332 l 1
 177 332 l 1
 177 0 l 1
 83 0 l 1
 83 729 l 1
 176 729 l 1
 176 414 l 1
 550 414 l 1
 550 729 l 1
 968 729 l 1
 968 647 l 1
 644 647 l 1
 644 0 l 1
EndSplineSet
EndChar
StartChar: uni04A5
Encoding: 1189 1189 688
Width: 764
Flags: W
HStem: 0 21G<70 154 404 488> 233 76<154 404> 448 76<404 699>
VStem: 70 84<0 524> 404 84<0 448>
Fore
488 0 m 1
 404 0 l 1
 404 233 l 1
 154 233 l 1
 154 0 l 1
 70 0 l 1
 70 524 l 1
 154 524 l 1
 154 309 l 1
 404 309 l 1
 404 524 l 1
 699 524 l 1
 699 448 l 1
 488 448 l 1
 488 0 l 1
EndSplineSet
EndChar
StartChar: uni04A6
Encoding: 1190 1190 689
Width: 1061
Flags: W
HStem: -174 82<764 879> 0 21G<83 177 550 644> 387 82<644 816> 709 20G<83 644>
VStem: 83 94<0 729> 550 94<0 647> 908 93<0 335>
Fore
644 729 m 1
 644 469 l 1
 816 469 l 2
 942 469 1001 393 1001 277 c 2
 1001 18 l 2
 1001 -98 942 -174 816 -174 c 2
 764 -174 l 1
 764 -92 l 1
 812 -92 l 2
 867 -92 908 -62 908 0 c 2
 908 295 l 2
 908 357 867 387 812 387 c 2
 644 387 l 1
 644 0 l 1
 550 0 l 1
 550 647 l 1
 177 647 l 1
 177 0 l 1
 83 0 l 1
 83 729 l 1
 644 729 l 1
EndSplineSet
EndChar
StartChar: uni04A7
Encoding: 1191 1191 690
Width: 826
Flags: W
HStem: -143 73<569 646> 0 21G<70 154 403 487> 277 73<556 676> 504 20G<70 487>
VStem: 70 84<0 524> 403 84<0 448> 677 83<-44 207>
Fore
569 -70 m 1
 612 -70 677 -49 677 33 c 2
 677 174 l 2
 677 250 655 277 599 277 c 0
 513 277 487 207 487 100 c 2
 487 0 l 1
 403 0 l 1
 403 448 l 1
 154 448 l 1
 154 0 l 1
 70 0 l 1
 70 524 l 1
 487 524 l 1
 487 263 l 1
 509 328 551 350 625 350 c 0
 727 350 760 295 760 207 c 2
 760 0 l 2
 760 -88 697 -143 595 -143 c 2
 569 -143 l 1
 569 -70 l 1
EndSplineSet
EndChar
StartChar: uni04AA
Encoding: 1194 1194 691
Width: 722
Flags: W
HStem: -205 45<308 369.5> 659 82<248 461>
VStem: 48 93<266 450.5> 392 73<-139.5 -89>
Fore
465 -111 m 0
 465 -168 406 -205 333 -205 c 0
 314 -205 281 -200 257 -195 c 1
 257 -150 l 1
 275 -157 296 -160 320 -160 c 0
 367 -160 392 -141 392 -106 c 0
 392 -72 378 -50 333 -21 c 1
 79 3 48 267 48 356 c 0
 48 508 115 741 381 741 c 0
 541 741 633 663 662 503 c 1
 567 503 l 1
 546 605 488 659 370 659 c 0
 229 659 141 544 141 357 c 0
 141 175 233 59 378 59 c 0
 500 59 559 128 581 266 c 1
 677 266 l 1
 656 86 568 -10 412 -22 c 1
 446 -45 465 -76 465 -111 c 0
EndSplineSet
EndChar
StartChar: uni04AB
Encoding: 1195 1195 692
Width: 500
Flags: W
HStem: -205 45<198 259.5> 462 77<193.5 324>
VStem: 31 87<177 340> 282 73<-139.5 -88.5>
Fore
355 -111 m 0
 355 -168 296 -205 223 -205 c 0
 204 -205 171 -200 147 -195 c 1
 147 -150 l 1
 165 -157 186 -160 210 -160 c 0
 257 -160 282 -141 282 -106 c 0
 282 -71 268 -49 221 -20 c 1
 104 0 31 101 31 253 c 0
 31 427 123 539 264 539 c 0
 384 539 461 473 471 348 c 1
 387 348 l 1
 377 421 333 462 263 462 c 0
 172 462 118 384 118 253 c 0
 118 129 173 54 265 54 c 0
 336 54 379 96 393 180 c 1
 477 180 l 1
 468 65 404 -7 300 -21 c 1
 335 -44 355 -75 355 -111 c 0
EndSplineSet
EndChar
StartChar: uni04AC
Encoding: 1196 1196 693
Width: 611
Flags: W
HStem: -20 20G<261 341> 647 82<21 593>
VStem: 261 93<0 647> 341 80<-135 74>
Fore
354 74 m 1xe0
 421 74 l 1
 421 -135 l 1
 341 -135 l 1
 341 0 l 1xd0
 261 0 l 1
 261 647 l 1
 21 647 l 1
 21 729 l 1
 593 729 l 1
 593 647 l 1
 354 647 l 1
 354 74 l 1xe0
EndSplineSet
EndChar
StartChar: uni04AD
Encoding: 1197 1197 694
Width: 496
Flags: W
HStem: -20 20G<204 278> 448 76<60 432>
VStem: 204 84<0 448> 278 70<-120 64>
Fore
288 64 m 1xe0
 348 64 l 1
 348 -120 l 1
 278 -120 l 1
 278 0 l 1xd0
 204 0 l 1
 204 448 l 1
 60 448 l 1
 60 524 l 1
 432 524 l 1
 432 448 l 1
 288 448 l 1
 288 64 l 1xe0
EndSplineSet
EndChar
StartChar: uni04AE
Encoding: 1198 1198 695
Width: 667
Flags: W
HStem: 0 21G<294 387> 709 20G<13 128 550 661>
VStem: 294 93<0 286>
Fore
387 286 m 1
 387 0 l 1
 294 0 l 1
 294 286 l 1
 13 729 l 1
 128 729 l 1
 342 374 l 1
 550 729 l 1
 661 729 l 1
 387 286 l 1
EndSplineSet
EndChar
StartChar: uni04AF
Encoding: 1199 1199 696
Width: 667
Flags: W
HStem: 504 20G<53 168 510 621>
VStem: 294 93<-200 86>
Fore
387 86 m 1
 387 -200 l 1
 294 -200 l 1
 294 86 l 1
 53 524 l 1
 168 524 l 1
 342 174 l 1
 510 524 l 1
 621 524 l 1
 387 86 l 1
EndSplineSet
EndChar
StartChar: uni04B0
Encoding: 1200 1200 697
Width: 667
Flags: W
HStem: 0 21G<294 387> 190 70<74 294 387 607> 709 20G<13 128 550 661>
VStem: 294 93<0 190 260 286>
Fore
294 190 m 1
 74 190 l 1
 74 260 l 1
 294 260 l 1
 294 286 l 1
 13 729 l 1
 128 729 l 1
 342 374 l 1
 550 729 l 1
 661 729 l 1
 387 286 l 1
 387 260 l 1
 607 260 l 1
 607 190 l 1
 387 190 l 1
 387 0 l 1
 294 0 l 1
 294 190 l 1
EndSplineSet
EndChar
StartChar: uni04B1
Encoding: 1201 1201 698
Width: 667
Flags: W
HStem: 16 70<74 294 387 607> 504 20G<53 168 510 621>
VStem: 294 93<-200 16>
Fore
387 86 m 1
 607 86 l 1
 607 16 l 1
 387 16 l 1
 387 -200 l 1
 294 -200 l 1
 294 16 l 1
 74 16 l 1
 74 86 l 1
 294 86 l 1
 53 524 l 1
 168 524 l 1
 342 174 l 1
 510 524 l 1
 621 524 l 1
 387 86 l 1
EndSplineSet
EndChar
StartChar: uni04B2
Encoding: 1202 1202 699
Width: 667
Flags: W
HStem: -20 20G<534 569> 709 20G<38 151 526 637>
VStem: 569 80<-135 74>
Fore
598 74 m 1
 649 74 l 1
 649 -135 l 1
 569 -135 l 1
 569 0 l 1
 534 0 l 1
 335 304 l 1
 135 0 l 1
 22 0 l 1
 280 374 l 1
 38 729 l 1
 151 729 l 1
 338 443 l 1
 526 729 l 1
 637 729 l 1
 391 374 l 1
 598 74 l 1
EndSplineSet
EndChar
StartChar: uni04B3
Encoding: 1203 1203 700
Width: 500
Flags: W
HStem: -20 20G<376 403> 504 20G<27 122 374 468>
VStem: 403 70<-120 64>
Fore
430 64 m 1
 473 64 l 1
 473 -120 l 1
 403 -120 l 1
 403 0 l 1
 376 0 l 1
 245 201 l 1
 112 0 l 1
 17 0 l 1
 202 267 l 1
 27 524 l 1
 122 524 l 1
 248 334 l 1
 374 524 l 1
 468 524 l 1
 292 271 l 1
 430 64 l 1
EndSplineSet
EndChar
StartChar: uni04B4
Encoding: 1204 1204 701
Width: 942
Flags: W
HStem: 0 74<812 824> 0 82<251 718> 647 82<21 572>
VStem: 251 94<0 647> 718 94<74 729> 824 80<-135 74>
Fore
345 647 m 1x7c
 345 82 l 1
 718 82 l 1x7c
 718 729 l 1
 812 729 l 1
 812 74 l 1
 904 74 l 1
 904 -135 l 1
 824 -135 l 1
 824 0 l 1xbc
 251 0 l 1
 251 647 l 1
 21 647 l 1
 21 729 l 1
 572 729 l 1
 572 647 l 1
 345 647 l 1x7c
EndSplineSet
EndChar
StartChar: uni04B5
Encoding: 1205 1205 702
Width: 732
Flags: W
HStem: 0 64<611 622> 0 76<194 527> 448 76<60 412>
VStem: 194 84<0 448> 527 84<64 524> 622 70<-120 64>
Fore
194 448 m 1x7c
 60 448 l 1
 60 524 l 1
 412 524 l 1
 412 448 l 1
 278 448 l 1
 278 76 l 1
 527 76 l 1x7c
 527 524 l 1
 611 524 l 1
 611 64 l 1
 692 64 l 1
 692 -120 l 1
 622 -120 l 1
 622 0 l 1xbc
 194 0 l 1
 194 448 l 1x7c
EndSplineSet
EndChar
StartChar: uni04B6
Encoding: 1206 1206 703
Width: 648
Flags: W
HStem: -20 20G<476 556> 260 82<264 476> 709 20G<79 172 476 569>
VStem: 79 93<394 729> 476 93<0 729> 556 80<-135 74>
Fore
569 74 m 1xf8
 636 74 l 5
 636 -135 l 1
 556 -135 l 1
 556 0 l 5xf4
 476 0 l 1
 476 260 l 1
 264 260 l 2
 138 260 79 336 79 452 c 2
 79 729 l 1
 172 729 l 1
 172 434 l 2
 172 372 213 342 268 342 c 2
 476 342 l 1
 476 729 l 1
 569 729 l 1
 569 74 l 1xf8
EndSplineSet
EndChar
StartChar: uni04B7
Encoding: 1207 1207 704
Width: 520
Flags: W
HStem: -20 20G<366 441> 191 76<222 366> 504 20G<70 154 366 450>
VStem: 70 84<287 524> 366 84<64 524> 441 70<-120 64>
Fore
441 0 m 5xf4
 366 0 l 1
 366 191 l 1
 225 191 l 2
 144 191 70 240 70 334 c 2
 70 524 l 1
 154 524 l 1
 154 337 l 2
 154 288 182 267 222 267 c 2
 366 267 l 1
 366 524 l 1
 450 524 l 1
 450 64 l 1xf8
 511 64 l 5
 511 -120 l 5
 441 -120 l 1
 441 0 l 5xf4
EndSplineSet
EndChar
StartChar: uni04B8
Encoding: 1208 1208 705
Width: 648
Flags: W
HStem: 0 21G<476 569> 260 82<264 295 365 476> 709 20G<79 172 476 569>
VStem: 79 93<394 729> 295 70<135 260 342 479> 476 93<0 729>
Fore
295 342 m 1
 295 479 l 1
 365 479 l 1
 365 342 l 1
 476 342 l 1
 476 729 l 1
 569 729 l 1
 569 0 l 1
 476 0 l 1
 476 260 l 1
 365 260 l 1
 365 135 l 1
 295 135 l 1
 295 260 l 1
 264 260 l 2
 138 260 79 336 79 452 c 2
 79 729 l 1
 172 729 l 1
 172 434 l 2
 172 372 213 342 268 342 c 2
 295 342 l 1
EndSplineSet
EndChar
StartChar: uni04B9
Encoding: 1209 1209 706
Width: 520
Flags: W
HStem: 0 21G<366 450> 191 76<222 230 300 366> 504 20G<70 154 366 450>
VStem: 70 84<287 524> 230 70<98 191 267 370> 366 84<0 524>
Fore
230 191 m 1
 225 191 l 2
 144 191 70 240 70 334 c 2
 70 524 l 1
 154 524 l 1
 154 337 l 2
 154 288 182 267 222 267 c 2
 230 267 l 1
 230 370 l 1
 300 370 l 1
 300 267 l 1
 366 267 l 1
 366 524 l 1
 450 524 l 1
 450 0 l 1
 366 0 l 1
 366 191 l 1
 300 191 l 1
 300 98 l 1
 230 98 l 1
 230 191 l 1
EndSplineSet
EndChar
StartChar: uni04BA
Encoding: 1210 1210 707
Width: 648
Flags: W
HStem: 0 21G<79 172 476 569> 387 82<172 384> 709 20G<79 172>
VStem: 79 93<0 729> 476 93<0 335>
Fore
172 469 m 1
 384 469 l 2
 510 469 569 393 569 277 c 2
 569 0 l 1
 476 0 l 1
 476 295 l 2
 476 357 435 387 380 387 c 2
 172 387 l 1
 172 0 l 1
 79 0 l 1
 79 729 l 1
 172 729 l 1
 172 469 l 1
EndSplineSet
EndChar
StartChar: uni04BB
Encoding: 1211 1211 708
Width: 520
Flags: W
HStem: 0 21G<70 154 366 450> 257 76<154 335.5> 504 20G<70 154>
VStem: 70 84<0 524> 366 84<0 237>
Fore
450 0 m 1
 366 0 l 1
 366 187 l 2
 366 236 338 257 298 257 c 2
 154 257 l 1
 154 0 l 1
 70 0 l 1
 70 524 l 1
 154 524 l 1
 154 333 l 1
 295 333 l 2
 376 333 450 284 450 190 c 2
 450 0 l 1
EndSplineSet
EndChar
StartChar: uni04BC
Encoding: 1212 1212 709
Width: 927
Flags: W
HStem: -23 82<452 665> 384 82<160.5 252 346 882> 659 82<524.5 660> 711 46<145 223.5>
VStem: 47 53<536 638> 252 93<267.5 384>
Fore
774 466 m 1xec
 761 557 738 659 582 659 c 0
 467 659 386 586 357 466 c 1
 774 466 l 1xec
585 -23 m 0
 319 -23 252 210 252 362 c 2
 252 384 l 1
 107 387 47 486 47 586 c 0
 47 690 103 757 187 757 c 0
 260 757 306 717 311 643 c 1
 261 643 l 1
 255 687 229 711 187 711 c 0xdc
 132 711 100 664 100 586 c 0
 100 511 133 466 188 466 c 2
 262 466 l 1
 277 541 310 607 358 656 c 0
 414 714 486 741 581 741 c 0
 705 741 881 695 882 384 c 1
 346 384 l 1
 345 376 345 369 345 361 c 0
 345 174 433 59 574 59 c 0
 693 59 750 113 771 215 c 1
 866 215 l 1
 837 55 745 -23 585 -23 c 0
EndSplineSet
EndChar
StartChar: uni04BD
Encoding: 1213 1213 710
Width: 716
Flags: W
HStem: -23 77<367.5 498> 234 68<117 200 287 673> 462 77<374 489> 466 30<107 159>
VStem: 42 35<348.5 417> 584 89<234 351>
Fore
289 302 m 1xec
 583 302 l 1
 584 304 584 306 584 308 c 0
 584 394 521 462 439 462 c 0
 355 462 296 399 289 302 c 1xec
287 234 m 1
 290 88 379 54 441 54 c 0
 508 54 555 90 578 159 c 1
 662 159 l 1
 641 45 558 -23 438 -23 c 0
 297 -23 208 74 200 234 c 1
 86 236 42 315 42 382 c 0
 42 452 79 496 135 496 c 0
 183 496 213 471 218 420 c 1
 184 420 l 1
 180 449 163 466 135 466 c 0xdc
 98 466 77 434 77 382 c 0
 77 332 99 302 135 302 c 2
 202 302 l 1
 218 447 308 539 440 539 c 0
 538 539 618 487 652 401 c 0
 667 362 673 314 673 234 c 1
 287 234 l 1
EndSplineSet
EndChar
StartChar: uni04BE
Encoding: 1214 1214 711
Width: 927
Flags: W
HStem: -205 45<517 578.5> 384 82<160.5 252 346 882> 659 82<524.5 660> 711 46<145 223.5>
VStem: 47 53<536 638> 252 93<267.5 384> 601 73<-139.5 -89>
Fore
774 466 m 1xee
 761 557 738 659 582 659 c 0
 467 659 386 586 357 466 c 1
 774 466 l 1xee
674 -111 m 0
 674 -168 615 -205 542 -205 c 0
 523 -205 490 -200 466 -195 c 1
 466 -150 l 1
 484 -157 505 -160 529 -160 c 0
 576 -160 601 -141 601 -106 c 0
 601 -72 587 -50 542 -21 c 1
 281 6 252 272 252 362 c 2
 252 384 l 1
 107 387 47 486 47 586 c 0
 47 690 103 757 187 757 c 0
 260 757 306 717 311 643 c 1
 261 643 l 1
 255 687 229 711 187 711 c 0xde
 132 711 100 664 100 586 c 0
 100 511 133 466 188 466 c 2
 262 466 l 1
 277 541 310 607 358 656 c 0
 414 714 486 741 581 741 c 0
 705 741 881 695 882 384 c 1
 346 384 l 1
 345 376 345 369 345 361 c 0
 345 174 433 59 574 59 c 0
 693 59 750 113 771 215 c 1
 866 215 l 1
 839 67 759 -11 621 -22 c 1
 655 -45 674 -76 674 -111 c 0
EndSplineSet
EndChar
StartChar: uni04BF
Encoding: 1215 1215 712
Width: 716
Flags: W
HStem: -205 45<368 429.5> 234 68<117 200 287 673> 462 77<374 489> 466 30<107 159>
VStem: 42 35<348.5 417> 452 73<-139.5 -88.5> 584 89<234 351>
Fore
289 302 m 1xee
 583 302 l 1
 584 304 584 306 584 308 c 0
 584 394 521 462 439 462 c 0
 355 462 296 399 289 302 c 1xee
525 -111 m 0
 525 -168 466 -205 393 -205 c 0
 374 -205 341 -200 317 -195 c 1
 317 -150 l 1
 335 -157 356 -160 380 -160 c 0
 427 -160 452 -141 452 -106 c 0
 452 -71 437 -49 390 -19 c 1
 277 1 207 93 200 234 c 1
 86 236 42 315 42 382 c 0
 42 452 79 496 135 496 c 0
 183 496 213 471 218 420 c 1
 184 420 l 1
 180 449 163 466 135 466 c 0xde
 98 466 77 434 77 382 c 0
 77 332 99 302 135 302 c 2
 202 302 l 1
 218 447 308 539 440 539 c 0
 538 539 618 487 652 401 c 0
 667 362 673 314 673 234 c 1
 287 234 l 1
 290 88 379 54 441 54 c 0
 508 54 555 90 578 159 c 1
 662 159 l 1
 643 56 573 -10 471 -21 c 1
 506 -44 525 -76 525 -111 c 0
EndSplineSet
EndChar
StartChar: uni04C0
Encoding: 1216 1216 713
Width: 278
Flags: W
HStem: 0 21G<100 194> 709 20G<100 194>
VStem: 100 94<0 729>
Fore
194 729 m 1
 194 0 l 1
 100 0 l 1
 100 729 l 1
 194 729 l 1
EndSplineSet
EndChar
StartChar: uni04C3
Encoding: 1219 1219 716
Width: 667
Flags: W
HStem: -174 82<374 489> 0 21G<79 172> 293 82<172 489> 709 20G<79 172 535 655>
VStem: 79 93<0 729> 518 93<0 241>
Fore
426 375 m 2
 552 375 611 299 611 183 c 2
 611 18 l 2
 611 -98 552 -174 426 -174 c 2
 374 -174 l 1
 374 -92 l 1
 422 -92 l 2
 477 -92 518 -62 518 0 c 2
 518 201 l 2
 518 263 477 293 422 293 c 2
 172 293 l 1
 172 0 l 1
 79 0 l 1
 79 729 l 1
 172 729 l 1
 172 414 l 1
 535 729 l 1
 655 729 l 1
 243 375 l 1
 426 375 l 2
EndSplineSet
EndChar
StartChar: uni04C4
Encoding: 1220 1220 717
Width: 500
Flags: W
HStem: -143 73<249 326> 0 21G<58 141> 192 73<249 326> 504 20G<58 141 363 470>
VStem: 58 83<0 524> 357 83<0 166>
Fore
357 89 m 2
 357 171 292 192 249 192 c 2
 141 192 l 1
 141 0 l 1
 58 0 l 1
 58 524 l 1
 141 524 l 1
 141 302 l 1
 363 524 l 1
 470 524 l 1
 198 264 l 1
 275 265 l 2
 377 265 440 210 440 122 c 2
 440 0 l 2
 440 -88 377 -143 275 -143 c 2
 249 -143 l 1
 249 -70 l 1
 292 -70 357 -49 357 33 c 2
 357 89 l 2
EndSplineSet
EndChar
StartChar: uni04C7
Encoding: 1223 1223 718
Width: 722
Flags: W
HStem: -174 82<406 521> 0 21G<83 177> 332 82<176 550> 709 20G<83 176 550 644>
VStem: 83 93<414 729> 550 94<-40 729>
Fore
550 0 m 2
 550 332 l 1
 177 332 l 1
 177 0 l 1
 83 0 l 1
 83 729 l 1
 176 729 l 1
 176 414 l 1
 550 414 l 1
 550 729 l 1
 644 729 l 1
 644 18 l 2
 644 -98 584 -174 458 -174 c 2
 406 -174 l 1
 406 -92 l 1
 454 -92 l 2
 509 -92 550 -62 550 0 c 2
EndSplineSet
EndChar
StartChar: uni04C8
Encoding: 1224 1224 719
Width: 556
Flags: W
HStem: -143 73<297 374> 0 21G<70 154> 233 76<154 404> 504 20G<70 154 404 488>
VStem: 70 84<0 524> 404 84<-44 524>
Fore
297 -70 m 1
 341 -70 404 -49 404 33 c 2
 404 233 l 1
 154 233 l 1
 154 0 l 1
 70 0 l 1
 70 524 l 1
 154 524 l 1
 154 309 l 1
 404 309 l 1
 404 524 l 1
 488 524 l 1
 488 0 l 2
 488 -88 425 -143 323 -143 c 2
 297 -143 l 1
 297 -70 l 1
EndSplineSet
EndChar
StartChar: uni04CB
Encoding: 1227 1227 720
Width: 648
Flags: W
HStem: 0 21G<489 569> 260 82<264 476> 709 20G<79 172 476 569>
VStem: 79 93<394 729> 409 80<-135 74> 476 93<0 729>
Fore
489 0 m 1xf8
 489 -135 l 1
 409 -135 l 1
 409 74 l 1xf8
 476 74 l 1
 476 260 l 1
 264 260 l 2
 138 260 79 336 79 452 c 2
 79 729 l 1
 172 729 l 1
 172 434 l 2
 172 372 213 342 268 342 c 2
 476 342 l 1
 476 729 l 1
 569 729 l 1
 569 0 l 1xf4
 489 0 l 1xf8
EndSplineSet
EndChar
StartChar: uni04CC
Encoding: 1228 1228 721
Width: 520
Flags: W
HStem: 0 21G<375 450> 191 76<222 366> 504 20G<70 154 366 450>
VStem: 70 84<287 524> 305 70<-120 64> 366 84<0 524>
Fore
375 0 m 1xf8
 375 -120 l 1
 305 -120 l 1
 305 64 l 1xf8
 366 64 l 1
 366 191 l 1
 225 191 l 2
 144 191 70 240 70 334 c 2
 70 524 l 1
 154 524 l 1
 154 337 l 2
 154 288 182 267 222 267 c 2
 366 267 l 1
 366 524 l 1
 450 524 l 1
 450 0 l 1xf4
 375 0 l 1xf8
EndSplineSet
EndChar
StartChar: uni04D4
Encoding: 1236 1236 726
Width: 1000
Flags: W
HStem: 0 82<468 950> 214 82<199 468> 332 82<561 913> 647 82<310 932>
VStem: 468 93<0 647>
Fore
468 214 m 1
 199 214 l 1
 114 0 l 1
 11 0 l 1
 310 729 l 1
 932 729 l 1
 932 647 l 1
 561 647 l 1
 561 414 l 1
 913 414 l 1
 913 332 l 1
 561 332 l 1
 561 82 l 1
 950 82 l 1
 950 0 l 1
 468 0 l 1
 468 214 l 1
468 296 m 1
 468 647 l 1
 368 647 l 1
 230 296 l 1
 468 296 l 1
EndSplineSet
EndChar
StartChar: uni04D5
Encoding: 1237 1237 727
Width: 889
Flags: W
HStem: -23 73<151 274.5> 234 68<459 845> 462 77<219.5 307.5 569 661.5>
VStem: 34 87<85 191.5> 381 78<146 234> 755 90<234 349.5>
Fore
459 234 m 1
 462 88 551 54 613 54 c 0
 680 54 727 90 751 159 c 1
 835 159 l 1
 814 45 730 -23 612 -23 c 0
 535 -23 469 8 434 60 c 0
 429 68 425 75 418 87 c 1
 343 9 280 -23 202 -23 c 0
 100 -23 34 38 34 132 c 0
 34 238 97 287 294 303 c 0
 362 309 381 323 381 362 c 2
 381 384 l 2
 381 435 340 462 263 462 c 0
 186 462 148 433 141 369 c 1
 57 369 l 1
 62 511 174 539 265 539 c 0
 350 539 409 511 440 457 c 1
 476 508 541 539 613 539 c 0
 710 539 790 486 824 401 c 0
 839 362 845 314 845 234 c 1
 459 234 l 1
221 50 m 0
 328 50 381 135 381 157 c 2
 381 258 l 1
 282 215 121 249 121 134 c 0
 121 82 159 50 221 50 c 0
461 302 m 1
 755 302 l 1
 755 397 696 462 611 462 c 0
 527 462 468 399 461 302 c 1
EndSplineSet
EndChar
StartChar: uni04D8
Encoding: 1240 1240 730
Width: 722
Flags: W
HStem: -23 82<269 479.5> 252 82<47 583> 659 82<264 477>
VStem: 584 93<281.5 450.5>
AnchorPoint: "above" 352 740 basechar 0
Fore
155 252 m 1
 168 161 191 59 347 59 c 0
 462 59 543 132 572 252 c 1
 155 252 l 1
677 356 m 0
 677 207 611 -23 348 -23 c 0
 224 -23 48 23 47 334 c 1
 583 334 l 1
 584 342 584 349 584 357 c 0
 584 544 496 659 355 659 c 0
 236 659 179 605 158 503 c 1
 63 503 l 1
 92 663 184 741 344 741 c 0
 610 741 677 508 677 356 c 0
EndSplineSet
EndChar
StartChar: afii10846
Encoding: 1241 1241 731
Width: 556
Flags: W
HStem: -23 77<224 346> 214 68<40 426> 462 77<215 348.5>
VStem: 40 89<165 282>
AnchorPoint: "above" 276 536 basechar 0
Fore
426 282 m 1
 423 428 334 462 272 462 c 0
 205 462 158 426 135 357 c 1
 51 357 l 1
 72 471 155 539 275 539 c 0
 422 539 513 433 513 261 c 0
 513 89 419 -23 273 -23 c 0
 175 -23 95 29 61 115 c 0
 46 154 40 202 40 282 c 1
 426 282 l 1
424 214 m 1
 130 214 l 1
 129 212 129 210 129 208 c 0
 129 122 192 54 274 54 c 0
 358 54 417 117 424 214 c 1
EndSplineSet
EndChar
StartChar: uni04E8
Encoding: 1256 1256 746
Width: 778
Flags: W
HStem: -23 82<285 499> 315 70<132 648> 659 82<284.5 496>
AnchorPoint: "above" 392 740 basechar 0
Fore
742 353 m 0
 742 143 608 -23 390 -23 c 0
 180 -23 38 131 38 359 c 0
 38 587 180 741 389 741 c 0
 603 741 742 588 742 353 c 0
648 385 m 1
 638 552 538 659 389 659 c 0
 243 659 141 550 132 385 c 1
 648 385 l 1
647 315 m 1
 133 315 l 1
 149 160 248 59 390 59 c 0
 532 59 632 161 647 315 c 1
EndSplineSet
EndChar
StartChar: uni04E9
Encoding: 1257 1257 747
Width: 556
Flags: W
HStem: -23 77<198.5 346.5> 220 70<124 422> 462 77<198.5 347.5>
AnchorPoint: "above" 274 541 basechar 0
Fore
272 539 m 0
 423 539 510 435 510 254 c 0
 510 82 420 -23 273 -23 c 0
 124 -23 36 82 36 258 c 0
 36 434 125 539 272 539 c 0
422 290 m 1
 412 399 358 462 273 462 c 0
 188 462 133 397 124 290 c 1
 422 290 l 1
421 220 m 1
 125 220 l 1
 135 116 190 54 273 54 c 0
 356 54 411 117 421 220 c 1
EndSplineSet
EndChar
StartChar: uni0531
Encoding: 1329 1329 762
Width: 722
Flags: W
HStem: -12 85<249 435.5>
VStem: 79 94<204 716> 547 95<120 716>
Fore
354 73 m 0
 517 73 547 161 547 303 c 2
 547 716 l 1
 642 716 l 1
 642 120 l 1
 729 27 l 1
 670 -41 l 1
 579 60 l 1
 530 5 408 -12 362 -12 c 0
 136 -12 79 106 79 302 c 2
 79 716 l 1
 173 716 l 1
 173 303 l 2
 173 186 186 134 251 98 c 0
 280 82 314 74 354 73 c 0
EndSplineSet
EndChar
StartChar: uni0532
Encoding: 1330 1330 763
Width: 705
Flags: W
HStem: -2 21G<79 173> 150 93<174 639> 641 85<246 474>
VStem: 79 95<-2 150 243 262> 547 95<330 503.5>
Fore
362 726 m 0
 586 726 642 595 642 412 c 2
 642 330 l 1
 547 330 l 1
 547 411 l 2
 547 551 521 639 354 641 c 0
 272 641 214 608 190 549 c 0
 176 511 172 442 172 372 c 0
 172 327 174 281 174 243 c 1
 639 243 l 1
 639 150 l 1
 174 150 l 1
 173 -2 l 1
 79 -2 l 1
 79 412 l 2
 79 597 130 726 362 726 c 0
EndSplineSet
EndChar
StartChar: uni0533
Encoding: 1331 1331 764
Width: 774
Flags: W
HStem: -1 21G<541 636> 134 95<277.5 360> 641 85<324 429.5>
VStem: 83 90<354.5 484> 540 93<230 257.5> 542 89<338 404.5>
Fore
743 134 m 1xf8
 636 134 l 1
 636 -1 l 1
 541 -1 l 1
 541 134 l 1
 326 134 l 2
 229 134 133 184 92 322 c 2
 83 412 l 1
 83 556 108 631 195 686 c 0
 237 712 293 726 363 726 c 0
 496 726 578 682 619 591 c 0
 631 565 632 523 632 483 c 0
 632 453 l 0
 632 434 631 414 631 395 c 0xf4
 631 340 633 285 633 230 c 1
 743 230 l 1
 743 134 l 1xf8
541 507 m 2
 541 587 470 639 371 641 c 0
 277 641 194 605 180 532 c 0
 174 500 174 472 173 447 c 0
 173 262 279 229 360 229 c 2
 540 230 l 1
 540 340 l 1xf8
 542 338 l 1
 542 468 l 0
 542 471 542 477 541 486 c 2
 541 507 l 2
EndSplineSet
EndChar
StartChar: uni0534
Encoding: 1332 1332 765
Width: 754
Flags: W
HStem: 1 21G<550 645> 145 94<645 727> 644 85<288.5 475>
VStem: 82 95<333 487> 550 95<1 510.5>
Fore
362 729 m 0
 588 729 645 606 645 415 c 2
 645 239 l 1
 727 239 l 1
 727 145 l 1
 645 145 l 1
 645 1 l 1
 550 1 l 1
 550 414 l 2
 550 546 530 640 370 644 c 0
 207 644 177 556 177 414 c 2
 177 333 l 1
 82 333 l 1
 82 415 l 2
 82 559 107 635 194 688 c 0
 236 715 292 729 362 729 c 0
EndSplineSet
EndChar
StartChar: uni0535
Encoding: 1333 1333 766
Width: 722
Flags: W
HStem: 5 86<248 436> 488 93<174 639> 713 20G<79 173>
VStem: 79 95<581 733> 547 95<231.5 401>
Fore
354 91 m 0
 518 91 547 178 547 320 c 2
 547 401 l 1
 642 401 l 1
 642 320 l 2
 642 143 593 8 362 5 c 0
 134 5 79 130 79 320 c 2
 79 733 l 1
 173 733 l 1
 174 581 l 1
 639 581 l 1
 639 488 l 1
 174 488 l 1
 173 320 l 1
 173 204 186 153 251 115 c 0
 280 99 314 91 354 91 c 0
EndSplineSet
EndChar
StartChar: uni0536
Encoding: 1334 1334 767
Width: 751
Flags: W
HStem: -2 21G<46 136> 52 77<136 263> 359 79<125 313> 660 75<315 383.5>
VStem: 30 95<383 462> 46 90<-2 184> 562 73<368 531>
Fore
635 469 m 0xfa
 635 267 509 160 452 131 c 1
 575 131 l 2
 628 131 708 113 711 -6 c 1
 628 -5 l 1
 628 33 605 51 559 52 c 2
 136 52 l 1
 136 -2 l 1
 46 -2 l 1
 46 184 l 1
 136 184 l 1
 136 129 l 1xf6
 263 129 l 2
 303 129 375 162 406 181 c 0
 544 256 555 369 562 420 c 0
 562 428 562 437 562 445 c 0
 562 617 424 660 343 660 c 2
 329 660 l 1
 312 658 l 1
 283 652 l 2
 209 633 156 584 135 511 c 2
 127 471 l 2
 126 462 125 452 125 438 c 1
 313 440 l 1
 313 359 l 1
 31 359 l 1
 30 369 30 378 30 388 c 0
 30 536 69 718 315 735 c 2
 352 735 l 0
 357 735 366 735 377 733 c 0
 444 733 525 697 586 631 c 0
 605 611 635 535 635 469 c 0xfa
EndSplineSet
EndChar
StartChar: uni0537
Encoding: 1335 1335 768
Width: 485
Flags: W
HStem: 0 79<180 334> 411 77<180 430>
VStem: 84 96<0 721>
Fore
334 79 m 1
 334 0 l 1
 84 0 l 1
 84 721 l 1
 180 721 l 1
 180 488 l 1
 430 488 l 1
 430 411 l 1
 180 411 l 1
 180 79 l 1
 334 79 l 1
EndSplineSet
EndChar
StartChar: uni0538
Encoding: 1336 1336 769
Width: 722
Flags: W
HStem: 644 85<241 463.5>
VStem: 74 94<1 507.5> 542 95<274 483>
Fore
623 553 m 0
 623 531 637 523 637 415 c 2
 637 274 l 1
 542 274 l 1
 542 414 l 2
 542 552 516 642 349 644 c 0
 194 644 170 554 168 414 c 2
 168 88 l 1
 639 87 l 1
 637 0 l 1
 74 1 l 1
 74 415 l 2
 74 600 125 729 357 729 c 0
 570 729 612 598 623 553 c 0
EndSplineSet
EndChar
StartChar: uni0539
Encoding: 1337 1337 770
Width: 782
Flags: W
HStem: -2 78<462 562.5> 368 80<371.5 634> 650 78<301 561.5>
VStem: 63 95<0 605> 247 93<154.5 297.5> 634 95<143.5 370 448 523>
Fore
455 368 m 2
 366 368 340 346 340 218 c 0
 340 108 359 78 481 76 c 0
 583 76 634 122 634 213 c 0
 634 368 l 1
 455 368 l 2
729 206 m 2
 729 81 634 -2 491 -2 c 2
 462 -2 l 1
 456 -2 450 -2 443 -1 c 0
 438 -1 432 -1 426 0 c 0
 402 0 399 2 375 9 c 0
 281 34 247 93 247 216 c 0
 247 379 289 448 454 448 c 2
 634 448 l 1
 634 514 l 2
 634 592 607 647 486 650 c 2
 307 650 l 2
 302 650 298 650 297 651 c 2
 282 651 l 2
 200 651 158 605 158 514 c 0
 158 0 l 1
 63 0 l 1
 63 523 l 2
 63 687 204 728 301 728 c 2
 492 728 l 2
 631 728 729 646 729 523 c 2
 729 448 l 1
 783 448 l 1
 783 370 l 1
 729 370 l 1
 729 206 l 2
EndSplineSet
EndChar
StartChar: uni053A
Encoding: 1338 1338 771
Width: 655
Flags: W
HStem: -10 75<234.5 346> 450 76<304 355> 453 73<259 304>
VStem: 67 95<131.5 382.5> 447 92<526 718>
Fore
542 195 m 2xb8
 542 74 450 -7 304 -10 c 0
 165 -10 67 68 67 195 c 2
 67 321 l 2
 67 444 159 523 304 526 c 2xd8
 447 526 l 1
 447 718 l 1
 539 718 l 1
 539 526 l 1
 638 526 l 1
 638 451 l 1
 542 451 l 1
 542 195 l 2xb8
304 65 m 0
 388 65 444 90 447 202 c 2
 447 451 l 1
 423 451 l 0
 396 451 368 450 342 450 c 0xd8
 326 450 311 451 297 452 c 1
 283 453 l 2xb8
 235 453 164 433 162 309 c 2
 162 202 l 2
 162 119 198 65 304 65 c 0
EndSplineSet
EndChar
StartChar: uni053B
Encoding: 1339 1339 772
Width: 699
Flags: W
HStem: 0 21G<63 157> 486 89<305.5 454.5> 712 20G<63 161>
VStem: 63 98<518 732> 531 94<186 350>
Fore
531 257 m 2
 531 394 504 486 351 486 c 0
 260 486 178 456 164 381 c 0
 160 360 157 329 157 286 c 0
 157 0 l 1
 63 0 l 1
 63 732 l 1
 161 732 l 1
 161 518 l 1
 175 551 284 575 339 575 c 0
 570 575 625 443 625 257 c 2
 625 186 l 1
 531 186 l 1
 531 257 l 2
EndSplineSet
EndChar
StartChar: uni053C
Encoding: 1340 1340 773
Width: 417
Flags: W
HStem: 0 94<188 373>
VStem: 93 95<0 716>
Fore
93 0 m 1
 93 716 l 1
 188 716 l 1
 188 94 l 1
 373 93 l 1
 373 0 l 1
 93 0 l 1
EndSplineSet
EndChar
StartChar: uni053D
Encoding: 1341 1341 774
Width: 853
Flags: W
HStem: -12 85<428 621.5> 507 20G<688 783>
VStem: 66 95<0 723> 268 96<231.5 353> 688 95<184 527>
Fore
544 73 m 0
 594 73 661 75 683 205 c 0
 683 211 684 222 686 237 c 0
 686 250 688 292 688 303 c 2
 688 527 l 1
 783 527 l 1
 783 302 l 2
 783 66 691 -12 552 -12 c 0
 304 -12 268 129 268 334 c 0
 268 372 269 412 269 449 c 1
 161 448 l 1
 161 0 l 1
 66 0 l 1
 66 723 l 1
 161 723 l 1
 161 528 l 1
 364 527 l 1
 364 303 l 2
 364 165 386 77 544 73 c 0
EndSplineSet
EndChar
StartChar: uni053E
Encoding: 1342 1342 775
Width: 791
Flags: W
HStem: -4 74<282.5 420.5> 627 80<629 658>
VStem: 47 83<236 389> 627 85<267.5 391>
Fore
118 762 m 1
 122 712 174 707 214 707 c 2
 629 707 l 2
 687 707 734 693 759 662 c 1
 768 646 l 1
 703 583 l 1
 695 626 666 627 642 627 c 2
 516 628 l 2
 522 628 539 619 567 601 c 0
 653 545 710 448 712 312 c 0
 712 223 679 148 611 87 c 0
 545 26 466 -4 375 -4 c 0
 190 -4 47 142 47 330 c 0
 47 448 113 544 190 600 c 0
 218 620 234 630 240 631 c 1
 159 632 l 2
 97 632 35 650 35 713 c 0
 35 716 35 718 35 721 c 1
 118 762 l 1
627 316 m 0
 627 466 521 582 384 582 c 0
 314 582 255 554 205 500 c 0
 155 445 130 383 130 312 c 0
 130 248 154 192 203 143 c 0
 251 95 307 71 372 70 c 0
 439 70 499 95 550 144 c 0
 601 192 626 250 627 316 c 0
EndSplineSet
EndChar
StartChar: uni053F
Encoding: 1343 1343 776
Width: 711
Flags: W
HStem: 1 21G<539 636> 159 88<245.5 428.5> 713 20G<74 168>
VStem: 74 94<381 733> 539 97<1 216>
Fore
360 159 m 0
 131 159 74 286 74 476 c 2
 74 733 l 1
 168 733 l 1
 168 477 l 2
 168 361 181 309 246 271 c 0
 275 255 309 248 349 247 c 0
 508 247 528 328 535 361 c 0
 540 390 542 428 542 477 c 2
 542 553 l 1
 637 553 l 1
 636 1 l 1
 539 1 l 1
 539 216 l 1
 528 193 474 159 360 159 c 0
EndSplineSet
EndChar
StartChar: uni0540
Encoding: 1344 1344 777
Width: 588
Flags: W
HStem: 639 86<479 515.5>
Fore
504 725 m 0
 527 725 553 721 567 710 c 1
 567 607 l 1
 554 623 l 1
 542 633 529 638 514 639 c 0
 482 639 455 613 438 593 c 2
 167 265 l 1
 551 89 l 1
 551 -74 l 1
 519 -74 l 1
 503 15 428 46 401 59 c 2
 23 229 l 1
 395 669 l 1
 419 699 454 725 504 725 c 0
EndSplineSet
EndChar
StartChar: uni0541
Encoding: 1345 1345 778
Width: 663
Flags: W
HStem: -11 75<157.5 213.5> 161 76<163.5 201.5> 653 75<287.5 410>
VStem: 78 95<436 551> 499 93<419 549.5>
Fore
332 653 m 0
 243 653 173 591 173 495 c 2
 173 434 l 1
 78 436 l 1
 78 502 l 2
 78 600 147 672 223 707 c 0
 253 720 288 728 332 728 c 0
 488 728 589 629 592 482 c 1
 592 419 l 2
 592 285 518 162 405 84 c 1
 436 58 459 23 486 -8 c 1
 413 -42 l 1
 384 -18 361 4 338 36 c 1
 302 17 266 -2 220 -10 c 1
 200 -11 l 2
 115 -11 74 29 61 67 c 2
 54 89 l 1
 51 106 l 1
 51 189 97 235 174 237 c 0
 193 237 211 234 228 229 c 2
 240 226 l 2
 281 216 324 183 351 138 c 1
 433 190 499 308 499 429 c 2
 499 473 l 2
 499 626 363 653 332 653 c 0
179 161 m 0
 148 161 139 139 137 103 c 0
 137 82 160 68 199 64 c 0
 228 64 257 79 277 99 c 1
 264 120 224 161 179 161 c 0
EndSplineSet
EndChar
StartChar: uni0542
Encoding: 1346 1346 779
Width: 665
Flags: W
HStem: 0 75<458 650> 653 75<244 387>
VStem: 79 95<313 582.5> 458 95<0 584>
Fore
316 728 m 0
 458 728 553 645 553 523 c 2
 553 75 l 1
 650 75 l 1
 650 0 l 1
 458 0 l 1
 458 517 l 2
 458 594 432 650 316 653 c 0
 236 653 174 626 174 517 c 2
 174 313 l 1
 79 313 l 1
 79 523 l 2
 79 642 172 728 316 728 c 0
EndSplineSet
EndChar
StartChar: uni0543
Encoding: 1347 1347 780
Width: 665
Flags: W
HStem: 0 96<47 625>
Fore
625 0 m 1
 47 0 l 1
 47 187 112 360 202 474 c 0
 232 514 250 535 256 536 c 1
 241 547 208 563 184 572 c 1
 244 643 l 1
 281 630 299 629 333 606 c 1
 380 648 469 696 530 724 c 1
 596 657 l 1
 524 625 464 595 410 557 c 1
 415 557 434 535 466 491 c 0
 554 373 625 192 625 0 c 1
537 96 m 1
 520 165 l 1
 483 292 424 411 342 496 c 1
 329 496 241 349 217 301 c 0
 185 234 163 166 150 96 c 1
 537 96 l 1
EndSplineSet
EndChar
StartChar: uni0544
Encoding: 1348 1348 781
Width: 756
Flags: W
HStem: 0 85<213 438> 635 94<608 713>
VStem: 45 95<222.5 728> 514 94<217 729>
Fore
333 85 m 0
 488 85 514 180 514 314 c 2
 514 729 l 1
 713 729 l 1
 714 636 l 1
 608 635 l 1
 608 314 l 2
 608 120 551 0 325 0 c 0
 101 0 45 131 45 314 c 2
 45 728 l 1
 140 728 l 1
 140 314 l 2
 140 172 169 85 333 85 c 0
EndSplineSet
EndChar
StartChar: uni0545
Encoding: 1349 1349 782
Width: 623
Flags: W
HStem: -12 75<287 369> 352 77<75 332.5> 653 75<211.5 392.5>
VStem: 439 93<515 587.5> 460 94<134.5 259>
Fore
447 386 m 1xf0
 497 380 554 315 554 203 c 0
 554 66 440 -12 298 -12 c 0
 282 -12 271 -12 265 -11 c 0
 179 -11 49 63 49 194 c 1
 142 194 l 1
 142 146 162 113 201 95 c 0
 240 77 273 63 301 63 c 0
 327 63 359 72 400 91 c 0
 440 109 460 148 460 209 c 0xe8
 460 267 443 305 408 324 c 0
 374 342 340 352 307 352 c 2
 75 352 l 1
 75 429 l 1
 306 429 l 2
 359 429 437 444 439 544 c 0
 439 631 352 653 299 653 c 0
 231 653 175 616 175 556 c 1
 79 556 l 1
 79 623 123 728 300 728 c 0
 485 728 532 619 532 541 c 0
 532 489 521 452 500 429 c 0
 479 406 462 392 447 386 c 1xf0
EndSplineSet
EndChar
StartChar: uni0546
Encoding: 1350 1350 783
Width: 773
Flags: W
HStem: 0 85<333 560> 635 94<9 163>
VStem: 163 95<256 729> 631 95<224 454>
Fore
446 0 m 0
 220 0 168 111 163 314 c 2
 163 635 l 1
 9 636 l 1
 9 729 l 1
 258 729 l 1
 258 314 l 2
 258 198 271 148 335 109 c 0
 364 93 398 85 438 85 c 0
 602 85 631 172 631 314 c 2
 631 454 l 1
 726 454 l 1
 726 314 l 2
 726 134 674 0 446 0 c 0
EndSplineSet
EndChar
StartChar: uni0547
Encoding: 1351 1351 784
Width: 603
Flags: W
HStem: -12 75<197 342.5>
VStem: 40 98<215 415> 460 96<183.5 285>
Fore
40 333 m 2
 40 497 134 590 232 625 c 1
 92 655 l 1
 92 739 l 1
 514 642 l 1
 514 559 l 1
 468 567 431 583 382 587 c 1
 360 588 l 2
 346 588 330 586 312 583 c 0
 305 583 297 581 288 578 c 2
 263 569 l 2
 198 547 138 475 138 333 c 2
 138 242 l 2
 138 143 189 95 239 77 c 2
 273 66 l 1
 288 64 l 1
 301 63 l 2
 332 63 365 74 403 97 c 0
 441 119 460 161 460 221 c 0
 460 285 l 1
 556 285 l 1
 556 215 l 2
 556 152 528 102 492 64 c 0
 452 21 384 -12 301 -12 c 0
 93 -12 40 162 40 215 c 2
 40 333 l 2
EndSplineSet
EndChar
StartChar: uni0548
Encoding: 1352 1352 785
Width: 722
Flags: W
HStem: 1 21G<74 168 542 637> 644 85<241 463.5>
VStem: 74 94<1 507.5> 542 95<1 483>
Fore
623 553 m 0
 623 531 637 523 637 415 c 2
 637 1 l 1
 542 1 l 1
 542 414 l 2
 542 552 516 642 349 644 c 0
 194 644 170 554 168 414 c 2
 168 1 l 1
 74 1 l 1
 74 415 l 2
 74 600 125 729 357 729 c 0
 570 729 612 598 623 553 c 0
EndSplineSet
EndChar
StartChar: uni0549
Encoding: 1353 1353 786
Width: 648
Flags: W
HStem: 653 75<272.5 430.5>
VStem: 66 95<431 532> 486 96<487 553.5>
Fore
583 386 m 2
 583 218 448 129 335 108 c 1
 486 68 l 1
 488 -14 l 1
 86 91 l 1
 86 176 l 1
 217 139 l 1
 387 154 486 244 486 402 c 2
 486 487 l 2
 486 620 392 644 320 653 c 0
 225 653 163 592 161 495 c 2
 161 431 l 1
 66 430 l 1
 66 502 l 2
 66 562 96 617 130 653 c 0
 171 694 233 728 320 728 c 0
 541 728 580 548 582 502 c 2
 583 386 l 2
EndSplineSet
EndChar
StartChar: uni054A
Encoding: 1354 1354 787
Width: 722
Flags: W
HStem: 1 21G<542 637> 223 506<241 463.5>
VStem: 74 94<372 507.5> 300 97<223 645> 542 95<1 505.5>
Fore
623 553 m 0
 623 531 637 523 637 415 c 2
 637 1 l 1
 542 1 l 1
 542 414 l 2
 542 597 484 622 397 645 c 1
 397 245 l 1
 397 231 397 224 395 223 c 2
 300 223 l 1
 300 644 l 1
 281 644 270 643 265 641 c 2
 240 627 l 2
 181 592 169 500 168 414 c 2
 168 372 l 1
 74 372 l 1
 74 415 l 2
 74 600 125 729 357 729 c 0
 570 729 612 598 623 553 c 0
EndSplineSet
EndChar
StartChar: uni054B
Encoding: 1355 1355 788
Width: 751
Flags: W
HStem: -2 21G<46 136> 52 77<136 263> 355 79<122 252> 660 75<218.5 343 329 362.5>
VStem: 46 90<-2 184> 562 73<368 502>
Fore
143 434 m 2
 361 434 489 380 518 281 c 1
 537 320 560 381 562 438 c 0
 562 506 546 542 516 588 c 0
 480 638 382 660 343 660 c 2
 329 660 l 2
 145 638 125 476 122 434 c 1
 143 434 l 2
635 469 m 0
 635 267 509 160 452 131 c 1
 575 131 l 2
 662 131 709 81 711 -8 c 1
 628 -5 l 1
 628 33 605 51 559 52 c 2
 136 52 l 1
 136 -2 l 1
 46 -2 l 1
 46 184 l 1
 136 184 l 1
 136 129 l 1
 263 129 l 2
 344 129 438 164 438 237 c 2
 438 250 l 2
 415 343 271 355 159 355 c 2
 79 357 l 2
 68 357 61 357 54 358 c 0
 49 358 45 359 42 360 c 1
 42 449 l 2
 42 563 107 735 330 735 c 2
 331 735 l 1
 352 735 l 0
 357 735 366 735 377 733 c 0
 444 733 525 697 586 631 c 0
 605 611 635 535 635 469 c 0
EndSplineSet
EndChar
StartChar: uni054C
Encoding: 1356 1356 789
Width: 750
Flags: W
HStem: 1 21G<74 168> 169 81<634 712> 644 85<241 463.5>
VStem: 74 94<1 507.5> 542 95<250 483>
Fore
623 553 m 0
 623 531 637 523 637 415 c 2
 637 250 l 1
 712 250 l 1
 713 170 l 1
 634 169 l 1
 635 2 l 1
 542 1 l 1
 542 414 l 2
 542 552 516 642 349 644 c 0
 194 644 170 554 168 414 c 2
 168 1 l 1
 74 1 l 1
 74 415 l 2
 74 600 125 729 357 729 c 0
 570 729 612 598 623 553 c 0
EndSplineSet
EndChar
StartChar: uni054D
Encoding: 1357 1357 790
Width: 722
Flags: W
HStem: -12 85<249 478.5>
VStem: 79 94<204 716> 547 95<216.5 716>
Fore
354 73 m 0
 517 73 547 161 547 303 c 2
 547 716 l 1
 642 716 l 1
 642 302 l 2
 642 131 595 -12 362 -12 c 0
 136 -12 79 106 79 302 c 2
 79 716 l 1
 173 716 l 1
 173 303 l 2
 173 186 186 134 251 98 c 0
 280 82 314 74 354 73 c 0
EndSplineSet
EndChar
